<svg id="logosandtypes_com" data-name="logosandtypes com" xmlns="http://www.w3.org/2000/svg" viewBox="0 0 150 150"><defs><style>.cls-1{fill:none;}.cls-2{fill:#1d1d1b;}</style></defs><path class="cls-1" d="M0,0H150V150H0Z"/><path class="cls-2" d="M138.68,65.43a63.85,63.85,0,1,0-52.8,73.26A63.84,63.84,0,0,0,138.68,65.43Zm-109.21,35L78.06,23.32a52.09,52.09,0,0,1,30.8,11.82L35.11,108.88A53.56,53.56,0,0,1,29.47,100.46ZM126.64,87.7a52.46,52.46,0,0,1-63.11,39l63.32-39.95C126.79,87.07,126.72,87.39,126.64,87.7ZM51.09,122a51.57,51.57,0,0,1-8.46-5.62l73.69-73.7A52.13,52.13,0,0,1,128,73.53Z"/></svg>