<?xml version="1.0" encoding="utf-8"?>
<svg xmlns="http://www.w3.org/2000/svg" xmlns:xlink="http://www.w3.org/1999/xlink" version="1.1" id="Layer_1" x="0px" y="0px" viewBox="281.2 113.9 761.7 441.7" style="enable-background:new 281.2 113.9 761.7 441.7;">
<style type="text/css">
	.st0{fill:#B32026;}
</style>
<g id="_x23_ffffffff">
</g>
<g id="_x23_b32026ff">
	<path class="st0" d="M767.7,113.9h0.5c-13.9,12.4-28.3,24.2-42.3,36.4c33.5,6.9,67.2,13.3,101.1,17.6c21.2,2.8,42.7,3,64,4.6&#xD;&#xA;		c26.1,1.7,52.3,3.4,78.4,5.5c-32.8,14-65.7,27.6-98.3,41.9c29.5,7.4,58.4,19.4,82.3,38.7c27.9,21.4,58.1,39.7,89.5,55.7&#xD;&#xA;		c-38.3,6.5-76.1,15.2-113.8,24.8c-78.3,20.3-155.6,46.4-227.8,83.2c-29.4,15.2-58.3,32-84.3,52.7c-8.4,7.4-17.7,13.7-26.4,20.8&#xD;&#xA;		c-18.7,14.6-36.4,30.3-54.7,45.2c-6.2,4.7-12.3,10.3-20.1,12c-15.2,3.7-31.6,3.9-46.4-1.6c-5.8-2.2-11.3-5.7-15.5-10.3&#xD;&#xA;		c-11-11.6-20.6-24.6-28.6-38.4c-16-27.8-27-58.5-32.5-90c8.5,11.9,17.6,23.4,27.6,34c7.2,7.5,14.8,14.7,23.7,20.3&#xD;&#xA;		c4.1,2.7,9,3.6,13.8,4.1c27.7,2.4,56.5-9.3,73.8-31.2c17.7-22,23.8-51,24.7-78.7c0-12.7,1-25.9-3.5-38.1&#xD;&#xA;		c-5.2-14.6-16.3-26.3-28.8-34.9c-17-11.8-36.7-19.1-56.6-24.5c-19.7-5.2-39.9-8.6-60.2-9.7c-3.3,11.2-5.8,22.7-7.5,34.3&#xD;&#xA;		c-3.4,23.8-4.1,49.1,4.9,71.8c-7.4-6.2-13.7-13.5-19.1-21.5c-16.3-23.7-23.7-52.9-23.1-81.5c-10.5,0.5-20.8,2.2-31.2,3.7&#xD;&#xA;		c-1.8,7.3-2.4,14.9-3.2,22.4c-1.8,22.4-1.8,45.3,3.9,67.2c1.9,7.8,5.4,15,8.7,22.2c-4.3-2.3-9-4.1-12.5-7.6&#xD;&#xA;		c-5.1-5-9-11.1-12.7-17.2c-8.3-14.3-14.7-29.7-19.3-45.6c-3-10.8-5.4-21.9-5.1-33.2c-2.8-1.3-6.1-2.3-7.9-5&#xD;&#xA;		c-2.9-4.3-2.2-9.9-0.9-14.7c1.8-6.9,7.6-11.6,12.2-16.6c2.3-2.7,5.9-4.7,6.9-8.3c2.1-7.4,3-15.1,5.4-22.4c1.4-4.8,6.5-6.8,10.7-8.4&#xD;&#xA;		c14.2-5,29.5-5.7,44.4-6.2c8.6-0.3,17.1-2.1,25.2-4.9c9.5-3.2,19.2-5.9,28.5-9.7c23.9-12.2,46.7-26.3,70.7-38.2&#xD;&#xA;		c5.4-3,11.7-2.8,17.6-3.2c11.7-0.4,23.3-0.6,35-0.7c43-0.3,86.1-0.6,129.1-2.7c25-1.4,50.1-3,74.8-7.3&#xD;&#xA;		C751.3,118.7,759.8,117.2,767.7,113.9 M527.7,190.4c17.7,3.5,35.4,7.3,53.2,10.7c16.2-8.1,32.6-16,49.3-23&#xD;&#xA;		c-19.4-1.7-38.8-3.9-58.2-5.5C556.7,177,542.2,183.8,527.7,190.4z"/>
	<path class="st0" d="M920.3,360.4c37.5-10,75.4-18.4,113.5-25.4c-33.9,19.6-66.9,40.9-98.3,64.5c-18.1,13.7-35.7,28-51.8,44&#xD;&#xA;		c45-9,90.7-14,136.5-15.3c-31,12.4-61,27.7-88.7,46.4c-11.6,7.9-22.8,16.6-33.1,26.3c34.8-3.8,69.8-1.3,104.7-0.1&#xD;&#xA;		c-19.8,6.3-39.3,13.5-57.9,22.6c-14.7,7.3-29.3,15.4-41,27.2c-23.8-4-48.2-4.4-72.3-3.5c-24,1-47.9,4-71.5,8.3&#xD;&#xA;		c3.2-7.3,9.2-12.8,15.9-17c7.6-5,15.9-8.8,24.4-12.1c-51.8,3.3-102.8,14.3-152.3,29.4c15.4-18,35-31.7,54.8-44.3&#xD;&#xA;		c-48.6,8.4-96.3,21.8-141.9,40.5c9.7-14.5,22.4-26.6,35.4-38.1c28.9-25,61.1-46,94.5-64.5C763.3,409.5,841.1,381.6,920.3,360.4z"/>
</g>
</svg>