<?xml version="1.0" encoding="utf-8"?>
<svg xmlns="http://www.w3.org/2000/svg" xmlns:xlink="http://www.w3.org/1999/xlink" version="1.1" id="Layer_1" x="0px" y="0px" viewBox="0 0 141.7 141.7" style="enable-background:new 0 0 141.7 141.7;">
<style type="text/css">
	.st0{fill:#333333;}
	.st1{fill:#FFFFFF;}
	.st2{fill:#977700;}
	.st3{fill:#EEBB00;}
</style>
<g>
	<g id="Coin_1_">
		<g id="Outter_Circle_1_">
			<circle class="st0" cx="71.2" cy="72.2" r="68.8"/>
		</g>
		<g id="Inner_Circle_1_">
			<path class="st1" d="M71.2,138.7c-9,0-17.7-1.8-25.9-5.2c-7.9-3.3-15-8.1-21.1-14.2C18.1,113.1,13.3,106,10,98.1&#xD;&#xA;				c-3.5-8.2-5.2-16.9-5.2-25.9c0-9,1.8-17.7,5.2-25.9c3.3-7.9,8.1-15,14.2-21.1S37.5,14.3,45.4,11c8.2-3.5,16.9-5.2,25.9-5.2&#xD;&#xA;				S88.9,7.5,97.1,11c7.9,3.3,15,8.1,21.1,14.2c6.1,6.1,10.9,13.2,14.2,21.1c3.5,8.2,5.2,16.9,5.2,25.9c0,9-1.8,17.7-5.2,25.9&#xD;&#xA;				c-3.3,7.9-8.1,15-14.2,21.1c-6.1,6.1-13.2,10.9-21.1,14.2C88.9,136.9,80.2,138.7,71.2,138.7z M71.2,7.8c-8.7,0-17.1,1.7-25.1,5.1&#xD;&#xA;				c-7.7,3.2-14.6,7.9-20.5,13.8c-5.9,5.9-10.6,12.8-13.8,20.5c-3.4,7.9-5.1,16.4-5.1,25.1s1.7,17.1,5.1,25.1&#xD;&#xA;				c3.2,7.7,7.9,14.6,13.8,20.5c5.9,5.9,12.8,10.6,20.5,13.8c7.9,3.4,16.4,5.1,25.1,5.1c8.7,0,17.1-1.7,25.1-5.1&#xD;&#xA;				c7.7-3.2,14.6-7.9,20.5-13.8c5.9-5.9,10.6-12.8,13.8-20.5c3.4-7.9,5.1-16.4,5.1-25.1s-1.7-17.1-5.1-25.1&#xD;&#xA;				c-3.2-7.7-7.9-14.6-13.8-20.5c-5.9-5.9-12.8-10.6-20.5-13.8C88.4,9.5,79.9,7.8,71.2,7.8z"/>
		</g>
	</g>
	<g id="Snake_Upper">
		<path id="Blackout_1_" class="st0" d="M119.3,23.7L119.3,23.7c-0.1,0.4-0.3,0.8-0.6,1.2c-0.1,0.2-0.2,0.3-0.3,0.5&#xD;&#xA;			c-0.4,0.5-0.8,1-1.3,1.5c-0.1,0.1-0.3,0.3-0.4,0.4c-0.1,0.1-0.1,0.1-0.2,0.2c-0.2,0.2-0.4,0.4-0.6,0.6c-0.1,0.1-0.3,0.3-0.4,0.4&#xD;&#xA;			c-0.3,0.4-0.6,0.9-0.9,1.3c-0.2,0.3-0.4,0.6-0.6,0.9c-0.7,1.1-1.3,2.2-1.9,3.1c-1.8,3.2-3.5,6-6.4,7.3c0.1,0.3,0.3,0.6,0.4,0.9&#xD;&#xA;			c0.5,1.2,1.1,2.7,2.4,4.3c1.3,1.6,3.3,3.4,6.6,5.2l1.8,1l-1.6,1.4c-1.7,1.5-3.7,2.2-5.8,2.2c-4.2,0-9.3-2.5-15.1-5.7&#xD;&#xA;			c-1.1-0.6-2.2-1.3-3.4-1.9C69.5,38.9,54.5,36.5,47.6,40c-5.4,2.1-5,7.2-3.8,8.7c1.9,2.9,9.6,5.6,17.8,7.6&#xD;&#xA;			c-2.4,0.3-4.8,0.5-7.2,0.7c-7.7,0.6-15.4,0.9-23.2,0.8c-1.3,0-2.5,0-3.8-0.1c-1.9-2.4-3.8-5.4-4.5-7.3&#xD;&#xA;			c-5.2-14.7,4.1-23.3,5.8-25.1c6-6,18.6-8.1,32.4-6.6c10.1,1.1,18.2,3.6,18.5,3.8l2,0.6c0,0,8.5-1.6,10.5-1.5&#xD;&#xA;			c1.6-1.2,5.9-4.3,7.6-4.9c1.6-0.6,4.3-0.8,5.3-0.9c1.3-0.7,4.8-2.6,6.8-2.6c2.7,0,6.1,3.9,6.4,4.6v0&#xD;&#xA;			C118.4,17.8,119.6,22.5,119.3,23.7z"/>
		<path id="Middle_1_" class="st2" d="M40.7,46c-0.5,5.5,5.3,8.6,13.7,11c-7.7,0.6-15.4,0.9-23.2,0.8c-1-1.4-1.8-2.8-2.6-4.4&#xD;&#xA;			c-1.5-3.1-2-9.7,2-14.9c6.1-7.9,20.8-12.6,51.2,3c0.4,0.2,0.8,0.4,1.2,0.6c2.5,1.3,5.2,2.8,8,4.4c0.1,0.1,0.3,0.2,0.4,0.2&#xD;&#xA;			C54.8,30.8,41.8,35,40.7,46z"/>
		<g id="Head_1_">
			<path class="st2" d="M114.4,27.4c-4.5,6.1-5.6,11.9-10.8,12.7c1.9,2.3,1.5,7.5,10.9,12.6c-9,3-18-13.5-18-13.5&#xD;&#xA;				S108.5,33.1,114.4,27.4z"/>
			<path class="st0" d="M114.5,52.7c-9.8-2.2-10.3-11.7-13.7-13.3c4.2-1.3,5.1-2.4,6.3-3.9c1.6-4.4,9.8-9,10.8-12.3&#xD;&#xA;				c-0.4-1.9-3-5.4-3-5.4l-31.6,18l14.1,11.9l12,5.6C109.5,53.2,111.9,54,114.5,52.7z"/>
			<path class="st0" d="M118.1,24.4l-0.4-0.3h-0.3c-1,0-1,0.2-1.4,0.6c-0.2,0.2-0.3,0.3-0.4,0.4l-1.3,0.5l1.1,0.9&#xD;&#xA;				c2.5,2.1,5.1,3.6,6.1,8.8c0.4,1.4,0.5,2.5,0.9,4.1c0,0,0.7-2.1,0.8-3.3C123.5,29.8,119.7,25.2,118.1,24.4z"/>
			<path class="st1" d="M115.9,25.8c0.8-0.3,1.3-0.5,1.7-1.2c1.2,0.6,5.6,6.4,4.9,12.4C121.2,29.5,118.6,28.1,115.9,25.8z"/>
			<path class="st0" d="M115.3,24.8l-0.3-0.3h-0.4c-1.8,0-4.1,0-4.1,2.2v0.6l0.5,0.3c3.3,1.9,4.8,5.7,5.9,9.3l1.1,4.5l0.7-3.6&#xD;&#xA;				C119.3,33.7,117.1,26.7,115.3,24.8z"/>
			<path class="st3" d="M81.6,30.4c-4.7-8.3,11-7.3,11-7.3s5.8-4.4,7.6-5c1.7-0.6,5.3-0.8,5.3-0.8s4.5-2.6,6.4-2.6s4.9,3.3,5.1,3.7&#xD;&#xA;				c0.2,0.4,1,4.5,0.9,4.8c-0.3-0.9-1.8-3.3-1.8-3.3s0.5,3.2-1,4.1c-1.5,0.9-1.6,0-3.7,1.2c-2.1,1.2-0.8,1.3-3.1,3&#xD;&#xA;				c-0.7,0.5-1.6,0.8-3.6,1.9c-5.1,2.6-2.5,7.4-12.8,6.8c4.8,3.3,9.9,17.4,22.6,15.9c-7.2,6.3-20-5.4-37.3-13.5&#xD;&#xA;				C57.5,30,35,23.1,26.6,38c-1.6,2.8-2,6.5-1.9,11.2c-1.2-3.3-1.3-6.5-1-9.3C25,30,31.4,24,39.7,21.7c16.4-4.7,39.5,2.2,39.5,2.2&#xD;&#xA;				S76.2,27.7,81.6,30.4z"/>
			<path class="st2" d="M87.1,25.2c2.4-0.9,6.1-1,9-2.3c4.4-2,8.1-3.9,12.1-3.4c-2.1,1.2-1.2,2.3-2.5,4.2c-1.3,2-3,1.7-5,2.1&#xD;&#xA;				C93.5,29.7,93.5,25.1,87.1,25.2z"/>
			<path class="st0" d="M94,23.7c0,0,2-0.7,3-1.1c1-0.4,3.7-2.7,5.1-2.8c1.4-0.2,4-0.3,4-0.3s-0.5,0.7-1,1c0.4,1.1-0.9,2.8-2.7,4&#xD;&#xA;				c-1.6,1.1-3.4,1.8-6.1-0.3C95.1,23.9,94,23.7,94,23.7z"/>
			<path class="st1" d="M97.4,23.2c2.1-1.2,3.3-2.2,4.3-2.4c1-0.2,1.3-0.1,2.5-0.2c-0.1,0.9-0.8,2.1-2.4,2.7&#xD;&#xA;				C100.8,23.6,99.6,23.9,97.4,23.2z"/>
			<path class="st0" d="M113.4,18.8c-1.1-1-3.3-0.5-2.4-1.7C112.4,16.2,113.4,17.7,113.4,18.8z"/>
			<path class="st2" d="M87.9,37.5c-5.6-2.2-6.2-4.8-6.2-4.8s-25.4-11.2-41-7.2c12.1-1,24.4,3.1,34.5,8.2c-8-2.5-17.9-5.1-21.3-4.6&#xD;&#xA;				c28.7,7.6,43.5,19.6,43.5,19.6C98,45.7,89.8,42.9,87.9,37.5z"/>
			<path class="st2" d="M84.2,33.2c2.9,1.7,11.7,3.3,18.5-1.7c-1.4,4.6-7,6.3-10.3,5.8C89.2,36.7,84.8,35,84.2,33.2z"/>
			<path class="st1" d="M111.4,26.7c0-1.2,1.4-1.2,3.1-1.2c1.5,1.6,3.9,9.5,3.3,12.6C116.6,32.9,115.1,28.9,111.4,26.7z"/>
			<path class="st2" d="M97.5,40.8c1.9,0.5,4.3,3.8,4.3,3.8s0.2-1.7-1.7-3.9c2.5,0.6,4.9,9.1,8.7,10.7&#xD;&#xA;				C105.5,50.9,100.6,44.7,97.5,40.8z"/>
		</g>
	</g>
	<g id="Snake_Lower">
		<path id="Blackout" class="st0" d="M25,107.7c-0.8,0.3-1.6,0.6-2.4,0.9c0.5,1.1,1.1,2.1,1.7,3.2c4,6.4,11.2,12.5,19.7,16.7&#xD;&#xA;			c8.6,4.2,18,6.4,27.6,6.4c1.4,0,2.8,0,4.2-0.1c10.6-0.7,21.4-4.3,30.2-10.1c9-5.9,15.2-13.6,17.5-21.6c0.8-2.9,1-6,0.7-9.1&#xD;&#xA;			c-0.8-0.1-1.6-0.1-2.4-0.2c-4-0.2-8.1-0.4-12.1-0.4c-0.3,0-0.6,0-0.9,0c-3.3,0-6.6,0-9.9,0.1c-1.1,0-2.2,0.1-3.3,0.1&#xD;&#xA;			c2.7,2.4,4.4,5,4.9,7.6c-1.4,1.6-7,4-9.2,4.7c-5.7-4.5-11.4-7.8-16.8-10.3c-1.4,0.2-2.8,0.4-4.2,0.6c-0.9,0.1-1.8,0.3-2.7,0.4&#xD;&#xA;			c-1.7,0.3-3.3,0.6-5,0.9c-1.8,0.3-3.5,0.7-5.3,1.1L54,99.3c-3.3,0.7-6.6,1.6-9.9,2.5c-0.9,0.2-1.8,0.5-2.7,0.8&#xD;&#xA;			C35.9,104,30.5,105.8,25,107.7L25,107.7z"/>
		<path id="Middle" class="st2" d="M108.8,93.3c-0.3,1.5-0.8,3-1.3,4.3c-1.1,2.7-2.6,4.8-4.1,5.7c0-0.3-0.1-0.7-0.1-1&#xD;&#xA;			c-0.6-3.4-2.1-6.2-4.4-8.8C102.3,93.3,105.5,93.3,108.8,93.3z"/>
		<g id="Lower_Body">
			<path class="st3" d="M25,107.7c0.1,0.2,0.2,0.4,0.3,0.5c0.1,0.2,0.2,0.4,0.3,0.6c0.2,0.4,0.4,0.7,0.6,1.1&#xD;&#xA;				c0.1,0.1,0.2,0.3,0.3,0.4c0.3,0.5,0.7,1,1,1.5c0.1,0.2,0.3,0.4,0.4,0.6c0,0,0,0,0,0c0.2,0.2,0.3,0.4,0.5,0.6&#xD;&#xA;				c0.2,0.2,0.3,0.4,0.5,0.6c0.2,0.2,0.4,0.4,0.5,0.6c0.9,1.1,2,2.1,3.1,3.2c0.2,0.2,0.4,0.4,0.7,0.6c0.2,0.2,0.5,0.4,0.7,0.6&#xD;&#xA;				c0.2,0.2,0.4,0.4,0.7,0.5c0.1,0.1,0.1,0.1,0.2,0.2c0.2,0.2,0.4,0.3,0.6,0.5c0.5,0.4,1,0.8,1.6,1.2c0.2,0.2,0.5,0.4,0.7,0.5&#xD;&#xA;				c0.3,0.2,0.7,0.5,1.1,0.7c0.2,0.1,0.4,0.3,0.6,0.4c0.1,0,0.1,0.1,0.2,0.1c0.2,0.2,0.5,0.3,0.7,0.5c0.3,0.2,0.6,0.4,0.9,0.5&#xD;&#xA;				c0.6,0.4,1.2,0.7,1.8,1c0.3,0.2,0.6,0.3,0.9,0.5c0.6,0.3,1.3,0.6,1.9,1c0.3,0.2,0.7,0.3,1,0.5c0.3,0.1,0.6,0.3,1,0.4&#xD;&#xA;				c0,0,0.1,0,0.1,0c0.3,0.1,0.6,0.3,0.9,0.4c0.1,0,0.2,0.1,0.2,0.1c0.3,0.1,0.6,0.2,0.9,0.3c0.8,0.3,1.6,0.6,2.4,0.9c0,0,0,0,0,0&#xD;&#xA;				c7.1,2.4,15.1,3.7,23.4,3.2c10-0.7,19.8-4,27.7-8.9c1.9-1.2,3.7-2.4,5.3-3.8c0.3-0.2,0.6-0.5,0.9-0.7c0.3-0.2,0.6-0.5,0.9-0.8&#xD;&#xA;				c0.3-0.3,0.6-0.5,0.8-0.8s0.6-0.5,0.8-0.8c0.1-0.1,0.3-0.3,0.4-0.4c0.1-0.1,0.3-0.3,0.4-0.4c0.3-0.3,0.5-0.5,0.8-0.8&#xD;&#xA;				c0.2-0.3,0.5-0.5,0.7-0.8c0,0,0-0.1,0.1-0.1c0.2-0.2,0.4-0.4,0.6-0.7c0.3-0.3,0.6-0.7,0.8-1s0.5-0.7,0.8-1.1&#xD;&#xA;				c0.1-0.2,0.3-0.4,0.4-0.5c0.2-0.3,0.4-0.6,0.6-0.9c0.5-0.7,0.9-1.5,1.3-2.2c0.1-0.2,0.2-0.3,0.2-0.5c0.1-0.2,0.2-0.3,0.2-0.5&#xD;&#xA;				c0.1-0.3,0.3-0.6,0.4-0.9c0,0,0,0,0,0c0.1-0.3,0.3-0.6,0.4-0.9c0,0,0,0,0,0c0.1-0.3,0.2-0.6,0.3-0.9c0,0,0,0,0,0&#xD;&#xA;				c0.1-0.3,0.2-0.6,0.3-0.9c0.1-0.4,0.2-0.8,0.4-1.3c0-0.1,0.1-0.2,0.1-0.3c0-0.2,0.1-0.3,0.1-0.5c0-0.2,0.1-0.3,0.1-0.5&#xD;&#xA;				c0-0.2,0.1-0.3,0.1-0.5c0-0.3,0.1-0.6,0.1-0.8c0-0.2,0.1-0.5,0.1-0.7c0-0.2,0-0.3,0-0.5c0-0.2,0-0.4,0-0.6c0-0.1,0-0.1,0-0.2&#xD;&#xA;				c0-0.3,0-0.5,0-0.8c0-0.2,0-0.4,0-0.6c0-0.6-0.1-1.2-0.1-1.8c-4-0.2-8.1-0.4-12.1-0.4c-0.5,1.5-1.3,2.9-2.1,4.3&#xD;&#xA;				c-1.2,1.7-2.6,3.3-4.2,4.7c-8.5,7.3-22.8,9.8-35.4,9c-10.7-0.7-21-4.5-26.5-8.7C35.9,104,30.5,105.8,25,107.7L25,107.7z"/>
			<path class="st2" d="M121.9,95.5c-0.3,11.2-7.9,23.2-28.5,29.5c3.8-0.3,7.1-1,10-1.9C114.6,116.2,122.2,106.1,121.9,95.5z"/>
			<g>
				<path class="st2" d="M25,107.7c0.1,0.2,0.2,0.4,0.3,0.5c0.1,0.2,0.2,0.4,0.3,0.6c0.2,0.4,0.4,0.7,0.6,1.1&#xD;&#xA;					c0.1,0.1,0.2,0.3,0.3,0.4c0.3,0.5,0.7,1,1,1.5c0.1,0.2,0.3,0.4,0.4,0.6c0,0,0,0,0,0c0.2,0.2,0.3,0.4,0.5,0.6&#xD;&#xA;					c0.2,0.2,0.3,0.4,0.5,0.6c0.2,0.2,0.4,0.4,0.5,0.6c0.9,1.1,2,2.1,3.1,3.2c0.2,0.2,0.4,0.4,0.7,0.6c0.2,0.2,0.5,0.4,0.7,0.6&#xD;&#xA;					c0.2,0.2,0.4,0.4,0.7,0.5c0.1,0.1,0.1,0.1,0.2,0.2c0.2,0.2,0.4,0.3,0.6,0.5c0.5,0.4,1,0.8,1.6,1.2c0.2,0.2,0.5,0.4,0.7,0.5&#xD;&#xA;					c0.3,0.2,0.7,0.5,1.1,0.7c0.2,0.1,0.4,0.3,0.6,0.4c0.1,0,0.1,0.1,0.2,0.1c0.2,0.2,0.5,0.3,0.7,0.5c0.3,0.2,0.6,0.4,0.9,0.5&#xD;&#xA;					c0.6,0.4,1.2,0.7,1.8,1c0.3,0.2,0.6,0.3,0.9,0.5c0.6,0.3,1.3,0.6,1.9,1c0.3,0.2,0.7,0.3,1,0.5c0.3,0.1,0.6,0.3,1,0.4&#xD;&#xA;					c0,0,0.1,0,0.1,0c0.3,0.1,0.6,0.3,0.9,0.4c0.1,0,0.2,0.1,0.2,0.1c0.3,0.1,0.6,0.2,0.9,0.3c0.8,0.3,1.6,0.6,2.4,0.9c0,0,0,0,0,0&#xD;&#xA;					c10.2,2.3,21.8,2.7,31.9-1.1C51.6,131.9,29.7,115.2,25,107.7L25,107.7z"/>
			</g>
			<path class="st2" d="M86.3,105.4c-0.1,0-0.1,0.1-0.2,0.1c-5.3,3.2-13.1,3.6-21,2.5c-7.9-1.1-15.8-3.6-21-6.2&#xD;&#xA;				c3.3-0.9,6.6-1.7,9.9-2.5l3.4-0.7c1.8-0.4,3.5-0.7,5.3-1.1c1.7-0.3,3.3-0.6,5-0.9c0.9-0.2,1.8-0.3,2.7-0.4&#xD;&#xA;				C77.3,99,83.5,102.5,86.3,105.4z"/>
			<path class="st0" d="M87.1,106.2c-0.6,2.4-11.7,4.5-19.9,3.7c-0.5-0.6-1.1-1.1-2.1-1.9c-1.6-1.1-4.4-2.6-10.1-4.9&#xD;&#xA;				c3.8,0,10.6,2.2,14,3.5c-2-1.9-6.2-4.6-15-7.2l3.4-0.7c8.2,1.6,17.2,5.2,17.6,5.3c-0.2-0.2-3.8-3.4-12.2-6.4&#xD;&#xA;				c1.7-0.3,3.3-0.6,5-0.9c6.7,2.3,13.3,5.4,18.4,8.9C86.5,105.7,86.8,105.9,87.1,106.2z"/>
		</g>
	</g>
	<g id="Text">
		<path id="S" class="st1" d="M34.2,98.5c-0.3-2.3-0.7-4.6-1-6.9c-0.1-0.9-0.3-1.9-0.4-2.8c-0.1-0.4-0.1-0.8-0.2-1.1&#xD;&#xA;			c-0.1-0.8-0.7-1.9-1.9-3.2c-3.3-3.6-6.7-7.4-10.1-11.6c-0.4-2.7-0.8-5.3-1.1-8c1.5,0,3.1,0.1,4.6,0.1c0.2,1.7,0.5,3.3,0.7,4.9&#xD;&#xA;			c1.9,0.9,3.8,1.7,5.7,2.5c-0.4-2.8-0.8-5.7-1.2-8.5c-0.1-1-0.5-1.9-1.2-2.5c-0.7-0.7-1.6-1-2.6-1.1c-3-0.1-5.9-0.3-8.9-0.5&#xD;&#xA;			c-0.9-0.1-1.7,0.2-2.2,1c-0.5,0.7-0.7,1.6-0.6,2.6c0.5,3.4,1,6.8,1.4,10.2c0.1,0.8,0.6,1.9,1.5,3c3.6,4.6,7.2,8.7,10.7,12.6&#xD;&#xA;			c0.1,0.5,0.1,1,0.2,1.5c0.2,1,0.3,2.1,0.4,3.1v0c0.2,1.7,0.5,3.4,0.7,5.2c-1.5,0.4-2.9,0.9-4.4,1.4c-0.1-0.6-0.2-1.2-0.3-1.8&#xD;&#xA;			c-0.2-1.6-0.5-3.2-0.7-4.7c-0.1-0.4-0.1-0.7-0.2-1.1c-1.9-0.6-3.7-1.2-5.6-1.9c0.6,4.1,1.2,8.3,1.8,12.4c0.2,1.2,0.6,2.1,1.3,2.5&#xD;&#xA;			c0.3,0.2,0.5,0.3,0.8,0.3c0.5,0.1,1,0,1.5-0.2c0.4-0.1,0.7-0.3,1.1-0.4c2.4-0.9,4.9-1.8,7.3-2.6c0.9-0.3,1.6-0.9,2.1-1.8&#xD;&#xA;			C34.2,100.4,34.3,99.5,34.2,98.5z"/>
		<path id="P" class="st1" d="M52.1,79.4c-0.3-1.8-0.5-3.7-0.8-5.5c-0.1-0.9-0.3-1.8-0.4-2.7c-0.4-2.7-0.8-5.4-1.2-8.1&#xD;&#xA;			c-0.1-0.9-0.6-1.6-1.3-2.1c-0.8-0.5-1.8-0.8-3.1-0.7c-4,0.2-8,0.2-12.1,0.2h0c-0.4,0-0.8,0-1.2,0c0.1,0.8,0.2,1.6,0.3,2.4&#xD;&#xA;			c1.2,8.4,2.4,16.8,3.6,25.2c0.1,0.9,0.3,1.8,0.4,2.7c0.2,1.6,0.4,3.1,0.7,4.7v0c0.1,0.9,0.3,1.8,0.4,2.7v0&#xD;&#xA;			c0.1,0.9,0.3,1.8,0.4,2.7c0.4-0.1,0.9-0.3,1.3-0.4c0.6-0.2,1.3-0.4,1.9-0.6c0.6-0.2,1.3-0.4,1.9-0.6c-0.4-2.5-0.7-5-1.1-7.5v0&#xD;&#xA;			c0,0,0-0.1,0-0.1c-0.1-0.5-0.1-0.9-0.2-1.4c-0.1-0.9-0.2-1.7-0.4-2.6c-0.2-1.1-0.3-2.2-0.5-3.3c2.7-0.5,5.4-0.9,8-1.4&#xD;&#xA;			c1.1-0.2,2-0.6,2.5-1.3C52.1,81.2,52.3,80.4,52.1,79.4z M40.3,80.3c-0.6-4.3-1.2-8.6-1.8-12.9c-0.1-0.9-0.2-1.7-0.4-2.6&#xD;&#xA;			c0,0,0.1,0,0.1,0c2.1-0.1,4.2-0.2,6.3-0.3c0.2,1.4,0.4,2.8,0.6,4.2c0.1,0.9,0.2,1.8,0.4,2.7c0.4,2.7,0.8,5.4,1.1,8&#xD;&#xA;			C44.6,79.7,42.5,80,40.3,80.3z"/>
		<path id="L" class="st1" d="M71.8,89.5c-3.1,0.4-6.1,0.9-9.2,1.5c-0.6-4.5-1.3-9-1.9-13.5c-0.1-0.9-0.2-1.7-0.4-2.6&#xD;&#xA;			c-0.7-5.1-1.5-10.3-2.2-15.4c-1.8,0.2-3.6,0.3-5.4,0.5c0.6,4.3,1.2,8.5,1.8,12.8v0c0.1,0.9,0.3,1.8,0.4,2.7&#xD;&#xA;			c0.7,4.7,1.3,9.4,2,14.2c0.1,0.8,0.2,1.5,0.3,2.3c0.1,0.6,0.2,1.3,0.3,1.9c0.1,0.7,0.2,1.4,0.3,2.1c1.5-0.3,3-0.6,4.5-0.9h0&#xD;&#xA;			c1.1-0.2,2.2-0.4,3.3-0.6c1.5-0.3,3-0.5,4.4-0.7c0.7-0.1,1.5-0.2,2.2-0.3C72.1,92,71.9,90.8,71.8,89.5z"/>
		<path id="Y" class="st1" d="M80.8,56.1c-0.2,1.5-0.4,3-0.6,4.4c-0.1,0.8-0.2,1.5-0.3,2.3c-0.4,3-0.7,5.9-1.1,8.8&#xD;&#xA;			c-1.6-3.4-3.1-6.8-4.7-10.1c-0.4-0.9-0.9-1.9-1.3-2.8c-0.2-0.4-0.3-0.7-0.5-1.1c-0.9,0.1-1.8,0.3-2.7,0.4&#xD;&#xA;			c-0.9,0.1-1.8,0.3-2.7,0.4c0.3,0.6,0.6,1.2,0.8,1.7v0c3.1,6.4,6.2,12.7,9.3,19c0.1,0.6,0.2,1.1,0.2,1.7c0.1,0.8,0.2,1.6,0.3,2.4&#xD;&#xA;			c0.4,3.1,0.9,6.2,1.3,9.2c1.8-0.2,3.6-0.4,5.3-0.6c-0.3-2-0.6-4.1-0.9-6.1c-0.1-0.9-0.2-1.7-0.4-2.6c-0.2-1.6-0.4-3.1-0.7-4.7&#xD;&#xA;			c0.8-4.8,1.6-9.6,2.3-14.5c0.1-0.7,0.2-1.5,0.3-2.2c0.4-2.2,0.7-4.5,1-6.8C84.2,55.4,82.5,55.7,80.8,56.1z"/>
		<path id="C" class="st1" d="M110.9,87.7L110.9,87.7c0-0.1,0-0.2,0-0.2c-0.5-3.6-1-7.3-1.6-10.9c0,0,0,0,0,0&#xD;&#xA;			c-0.7,0.5-1.5,0.9-2.2,1.4c-0.9,0.6-1.8,1.1-2.7,1.7c0.3,2.3,0.6,4.6,1,6.8c-2.1,0.1-4.3,0.2-6.4,0.3c-0.9-6.2-1.8-12.4-2.6-18.6&#xD;&#xA;			c-0.1-1-0.3-2.1-0.4-3.1c-0.4-2.6-0.8-5.3-1.1-7.9c2.1-0.5,4.1-1,6.2-1.5c0.2,1.6,0.4,3.1,0.7,4.7c1.9,0.5,3.7,1,5.6,1.5&#xD;&#xA;			c-0.3-2.1-0.6-4.2-0.9-6.3c-2.6-0.6-5.5-1.9-8.6-3.5c-1.9,0.5-3.7,1-5.6,1.5c-0.9,0.2-1.6,0.7-2.1,1.4c-0.6,0.8-0.8,1.5-0.7,2.4&#xD;&#xA;			c0.3,2,0.6,4,0.8,5.9c0.1,0.9,0.2,1.7,0.4,2.6c1.1,7.4,2.1,14.8,3.2,22.2c0.1,0.4,0.2,0.8,0.4,1.2c0.2,0.3,0.5,0.7,0.9,0.9&#xD;&#xA;			c0.3,0.2,0.7,0.4,1,0.5h0c0.5,0.2,1,0.2,1.5,0.2c3.5-0.1,7-0.2,10.4-0.2c0.4,0,0.8-0.1,1.1-0.2c0.4-0.1,0.8-0.4,1.1-0.7&#xD;&#xA;			c0.2-0.2,0.3-0.4,0.4-0.6l0,0v0C110.9,88.8,111,88.3,110.9,87.7z"/>
		<path id="E" class="st1" d="M127.7,86.6c-1.8-0.1-3.7-0.1-5.5-0.2c-0.9,0-1.7,0-2.6,0c-0.1,0-0.1,0-0.2,0c0-0.2,0-0.3-0.1-0.5v0&#xD;&#xA;			c-0.3-1.9-0.5-3.8-0.8-5.8c-0.4-3-0.9-6.1-1.3-9.1c2.5-0.3,5-0.6,7.4-0.9c-0.2-1.7-0.5-3.5-0.7-5.2c-2.5,0.4-4.9,0.9-7.4,1.3&#xD;&#xA;			c-0.6-4-1.1-7.9-1.7-11.9c-1.5,1.2-3.2,1.7-5.1,1.7c0.8,5.9,1.7,11.8,2.5,17.7c0.2,1.2,0.3,2.4,0.5,3.5v0c0.6,4.6,1.3,9.1,2,13.7&#xD;&#xA;			c2.2,0.1,4.4,0.2,6.6,0.3c0.8,0.1,1.6,0.1,2.4,0.2c1.5,0.1,3.1,0.2,4.6,0.4C128.2,90.1,128,88.3,127.7,86.6z M121.5,44.2&#xD;&#xA;			c-3.6,1.4-7.3,2.8-11,4c1.2,1.1,2.7,2.1,4.7,3.2l0.2,0.1c2.3-0.7,4.6-1.4,6.8-2.2C122,47.6,121.8,45.9,121.5,44.2z"/>
	</g>
	<g id="_xAE__1_">
		<path class="st0" d="M106.5,96.3c0,1.1-0.9,2-2,2c-1.1,0-2-0.9-2-2s0.9-2,2-2C105.6,94.3,106.5,95.2,106.5,96.3z M105.9,96.3&#xD;&#xA;			c0-0.8-0.6-1.4-1.4-1.4c-0.8,0-1.4,0.6-1.4,1.4c0,0.8,0.6,1.4,1.4,1.4C105.3,97.7,105.9,97.1,105.9,96.3z M104.9,96.6l0.4,0.7&#xD;&#xA;			h-0.6l-0.4-0.6h-0.1v0.6h-0.5v-2h0.8c0.5,0,0.7,0.3,0.7,0.7C105.3,96.3,105.2,96.5,104.9,96.6z M104.5,96.2c0.2,0,0.3-0.1,0.3-0.2&#xD;&#xA;			c0-0.1-0.1-0.2-0.3-0.2h-0.2v0.5H104.5z"/>
	</g>
</g>
</svg>