<?xml version="1.0" encoding="utf-8"?>
<svg xmlns="http://www.w3.org/2000/svg" xmlns:xlink="http://www.w3.org/1999/xlink" version="1.1" id="Layer_1" x="0px" y="0px" viewBox="0 0 1409 1409" style="enable-background:new 0 0 1409 1409;">
<style type="text/css">
	.st0{fill:#181026;}
	.st1{fill:#FFFFD0;}
	.st2{fill:#732FE7;}
	.st3{fill:#9D793F;}
	.st4{fill:#E9B153;}
</style>
<g id="_x23_181026ff">
	<path class="st0" d="M704.09,0h0.13c36.72,22.57,74.35,43.69,109.97,68.01c36.13,24.37,70.64,51.06,103.89,79.21&#xD;&#xA;		c28.31,23.84,55.48,49.09,80.6,76.28c27.14,29.37,52.14,60.89,72.88,95.13c20.38,33.76,36.78,70.46,43.89,109.43&#xD;&#xA;		c3.08,18.16,4.87,36.51,6.23,54.87c4.68,64.38-0.09,128.93-5.95,193.06c-4.51,51.85-9.8,103.95-6.43,156.04&#xD;&#xA;		c2.61,40.46,11.35,80.98,29.48,117.44c-38-8.63-75.82-22.11-107.08-45.95c-10.08-7.84-19.48-16.75-26.73-27.31&#xD;&#xA;		c-1.2-1.29-1.48-3.5-3.17-4.22c-2.46,11.71-6.16,23.2-11.39,33.98c10.94,4.9,19.72,13.66,26.07,23.7&#xD;&#xA;		c5.89,9.32,10.3,19.6,12.93,30.31c-15.39,2.2-29.76,10.56-39.45,22.75c-7.9,9.4-12.39,20.96-16.71,32.29&#xD;&#xA;		c-28.87,74.88-62.04,148.41-104.15,216.85c-21.67,35.13-45.69,68.91-73.23,99.7c-26.57,29.59-56.54,56.59-90.98,76.75&#xD;&#xA;		c0,0.17-0.01,0.51-0.01,0.68h-1.29c0.02-0.19,0.05-0.56,0.07-0.75c-30.58-18.24-57.87-41.57-82.19-67.48&#xD;&#xA;		c-27.06-28.8-50.75-60.62-72.15-93.79c-35.23-54.77-64.38-113.24-89.87-173.1c-9.7-22.65-18.6-45.63-27.64-68.55&#xD;&#xA;		c-5.45-14.12-14.43-27.25-27.17-35.69c-7.52-5.02-16.18-8.48-25.2-9.44c3.42-13.86,9.59-27.21,18.64-38.31&#xD;&#xA;		c5.53-6.71,12.44-12.32,20.38-15.92c-5.24-10.96-9.06-22.59-11.45-34.49c-9.19,15.13-22.57,27.23-36.99,37.28&#xD;&#xA;		c-29.79,20.49-64.47,32.71-99.53,40.58l-0.27,0.66v-0.75c7.37-14.83,13.16-30.42,17.68-46.34c12.37-43.77,14-89.73,12.11-134.91&#xD;&#xA;		c-2.39-54.81-9.3-109.3-12.54-164.05c-3.45-55.23-3.25-110.89,4.36-165.78c6.89-49.57,29.18-95.62,56.57-136.99&#xD;&#xA;		c42.56-63.67,97.88-117.69,156.89-166.05c32.93-27.17,67.17-52.77,102.93-76.1c31.14-20.48,63.57-38.87,95.36-58.29L704.09,0&#xD;&#xA;		 M680.64,79.39c-27.75,19.24-56.77,36.54-84.84,55.31c-20,13.39-39.31,27.79-57.96,43.01c-55.23,45.08-106.94,95.63-146.43,155.34&#xD;&#xA;		c-21.06,32.26-38.83,67.59-45.63,105.82c-3.54,22.54-5.45,45.33-6.18,68.13c-1.61,48.49,3.71,96.82,8.2,145.03&#xD;&#xA;		c2.12,25.15,5.25,50.2,7.46,75.34c1.62,20.13,2.7,40.42,1.21,60.61c-1.37,18.25-4.92,36.64-13.1,53.14&#xD;&#xA;		c13.07-5.93,23.82-16.26,32.22-27.76c0.1-0.36,0.29-1.08,0.39-1.44l0.96-0.09c19.22-26.96,28.55-59.56,33.77-91.88&#xD;&#xA;		c4.19-24.54,3.92-49.59,8.27-74.11c5.69-34.31,16.62-68.89,38.65-96.38c12.15-15.18,27.84-27.51,45.54-35.58&#xD;&#xA;		c13.58-6.03,28.02-10.92,43.01-11.34c24.62-0.78,49.23,6.59,70.06,19.59c10.28,6.62,20.02,14.58,27.12,24.61&#xD;&#xA;		c-7.74-2.97-16.44-3.41-24.4-1.07c-5.67,3.1-10.65,7.31-15.37,11.68c-12.35,11.77-22.5,25.61-31.74,39.88l-0.1,1&#xD;&#xA;		c2.44-0.82,4.98-1.71,7.6-1.43c-1.99,2.95-5.24,4.99-7.76,7.54l-0.01,0.15c-2.72,2.44-5.24,5.09-7.72,7.77&#xD;&#xA;		c-6.77,7.6-11.1,16.96-17.43,24.88c-1.98,2.58-5.45,3.82-8.33,1.94c-3.56-6.8-2.28-14.89-0.41-22c1.72-6.82,5.16-13.07,8.25-19.26&#xD;&#xA;		c-7.85,8.15-15.33,16.69-22.39,25.55c-0.8,1.12-1.86,2.17-2.17,3.57c-2.46,1.46-3.63,4.52-5.48,6.7&#xD;&#xA;		c-5.26,8.03-11.32,16.49-11.85,26.4c-0.22,5.52,5.25,8.79,10.17,9.1c10.15,1.01,20.54-0.67,30.21-3.75&#xD;&#xA;		c11.39-2.51,22.46-6.73,33.16-11.42c3.14-1.25,6.17-2.74,9.23-4.16c4.14-1.97,8.25-4.04,12.29-6.21&#xD;&#xA;		c41.31-22.13,78.34-53.04,105.37-91.48c1.38-3.67,1.17-7.76,0.78-11.59c-0.58-4.85-2.36-10.2-6.87-12.72&#xD;&#xA;		c-5.33-3.48-12.46-3.13-17.23-7.63c-3.98-3.28-4.94-8.57-6.52-13.19c-6.62-22.31-12.98-44.71-20.73-66.66&#xD;&#xA;		c-13.96-39.4-31.11-78.21-56.22-111.89c5.49-10.3,11.58-20.27,18.02-30c25.92-39.1,56.36-75.03,88.74-108.91&#xD;&#xA;		c24.12,12.2,47.58,25.66,70.69,39.65c68.47,41.65,133.71,88.51,195.91,139c6.14,4.81,11.95,10.14,18.22,14.72&#xD;&#xA;		c-30.11-33.45-62.67-64.68-96.26-94.63c-58.37-51.68-121-98.83-188.61-137.79c0.01-11.31-0.09-22.62,0.05-33.92&#xD;&#xA;		c60.37,33.78,119.67,69.76,175.35,110.9c31.67,23.56,62.22,48.84,89.46,77.47c25.8,27.26,48.89,57.94,62.69,93.12&#xD;&#xA;		c7.81,20.46,12.97,41.86,16.67,63.42c7.84,46.39,8.73,93.55,10.19,140.46c0.35,16.79,1.34,33.58,1.66,50.36&#xD;&#xA;		c1.09-1.45,0.77-3.46,1.08-5.17c2.14-23.02,4.48-46.03,6.06-69.1c3.34-46.32,2.7-93.09-4.48-139.03&#xD;&#xA;		c-6.35-35.92-22.46-69.32-41.79-99.96c-21.94-34.5-48.38-65.96-76.98-95.1c-28.57-28.95-59.35-55.68-91.47-80.61&#xD;&#xA;		c-28.05-21.87-58.21-40.79-88.2-59.83c-20.45-13.06-40.57-26.63-60.23-40.85C696.56,68.27,688.66,73.92,680.64,79.39&#xD;&#xA;		 M662.21,264.99c-15.35,19.39-28.44,40.54-39.3,62.75c-0.53,1.29-1.44,2.48-1.58,3.9c6.98,7.19,13.28,15.01,19.21,23.08&#xD;&#xA;		c1.86,2.69,4,5.24,5.35,8.25c0.05-0.81-0.13-1.57-0.53-2.27c-3.94-7.36-8.12-14.58-12.39-21.75c9.13-24.85,23.7-47.43,40.34-67.89&#xD;&#xA;		c9.41-11.63,20.11-22.16,30.96-32.4c7.16,6.2,13.88,12.89,20.32,19.83c21.62,23.52,39.99,50.48,51.45,80.42&#xD;&#xA;		c-10.67,17.47-20.14,35.67-28.9,54.16c-4.38,8.97-8.5,18.08-12.37,27.28l-0.16,0.11c-1.19,3.35-3.02,6.5-3.91,9.94l-0.27,0.12&#xD;&#xA;		c-2,4.86-4.03,9.72-5.85,14.65c-7.51,19.23-14.44,38.82-20.01,58.71c2.17,5.35,4.06,10.86,6.99,15.85l0.49-0.04&#xD;&#xA;		c6.39-16.2,12.17-32.66,18.92-48.73c4.62-11.56,9.95-22.86,14.8-34.29l0.26-0.07c2.13-4.72,4.48-9.34,6.68-14.03l0.11-0.03&#xD;&#xA;		c1.78-3.81,3.8-7.51,5.66-11.27c5.31-10.01,10.88-19.89,16.83-29.53c7.25-11.48,15.03-22.65,23.85-32.99l-0.07-0.67&#xD;&#xA;		c-9.02-18.13-19.26-35.64-30.2-52.66c-11.69-17.96-24.35-35.41-39.25-50.86c-7.7-7.69-15.79-15.36-25.39-20.58&#xD;&#xA;		C688.28,235.45,674.42,249.63,662.21,264.99 M830.27,345.1c-15.96,11.63-28.76,27.11-38.93,43.92&#xD;&#xA;		c-12.1,20.19-23.09,41.06-32.55,62.63c-7.59,17.43-14.36,35.28-19.06,53.73l0.15,0.96c2.56-1.66,5.7-2.63,7.96-4.62&#xD;&#xA;		c10.51-39.18,28.4-76.56,53.69-108.38c21.77-27.32,48.66-50.92,79.73-67.1C862.8,326.91,845.09,334.34,830.27,345.1 M888.24,330.81&#xD;&#xA;		c6.23,24.96,3.66,51.04-0.01,76.18l0.26,0.55c14.82,4.27,29.52,9.49,42.87,17.32c-2.63-4.04-5.68-7.84-7.88-12.16&#xD;&#xA;		c-11.18-20.68-15.62-44.13-25.6-65.34C895.06,341.66,892.28,335.71,888.24,330.81 M898.21,434.07c-8.77,1.19-17.74,2.33-26.16,4.98&#xD;&#xA;		c-13.77,2.79-27.09,7.76-40.08,13.11c-4.03,1.65-8.03,3.4-11.94,5.32c-3.66,1.77-7.58,3.32-10.88,5.59l-0.29-0.11&#xD;&#xA;		c-12.92,6.65-25.41,14.15-37.47,22.26c-7.23,5.06-14.81,9.85-21.42,15.66c25.57-12.52,52.83-21.32,80.45-28.06l0.34-0.44l0.4,0.22&#xD;&#xA;		c4.23-0.87,8.38-2.24,12.69-2.64l-0.35-0.33c7.66-1.4,15.62-2.99,23.4-4.46c20.75-3.36,41.67-5.87,62.66-7.19&#xD;&#xA;		c10.04-0.58,20.09-1,30.15-1.17c-4.73-8.01-10.6-15.41-17.45-21.72C927.8,432.04,912.83,432.47,898.21,434.07 M825.1,506.92&#xD;&#xA;		c-0.23,0.23-0.71,0.69-0.94,0.93c16.08-4.97,33.31-6.81,50-4.18c12.52,2.28,24.62,6.72,36.01,12.36&#xD;&#xA;		c18.17,9.13,33.85,22.93,45.66,39.44c20.22,28.22,29.99,62.46,35.02,96.43c2.95,18.56,3.22,37.39,5.63,56.01&#xD;&#xA;		c1.96,15.69,4.86,31.28,9.14,46.51c6.28,22.2,15.48,43.99,29.97,62.14c8.16,10.06,18.02,19.1,29.84,24.62&#xD;&#xA;		c-9.97-20.77-13.21-44.04-13.64-66.88c-10.67-10.94-15.37-26.01-19.24-40.44c-7.32-29.12-11.17-58.96-17.78-88.23&#xD;&#xA;		c-7.43-33.26-17.5-66.83-37.3-95c-11.34-16.12-26.2-29.89-43.65-39.16c-15.36-8.13-32.27-13.48-49.6-15.13&#xD;&#xA;		C864.07,494.48,843.21,497.69,825.1,506.92 M863.29,597.99c0.22,2.04,1.76,3.61,2.54,5.47c5.48,10.71,11.05,22.18,10.62,34.52&#xD;&#xA;		c-0.11,7.27-4.97,14.02-11.84,16.42c-9.32,3.4-19.77,3.03-29.32,0.87c0.98,1.1,2.46,1.4,3.77,1.98&#xD;&#xA;		c13.12,5.15,26.65,9.54,40.64,11.54c6.19,0.75,12.65,1.34,18.71-0.5c3.35-0.92,6.17-3.8,6.36-7.37c0.35-6.63-2.99-12.7-6.06-18.34&#xD;&#xA;		C889,626.17,876.07,612.01,863.29,597.99 M663.58,656.33c-14.97,13.41-31.19,25.64-49.21,34.66l0.09-0.56&#xD;&#xA;		c8.11-7.64,15.53-16.24,20.68-26.18c-31.25,17.02-62.73,33.99-95.99,46.83c-9.68,3.51-19.53,7.1-29.87,7.88&#xD;&#xA;		c-8.89,0.23-18.03-1.15-25.96-5.34c-5.77-3.12-11.01-7.75-13.7-13.83c-0.13,5.52,0.02,11.09,0.34,16.6&#xD;&#xA;		c3.41,124.27,28.53,248.54,78.54,362.6c16.64,37.76,35.86,74.47,58.5,109c4.79,7.52,9.87,14.87,15.12,22.09&#xD;&#xA;		c6.02,8.24,12.04,16.61,18.96,24.1c0.53,6.92,0.69,13.86,1.04,20.79c-3.21-4.31-6.96-8.32-10.25-12.61&#xD;&#xA;		c-25.8-32.33-47.79-67.51-67.87-103.61c-6.55-12.06-13.19-24.21-19.24-36.57c-19.94-39.3-37.92-79.7-52.97-121.15&#xD;&#xA;		c-4.51-10.81-9.14-22.57-18.83-29.82c-7.37-5.52-17.32-4.55-25.49-1.52c-0.07,1.37,1.85,0.56,2.63,1.08&#xD;&#xA;		c13.57,3.11,22.47,15.32,28.11,27.24c5.7,12.86,10.4,26.14,15.71,39.17c20.92,52.68,44.44,104.4,72.13,153.88&#xD;&#xA;		c0.8,1.04,0.94,2.79,2.45,3.13c1.55,4.27,4.25,8.14,6.34,12.22c11.01,18.76,22.55,37.23,35.11,55c3.51,5.21,7.24,10.28,10.99,15.33&#xD;&#xA;		c6.99,9.51,14.36,18.74,21.91,27.82l-0.02,0.07c5.64,5.98,10.56,13,16.81,18.17c-4.96-107.29-9.64-214.6-14.55-321.9&#xD;&#xA;		c-4.37-10.04-8.55-20.19-12.27-30.49c-14.51-6.64-28.6-14.23-41.99-22.92c-11.27-7.4-22.17-15.53-31.52-25.29&#xD;&#xA;		c-8.71-0.06-17.43-0.07-26.13,0.01c5.47,6.12,11.53,11.69,17.75,17.03c20.45,17.41,43.38,31.78,67.52,43.49&#xD;&#xA;		c4.17,7.82,6.5,16.94,11,24.72c-0.35,0.34-1.05,1.01-1.4,1.34c-0.21-0.2-0.62-0.61-0.83-0.81c0.13-0.22,0.38-0.65,0.51-0.87&#xD;&#xA;		c-5.41-4.4-9.81-10.04-14.85-14.86c-26.73-13.74-52.32-30.07-74.7-50.23c-5.08-4.89-10.61-9.55-14.66-15.34&#xD;&#xA;		c0.23-5.86-0.71-11.77-0.94-17.65c-2.02-28.84-3.9-57.69-6-86.52c-3.82-9.07-7.76-18.14-10.52-27.6c1.54,0.88,2.64,2.43,4.28,3.16&#xD;&#xA;		c12.12,9.55,24.7,18.62,37.41,27.41c30.11,20.56,61.45,39.63,94.94,54.19l0.85-0.12c1.16-3.69,1.58-7.56,1.66-11.4&#xD;&#xA;		c0.11-2.83-0.1-5.64-0.2-8.45c9.25,6.77,15.88,16.51,21.04,26.61c8.75,17.71,13.22,37.2,15.89,56.67&#xD;&#xA;		c1.74,13.56,2.82,27.26,2.48,40.94c-7.88,6.1-15.22,12.99-22.93,19.35c-0.55,3.02,0,6.32,0.2,9.4&#xD;&#xA;		c14.13,16.62,28.11,33.38,42.01,50.19c0.23-0.04,0.68-0.12,0.91-0.16c1.98-17.22,4.29-34.41,6.39-51.63&#xD;&#xA;		c-0.41-4.7-1.84-9.3-2.4-13.99c1.37-16.85,2.13-33.74,2.77-50.64c2.92-82.13-0.19-164.45-3.61-246.43&#xD;&#xA;		c-0.99-22.25-2.07-44.5-3.34-66.74C691.94,628.65,678.29,643.07,663.58,656.33 M713.25,624.18c11.71,19.24,26.8,36.16,42.66,52.06&#xD;&#xA;		c25.76,25.44,53.98,48.28,83.27,69.5c-9.58-10.98-20.07-21.61-26.76-34.76c19.6,10.62,40.04,20.05,61.71,25.58&#xD;&#xA;		c13.99,3.5,28.73,5.57,43.03,2.82c-36.23,39.03-77.64,73.14-122.08,102.42c-8.56,5.38-16.91,11.22-25.94,15.77&#xD;&#xA;		c0.28,0.06,0.83,0.18,1.1,0.24c20.53-8.91,40.05-20.02,59.16-31.64c25.48-15.56,49.72-33.07,73.44-51.16&#xD;&#xA;		c-2.83,9.54-6.87,18.65-10.61,27.84c-2.46,34.92-4.66,69.88-7.3,104.78c-7.43,8.61-15.96,16.2-24.73,23.41&#xD;&#xA;		c-18.74,15.18-39.18,28.2-60.58,39.27l-0.46,0.73c21.15-7.14,40.49-18.47,60.09-28.93c5.03-2.34,10.19-5.55,15.95-5.13&#xD;&#xA;		c4.39,0.94,4.43,6.41,4.22,9.98c-3.26,21.97-7.31,43.83-11.81,65.58c-9.66,45.57-21.65,90.91-40.07,133.81&#xD;&#xA;		c-1.45,3.94-3.91,7.63-4.93,11.66c21.43-37.77,39.77-77.28,55-117.95c40.56-108.17,60.05-223.71,61.72-339.04l-0.71,0.18&#xD;&#xA;		c-6.19,11.15-19.13,16.59-31.37,17.54c-12.38,1.42-24.36-3-35.84-7.04c-33.8-12.83-65.7-30.08-97.4-47.29&#xD;&#xA;		c4.98,10.2,12.75,18.87,21.06,26.52c-2.62-0.71-4.88-2.3-7.27-3.5c-28.38-16.06-52.38-38.76-73.91-62.99L713.25,624.18&#xD;&#xA;		 M775.83,950.73c-3.4,9.95-7.41,19.67-11.72,29.25c-0.57,1.22-0.34,2.61-0.47,3.94c-4.77,106.43-9.58,212.86-14.35,319.3&#xD;&#xA;		c3.21-3.04,6.07-6.44,8.98-9.76c2.19-2.34,4.26-4.8,6.3-7.26c4.91-98.88,9.44-197.8,14.33-296.68c3.91-8.79,7.5-17.73,11.18-26.59&#xD;&#xA;		c11.03-5.4,21.86-11.24,32.28-17.76c19.3-12.23,37.9-26.04,53.3-43.02c-8.32-0.03-16.64,0.13-24.95-0.08l-0.48-0.18&#xD;&#xA;		C829.03,922.9,802.58,937.88,775.83,950.73 M943.82,947.71c-7.76,1.61-13.5,7.78-17.52,14.25c-7.68,12.44-11.78,26.58-17.01,40.11&#xD;&#xA;		c-17.49,45.86-37.91,90.59-61.02,133.89c1.09-0.54,1.3-1.89,2.04-2.75c12.71-19.97,25.43-39.93,38.14-59.9&#xD;&#xA;		c3.97-6.73,9.07-12.88,11.79-20.27c9.17-21.48,17.67-43.24,26.19-64.98c3.77-9.78,8.3-19.55,15.59-27.24&#xD;&#xA;		c5.26-5.55,12.29-9.99,20.08-10.47C956.63,947.46,949.91,946.58,943.82,947.71z"/>
	<path class="st0" d="M521.77,326.96c0.47-0.9,0.97-1.78,1.51-2.64c14.54,6.55,27.85,15.56,40.4,25.33&#xD;&#xA;		c19.69,15.53,37.08,33.94,51.69,54.32c21.23,29.5,36.42,63.14,45.81,98.2c-29.91-22.73-62.41-42.56-97.88-55.35&#xD;&#xA;		c-10.94-3.96-22.14-7.23-33.53-9.62c-20.94-4.26-42.82-6.3-63.93-1.99l0.36-1.03c4.47-5.13,10.26-8.86,16.2-12.04&#xD;&#xA;		c12.13-6.49,25.25-10.78,38.35-14.83C516.8,380.8,514.07,353.06,521.77,326.96z"/>
</g>
<g id="_x23_ffffd0ff">
	<path class="st1" d="M680.64,79.39c8.02-5.47,15.92-11.12,23.82-16.75c0.01,17.97,0.03,35.95-0.01,53.92&#xD;&#xA;		c-0.93,0.54-1.86,1.07-2.8,1.59c-2.03,0.58-3.93,1.52-5.83,2.42c-30.8,14.6-60.51,31.45-89.18,49.85&#xD;&#xA;		c-34.64,22.31-67.72,47.13-98.23,74.83c-27.07,24.66-52.24,51.55-73.78,81.21c-19.74,27.16-36.03,56.89-47.6,88.44&#xD;&#xA;		c-17.41,47.01-24.24,97.15-27.46,146.94c-3.43,54.32-3.26,108.77-4.03,163.16c-0.07,0.59-0.21,1.78-0.28,2.37&#xD;&#xA;		c-2.21-25.14-5.34-50.19-7.46-75.34c-4.49-48.21-9.81-96.54-8.2-145.03c0.73-22.8,2.64-45.59,6.18-68.13&#xD;&#xA;		c6.8-38.23,24.57-73.56,45.63-105.82c39.49-59.71,91.2-110.26,146.43-155.34c18.65-15.22,37.96-29.62,57.96-43.01&#xD;&#xA;		C623.87,115.93,652.89,98.63,680.64,79.39z"/>
	<path class="st1" d="M633.26,192.09c22.83-15.29,46.38-29.64,71.14-41.61c0.14,5.24,0.05,10.49,0.06,15.73&#xD;&#xA;		c-22.06,12.69-43.77,26.02-65.06,39.96c-31.91,20.97-62.5,44.29-89.05,71.82c15.87,16.73,31.93,33.29,47.34,50.45&#xD;&#xA;		c25.11,33.68,42.26,72.49,56.22,111.89c-0.67-0.96-1.26-1.99-1.76-3.04c-16.66-35.13-38.65-67.68-64.62-96.59&#xD;&#xA;		c-15.68-17.31-32.6-33.64-51.34-47.62c-16.11,17.78-30.78,36.87-44.1,56.83c-14.1,21.33-26.86,43.67-36.54,67.38&#xD;&#xA;		c-3.76,9.7-7.46,19.64-8.48,30.07c6.44-3.76,12.42-8.25,18.77-12.15c21.11-4.31,42.99-2.27,63.93,1.99&#xD;&#xA;		c11.39,2.39,22.59,5.66,33.53,9.62c-20.4-2.43-41.18-2.94-61.5,0.51c-24.99,4.05-49.19,15.03-67.23,33.02&#xD;&#xA;		c-14.68,14.31-25.29,32.32-32.85,51.26c-9,22.56-14.04,46.47-17.55,70.44c-0.36,1.55-0.13,3.39-1.36,4.63&#xD;&#xA;		c1.49-25.84,4.73-51.68,11.37-76.74c4.86-17.83,11.31-35.65,22.4-50.63c1.09-1.76,3.08-3.05,3.4-5.21&#xD;&#xA;		c3.22-14.77,7.45-29.31,12.55-43.53c21.83-60.74,59.83-114.65,105.25-160.08C566.86,241.23,599.11,215.2,633.26,192.09z"/>
	<path class="st1" d="M747.14,393.07c8.97-4.71,18.21-9.16,28.17-11.33c-5.95,9.64-11.52,19.52-16.83,29.53&#xD;&#xA;		c-8.32,1.8-16.14,5.27-23.71,9.08C738.64,411.15,742.76,402.04,747.14,393.07z"/>
	<path class="st1" d="M730.7,430.4c7.17-3.02,14.28-6.48,22.01-7.83c-2.2,4.69-4.55,9.31-6.68,14.03l-0.26,0.07&#xD;&#xA;		c-7.52,1.53-14.53,4.79-21.19,8.5c1.82-4.93,3.85-9.79,5.85-14.65L730.7,430.4z"/>
	<path class="st1" d="M831.97,452.16c12.99-5.35,26.31-10.32,40.08-13.11c20.57-0.34,41.2,6.38,57.51,18.93&#xD;&#xA;		c-20.99,1.32-41.91,3.83-62.66,7.19C855.85,459.47,843.88,455.67,831.97,452.16z"/>
	<path class="st1" d="M809.15,463.07c3.3-2.27,7.22-3.82,10.88-5.59c7.27,2.53,14.29,5.77,20.85,9.81c1.09,0.51,1.78,1.51,2.62,2.34&#xD;&#xA;		l0.35,0.33c-4.31,0.4-8.46,1.77-12.69,2.64l-0.4-0.22C823.95,468.44,816.47,465.86,809.15,463.07z"/>
	<path class="st1" d="M687.91,555.63c5.41-5.42,10.49-11.45,17.35-15.1c0.39,3.83,0.6,7.92-0.78,11.59&#xD;&#xA;		c-27.03,38.44-64.06,69.35-105.37,91.48c-9.55-9.28-14.29-22.25-16.95-35.02c-0.78-5.16-1.61-10.32-1.84-15.53&#xD;&#xA;		c7.27-12.31,17.99-22.79,30.82-29.2c2.99-1.16,6.58-3.32,9.7-1.57c0.27,3.26,0.03,6.56,0.46,9.83c1.31,11.9,4.96,23.86,11.8,33.76&#xD;&#xA;		C653.34,591.42,670.79,573.56,687.91,555.63z"/>
	<path class="st1" d="M563.86,612.26c2.48-2.68,5-5.33,7.72-7.77c0.16,4.47,0.56,8.93,1.44,13.32c2.15,11.52,6.92,22.52,13.8,32&#xD;&#xA;		c-3.06,1.42-6.09,2.91-9.23,4.16c-6.32-7.58-9.95-16.98-12.07-26.53C564.69,622.42,563.87,617.36,563.86,612.26z"/>
	<path class="st1" d="M663.58,656.33c14.71-13.26,28.36-27.68,40.83-43.06c1.27,22.24,2.35,44.49,3.34,66.74l-1.04-1.12&#xD;&#xA;		c-3.54-7.61-6.57-16.03-13.12-21.64c-1.82,1.66-3.47,3.48-5.2,5.23c-16.76,16.89-36.09,31.09-56.7,42.91&#xD;&#xA;		c-0.85,30.95-0.22,61.94,1.43,92.86c0.86,15.51,1.95,31.02,3.55,46.47c2.3,1.88,5.74,2.27,8.53,3.43c-0.08,3.84-0.5,7.71-1.66,11.4&#xD;&#xA;		l-0.85,0.12c-33.49-14.56-64.83-33.63-94.94-54.19c-12.71-8.79-25.29-17.86-37.41-27.41c1.77,0.46,3.07,2.02,4.87,2.35&#xD;&#xA;		c-1.09-9.69-1.77-19.42-2.16-29.15c-0.2-5.63-0.33-11.26-0.35-16.88c-9.08-0.31-18.23-1.91-26.48-5.82&#xD;&#xA;		c-6.21-2.9-11.56-7.26-16.26-12.18c-0.32-5.51-0.47-11.08-0.34-16.6c2.69,6.08,7.93,10.71,13.7,13.83&#xD;&#xA;		c7.93,4.19,17.07,5.57,25.96,5.34c10.34-0.78,20.19-4.37,29.87-7.88c33.26-12.84,64.74-29.81,95.99-46.83&#xD;&#xA;		c-5.15,9.94-12.57,18.54-20.68,26.18l-0.09,0.56C632.39,681.97,648.61,669.74,663.58,656.33 M617.23,713.05&#xD;&#xA;		c-1.63,27.25-0.25,54.58,1.6,81.78c0.96,14.89,2.21,29.77,3.8,44.61c1.18,0.61,2.44,1.11,3.71,1.53&#xD;&#xA;		c-0.96-15.03-2.13-30.05-2.96-45.09c-1.59-28.27-2.55-56.68-2-84.93C619.97,711.6,618.57,712.26,617.23,713.05 M550.37,728.34&#xD;&#xA;		c-0.29,14.59,0.57,29.18,1.78,43.72c0.93,11.13,2.03,22.25,3.6,33.31c9.49,5.62,19.23,10.84,28.99,16l0.17-1.15&#xD;&#xA;		c-1.58-12.24-2.61-24.54-3.45-36.84c-1.03-18.42-1.44-36.9-0.45-55.33c-5.23,1.73-10.54,3.17-15.81,4.76&#xD;&#xA;		c6.12-5.66,12.86-10.93,18.08-17.54C572.63,720.39,561.68,724.91,550.37,728.34 M532.76,732.61c-0.82,10.09-0.08,20.31,0.47,30.43&#xD;&#xA;		c0.62,10.1,1.62,20.17,2.68,30.24c2.4,2.29,5.69,3.93,8.7,5.38c-1.03-10.39-1.8-20.81-2.5-31.23c-0.64-12.09-1.33-24.19-1.25-36.31&#xD;&#xA;		C538.13,731.38,535.48,732.25,532.76,732.61z"/>
	<path class="st1" d="M511.35,891.62c4.09,4.99,7.95,10.18,12.17,15.06c4.05,5.79,9.58,10.45,14.66,15.34&#xD;&#xA;		c22.38,20.16,47.97,36.49,74.7,50.23c5.04,4.82,9.44,10.46,14.85,14.86c-0.13,0.22-0.38,0.65-0.51,0.87&#xD;&#xA;		c-1.89,0.01-3.46-1.12-5.13-1.8c-6.76-3.04-13.36-6.41-20.05-9.61c0.25,8.15,0.78,16.29,1.21,24.43c0.91,16.63,1.9,33.26,3.1,49.87&#xD;&#xA;		c3.64,53.21,8.14,106.41,15.77,159.21c-5.25-7.22-10.33-14.57-15.12-22.09c-13.52-61.82-23.59-124.34-32.73-186.94&#xD;&#xA;		c-0.99-6.52-1.81-13.07-2.84-19.59c-1.09-8.13-2.12-16.26-3.34-24.37c-18.95-12.57-37.48-26.28-52.52-43.49&#xD;&#xA;		c-1.05-1.45-2.79-2.69-2.8-4.62C512.29,903.19,511.69,897.41,511.35,891.62z"/>
	<path class="st1" d="M564,1138.75c20.08,36.1,42.07,71.28,67.87,103.61c3.29,4.29,7.04,8.3,10.25,12.61&#xD;&#xA;		c0.24,4.93,0.46,9.87,0.67,14.81c-7.47-8.9-13.31-19.13-20.52-28.19c-0.54,5.04-0.78,10.1-1.33,15.15&#xD;&#xA;		c-3.75-5.05-7.48-10.12-10.99-15.33c0.61-5.5,1.08-11.01,1.46-16.52c-14.8-23.61-29.33-47.49-41.53-72.58&#xD;&#xA;		C567.93,1147.79,565.1,1143.54,564,1138.75z"/>
</g>
<g id="_x23_732fe7ff">
	<path class="st2" d="M704.46,62.64c19.66,14.22,39.78,27.79,60.23,40.85c29.99,19.04,60.15,37.96,88.2,59.83&#xD;&#xA;		c32.12,24.93,62.9,51.66,91.47,80.61c28.6,29.14,55.04,60.6,76.98,95.1c19.33,30.64,35.44,64.04,41.79,99.96&#xD;&#xA;		c7.18,45.94,7.82,92.71,4.48,139.03c-1.58,23.07-3.92,46.08-6.06,69.1c-0.31,1.71,0.01,3.72-1.08,5.17&#xD;&#xA;		c-0.32-16.78-1.31-33.57-1.66-50.36c-1.46-46.91-2.35-94.07-10.19-140.46c-3.7-21.56-8.86-42.96-16.67-63.42&#xD;&#xA;		c-13.8-35.18-36.89-65.86-62.69-93.12c-27.24-28.63-57.79-53.91-89.46-77.47c-55.68-41.14-114.98-77.12-175.35-110.9&#xD;&#xA;		C704.49,98.59,704.47,80.61,704.46,62.64z"/>
	<path class="st2" d="M704.4,150.48c67.61,38.96,130.24,86.11,188.61,137.79c33.59,29.95,66.15,61.18,96.26,94.63&#xD;&#xA;		c-6.27-4.58-12.08-9.91-18.22-14.72c-62.2-50.49-127.44-97.35-195.91-139c-23.11-13.99-46.57-27.45-70.69-39.65&#xD;&#xA;		c0.04-7.77,0.03-15.55,0.01-23.32C704.45,160.97,704.54,155.72,704.4,150.48z"/>
	<path class="st2" d="M662.21,264.99c12.21-15.36,26.07-29.54,42.04-41.01c-0.05,4.89-0.07,9.78,0.02,14.68&#xD;&#xA;		c-10.85,10.24-21.55,20.77-30.96,32.4c-16.64,20.46-31.21,43.04-40.34,67.89c4.27,7.17,8.45,14.39,12.39,21.75&#xD;&#xA;		c0.4,0.7,0.58,1.46,0.53,2.27c-1.35-3.01-3.49-5.56-5.35-8.25c-5.93-8.07-12.23-15.89-19.21-23.08c0.14-1.42,1.05-2.61,1.58-3.9&#xD;&#xA;		C633.77,305.53,646.86,284.38,662.21,264.99z"/>
	<path class="st2" d="M830.27,345.1c14.82-10.76,32.53-18.19,50.99-18.86c-31.07,16.18-57.96,39.78-79.73,67.1&#xD;&#xA;		c-25.29,31.82-43.18,69.2-53.69,108.38c-2.26,1.99-5.4,2.96-7.96,4.62l-0.15-0.96c4.7-18.45,11.47-36.3,19.06-53.73&#xD;&#xA;		c9.46-21.57,20.45-42.44,32.55-62.63C801.51,372.21,814.31,356.73,830.27,345.1z"/>
	<path class="st2" d="M825.1,506.92c18.11-9.23,38.97-12.44,59.12-10.58c17.33,1.65,34.24,7,49.6,15.13&#xD;&#xA;		c17.45,9.27,32.31,23.04,43.65,39.16c19.8,28.17,29.87,61.74,37.3,95c6.61,29.27,10.46,59.11,17.78,88.23&#xD;&#xA;		c3.87,14.43,8.57,29.5,19.24,40.44c0.43,22.84,3.67,46.11,13.64,66.88c-11.82-5.52-21.68-14.56-29.84-24.62&#xD;&#xA;		c-14.49-18.15-23.69-39.94-29.97-62.14c-4.28-15.23-7.18-30.82-9.14-46.51c-2.41-18.62-2.68-37.45-5.63-56.01&#xD;&#xA;		c-5.03-33.97-14.8-68.21-35.02-96.43c-11.81-16.51-27.49-30.31-45.66-39.44c-11.39-5.64-23.49-10.08-36.01-12.36&#xD;&#xA;		c-16.69-2.63-33.92-0.79-50,4.18C824.39,507.61,824.87,507.15,825.1,506.92z"/>
	<path class="st2" d="M863.29,597.99c12.78,14.02,25.71,28.18,35.42,44.59c3.07,5.64,6.41,11.71,6.06,18.34&#xD;&#xA;		c-0.19,3.57-3.01,6.45-6.36,7.37c-6.06,1.84-12.52,1.25-18.71,0.5c-13.99-2-27.52-6.39-40.64-11.54c-1.31-0.58-2.79-0.88-3.77-1.98&#xD;&#xA;		c9.55,2.16,20,2.53,29.32-0.87c6.87-2.4,11.73-9.15,11.84-16.42c0.43-12.34-5.14-23.81-10.62-34.52&#xD;&#xA;		C865.05,601.6,863.51,600.03,863.29,597.99z"/>
	<path class="st2" d="M713.25,624.18l0.64,0.26c21.53,24.23,45.53,46.93,73.91,62.99c2.39,1.2,4.65,2.79,7.27,3.5&#xD;&#xA;		c-8.31-7.65-16.08-16.32-21.06-26.52c31.7,17.21,63.6,34.46,97.4,47.29c11.48,4.04,23.46,8.46,35.84,7.04&#xD;&#xA;		c12.24-0.95,25.18-6.39,31.37-17.54l0.71-0.18c-1.67,115.33-21.16,230.87-61.72,339.04c-15.23,40.67-33.57,80.18-55,117.95&#xD;&#xA;		c1.02-4.03,3.48-7.72,4.93-11.66c18.42-42.9,30.41-88.24,40.07-133.81c4.5-21.75,8.55-43.61,11.81-65.58&#xD;&#xA;		c0.21-3.57,0.17-9.04-4.22-9.98c-5.76-0.42-10.92,2.79-15.95,5.13c-19.6,10.46-38.94,21.79-60.09,28.93l0.46-0.73&#xD;&#xA;		c21.4-11.07,41.84-24.09,60.58-39.27c8.77-7.21,17.3-14.8,24.73-23.41c2.64-34.9,4.84-69.86,7.3-104.78&#xD;&#xA;		c3.74-9.19,7.78-18.3,10.61-27.84c-23.72,18.09-47.96,35.6-73.44,51.16c-19.11,11.62-38.63,22.73-59.16,31.64&#xD;&#xA;		c-0.27-0.06-0.82-0.18-1.1-0.24c9.03-4.55,17.38-10.39,25.94-15.77c44.44-29.28,85.85-63.39,122.08-102.42&#xD;&#xA;		c-14.3,2.75-29.04,0.68-43.03-2.82c-21.67-5.53-42.11-14.96-61.71-25.58c6.69,13.15,17.18,23.78,26.76,34.76&#xD;&#xA;		c-29.29-21.22-57.51-44.06-83.27-69.5C740.05,660.34,724.96,643.42,713.25,624.18z"/>
	<path class="st2" d="M943.82,947.71c6.09-1.13,12.81-0.25,18.28,2.64c-7.79,0.48-14.82,4.92-20.08,10.47&#xD;&#xA;		c-7.29,7.69-11.82,17.46-15.59,27.24c-8.52,21.74-17.02,43.5-26.19,64.98c-2.72,7.39-7.82,13.54-11.79,20.27&#xD;&#xA;		c-12.71,19.97-25.43,39.93-38.14,59.9c-0.74,0.86-0.95,2.21-2.04,2.75c23.11-43.3,43.53-88.03,61.02-133.89&#xD;&#xA;		c5.23-13.53,9.33-27.67,17.01-40.11C930.32,955.49,936.06,949.32,943.82,947.71z"/>
</g>
<g id="_x23_9d793fff">
	<path class="st3" d="M701.65,118.15c0.94-0.52,1.87-1.05,2.8-1.59c-0.14,11.3-0.04,22.61-0.05,33.92&#xD;&#xA;		c-24.76,11.97-48.31,26.32-71.14,41.61c-34.15,23.11-66.4,49.14-95.48,78.4c-45.42,45.43-83.42,99.34-105.25,160.08&#xD;&#xA;		c-5.1,14.22-9.33,28.76-12.55,43.53c-0.32,2.16-2.31,3.45-3.4,5.21c-11.09,14.98-17.54,32.8-22.4,50.63&#xD;&#xA;		c-6.64,25.06-9.88,50.9-11.37,76.74c-0.55,15.13-0.96,30.34-0.41,45.5c0.25,2.03-0.41,4.38,1.23,6.03&#xD;&#xA;		c-0.55,0.49-1.28,0.49-1.81-0.03c0.61-2.01,0.09-4.06-0.1-6.08c-5.54-51.53-5.02-103.95,4.32-155.02&#xD;&#xA;		c10.39-57.54,32.65-113.04,66.08-161.08c19.58-28.56,43.34-53.92,67.84-78.26c25.47-25.04,52.63-48.33,81.06-69.94&#xD;&#xA;		c29.13-22.24,59.62-42.61,90.32-62.59C694.72,122.77,698.58,120.99,701.65,118.15z"/>
	<path class="st3" d="M704.25,223.98c9.6,5.22,17.69,12.89,25.39,20.58c14.9,15.45,27.56,32.9,39.25,50.86&#xD;&#xA;		c10.94,17.02,21.18,34.53,30.2,52.66c-7.84-2.64-15.37-6.12-23.05-9.17c-11.46-29.94-29.83-56.9-51.45-80.42&#xD;&#xA;		c-6.44-6.94-13.16-13.63-20.32-19.83C704.18,233.76,704.2,228.87,704.25,223.98z"/>
	<path class="st3" d="M514.98,334.76c2.14-2.69,3.96-5.75,6.79-7.8c-7.7,26.1-4.97,53.84-1.02,80.35&#xD;&#xA;		c-13.1,4.05-26.22,8.34-38.35,14.83c-5.94,3.18-11.73,6.91-16.2,12.04c1.42-7.46,3.89-14.67,6.34-21.84&#xD;&#xA;		C482.51,384.47,497.33,358.47,514.98,334.76z"/>
	<path class="st3" d="M888.24,330.81c4.04,4.9,6.82,10.85,9.64,16.55c9.98,21.21,14.42,44.66,25.6,65.34&#xD;&#xA;		c2.2,4.32,5.25,8.12,7.88,12.16c-13.35-7.83-28.05-13.05-42.87-17.32l-0.26-0.55C891.9,381.85,894.47,355.77,888.24,330.81z"/>
	<path class="st3" d="M479.5,488.23c23.13-10.91,49.22-14.75,74.61-12.62c35.35,3.14,69.75,16.78,97.54,38.88&#xD;&#xA;		c10.42,8.46,20.13,18.08,27.51,29.35c-21.35,4.24-40.69,15.21-57.86,28.27c-0.43-3.27-0.19-6.57-0.46-9.83&#xD;&#xA;		c-3.12-1.75-6.71,0.41-9.7,1.57c-12.83,6.41-23.55,16.89-30.82,29.2c0.23,5.21,1.06,10.37,1.84,15.53&#xD;&#xA;		c-3.36,2.76-5.83,6.41-9.14,9.23c-0.88-4.39-1.28-8.85-1.44-13.32l0.01-0.15c2.52-2.55,5.77-4.59,7.76-7.54&#xD;&#xA;		c-2.62-0.28-5.16,0.61-7.6,1.43l0.1-1c9.24-14.27,19.39-28.11,31.74-39.88c4.72-4.37,9.7-8.58,15.37-11.68&#xD;&#xA;		c7.96-2.34,16.66-1.9,24.4,1.07c-7.1-10.03-16.84-17.99-27.12-24.61c-20.83-13-45.44-20.37-70.06-19.59&#xD;&#xA;		c-14.99,0.42-29.43,5.31-43.01,11.34c-17.7,8.07-33.39,20.4-45.54,35.58c-22.03,27.49-32.96,62.07-38.65,96.38&#xD;&#xA;		c-4.35,24.52-4.08,49.57-8.27,74.11c-5.22,32.32-14.55,64.92-33.77,91.88l-0.96,0.09c0.7-2.78,2.08-5.32,3.06-8&#xD;&#xA;		c5.23-13.45,7.81-27.76,9.55-42.04c5.18-45.06,2.86-90.6,7.87-135.68c2.22-20.71,5.83-41.42,12.89-61.08&#xD;&#xA;		c4.93-13.66,11.67-26.78,20.83-38.1C443.51,510.69,460.36,497.13,479.5,488.23z"/>
	<path class="st3" d="M546.43,637.14c6.33-7.92,10.66-17.28,17.43-24.88c0.01,5.1,0.83,10.16,1.66,15.18&#xD;&#xA;		c-5.79,4.83-9.29,12.37-16.43,15.53c-3.9,1.95-9.68,0.67-10.99-3.89C540.98,640.96,544.45,639.72,546.43,637.14z"/>
	<path class="st3" d="M515.9,633.64c1.85-2.18,3.02-5.24,5.48-6.7c-1.9,7.25-4.54,14.55-3.83,22.18c0.23,5.95,3.65,11.95,9.36,14.18&#xD;&#xA;		c5.51,2.55,11.68,1.47,17.52,2.09c-9.67,3.08-20.06,4.76-30.21,3.75c-4.92-0.31-10.39-3.58-10.17-9.1&#xD;&#xA;		C504.58,650.13,510.64,641.67,515.9,633.64z"/>
	<path class="st3" d="M631.69,705.39c20.61-11.82,39.94-26.02,56.7-42.91c2.05,29.14,3.17,58.33,4.06,87.52&#xD;&#xA;		c0.47,23,1.03,46.02,0.21,69.02c-2.88-2.8-4.94-6.27-6.83-9.77c-17.59-3.51-35.31-6.55-52.71-11&#xD;&#xA;		C631.47,767.33,630.84,736.34,631.69,705.39z"/>
	<path class="st3" d="M617.23,713.05c1.34-0.79,2.74-1.45,4.15-2.1c-0.55,28.25,0.41,56.66,2,84.93c-1.51-0.38-3.04-0.73-4.55-1.05&#xD;&#xA;		C616.98,767.63,615.6,740.3,617.23,713.05z"/>
	<path class="st3" d="M550.37,728.34c11.31-3.43,22.26-7.95,32.91-13.07c-5.22,6.61-11.96,11.88-18.08,17.54&#xD;&#xA;		c5.27-1.59,10.58-3.03,15.81-4.76c-0.99,18.43-0.58,36.91,0.45,55.33c-9.95-3.3-19.74-7.08-29.31-11.32&#xD;&#xA;		C550.94,757.52,550.08,742.93,550.37,728.34z"/>
	<path class="st3" d="M486.22,728.57c8.25,3.91,17.4,5.51,26.48,5.82c0.02,5.62,0.15,11.25,0.35,16.88&#xD;&#xA;		C503.4,744.66,493.66,737.68,486.22,728.57z"/>
	<path class="st3" d="M532.76,732.61c2.72-0.36,5.37-1.23,8.1-1.49c-0.08,12.12,0.61,24.22,1.25,36.31&#xD;&#xA;		c-3.02-1.35-5.99-2.79-8.88-4.39C532.68,752.92,531.94,742.7,532.76,732.61z"/>
	<path class="st3" d="M497.75,769.4c2.96,1.53,5.54,3.66,8.31,5.51c2.76,9.46,6.7,18.53,10.52,27.6c2.1,28.83,3.98,57.68,6,86.52&#xD;&#xA;		c0.23,5.88,1.17,11.79,0.94,17.65c-4.22-4.88-8.08-10.07-12.17-15.06c-2.61-23.17-5.25-46.34-7.89-69.51&#xD;&#xA;		C501.65,804.53,499.13,787,497.75,769.4z"/>
	<path class="st3" d="M533.18,902.21c8.7-0.08,17.42-0.07,26.13-0.01c9.35,9.76,20.25,17.89,31.52,25.29&#xD;&#xA;		c13.39,8.69,27.48,16.28,41.99,22.92c3.72,10.3,7.9,20.45,12.27,30.49c4.91,107.3,9.59,214.61,14.55,321.9&#xD;&#xA;		c-6.25-5.17-11.17-12.19-16.81-18.17l0.02-0.07c1.08-4.85-0.11-9.87-0.06-14.78c-0.21-4.94-0.43-9.88-0.67-14.81&#xD;&#xA;		c-0.35-6.93-0.51-13.87-1.04-20.79c-3.44-80.4-7.32-160.8-10.87-241.2c-0.12-1.47,0.15-3.83-2.08-3.76l-0.08-0.43&#xD;&#xA;		c0.35-0.33,1.05-1,1.4-1.34c-4.5-7.78-6.83-16.9-11-24.72c-24.14-11.71-47.07-26.08-67.52-43.49&#xD;&#xA;		C544.71,913.9,538.65,908.33,533.18,902.21z"/>
	<path class="st3" d="M775.83,950.73c26.75-12.85,53.2-27.83,74.4-48.84l0.48,0.18c2.87,2.07,6.53,2.36,9.64,3.94&#xD;&#xA;		c-0.62,1.6-2.19,2.54-3.35,3.73c-21.22,18.79-45.8,33.36-71.01,46.08c-1.69,0.77-1.92,2.81-2.71,4.3&#xD;&#xA;		c-3.79,9.35-8.24,18.47-11.73,27.92c-2.37,49.99-4.39,100.01-6.64,150.01c-2.16,51.81-4.74,103.6-6.64,155.41&#xD;&#xA;		c-2.91,3.32-5.77,6.72-8.98,9.76c4.77-106.44,9.58-212.87,14.35-319.3c0.13-1.33-0.1-2.72,0.47-3.94&#xD;&#xA;		C768.42,970.4,772.43,960.68,775.83,950.73z"/>
	<path class="st3" d="M517.7,942.52c5.17,2.96,9.37,7.35,14.22,10.8c12.87,9.77,25.68,19.77,39.51,28.14&#xD;&#xA;		c1.03,6.52,1.85,13.07,2.84,19.59c-1.01-0.41-2.03-0.78-3.06-1.1c0.5,27.7,4.8,55.16,8.71,82.55c0.56,5.17,2.32,10.28,1.88,15.53&#xD;&#xA;		c-2.75-10.86-6.16-21.53-9.22-32.3c-8.02-27.36-15.92-54.76-24.06-82.08c-7.57-9.4-15.5-18.63-22.46-28.55&#xD;&#xA;		C523.27,950.91,519.82,947.1,517.7,942.52z"/>
	<path class="st3" d="M447.47,949.69c8.17-3.03,18.12-4,25.49,1.52c9.69,7.25,14.32,19.01,18.83,29.82&#xD;&#xA;		c15.05,41.45,33.03,81.85,52.97,121.15c-1.17,1.2-0.28,2.83-0.06,4.22c5.34,20.85,12.61,41.18,21.2,60.91&#xD;&#xA;		c0.94,2.25,2.15,4.44,2.6,6.88c-1.51-0.34-1.65-2.09-2.45-3.13c-27.69-49.48-51.21-101.2-72.13-153.88&#xD;&#xA;		c-5.31-13.03-10.01-26.31-15.71-39.17c-5.64-11.92-14.54-24.13-28.11-27.24C449.32,950.25,447.4,951.06,447.47,949.69z"/>
	<path class="st3" d="M661.48,983.27c7.71-6.36,15.05-13.25,22.93-19.35c0.19,4.27,0.56,8.54,0.51,12.82&#xD;&#xA;		c-7.26,5.86-15.97,9.99-23.24,15.93C661.48,989.59,660.93,986.29,661.48,983.27z"/>
	<path class="st3" d="M603.25,1001c3.83,2.28,7.95,4.02,11.83,6.2c0.53,1.9,0.45,3.9,0.61,5.86c1.97,31,4.1,61.98,6.03,92.98&#xD;&#xA;		c1.31,22.33,3.21,44.65,4.15,67c-6.75-40.69-13.38-81.39-19.52-122.17C605.15,1034.26,604.16,1017.63,603.25,1001z"/>
</g>
<g id="_x23_e9b153ff">
	<path class="st4" d="M695.82,120.57c1.9-0.9,3.8-1.84,5.83-2.42c-3.07,2.84-6.93,4.62-10.31,7.06&#xD;&#xA;		c-30.7,19.98-61.19,40.35-90.32,62.59c-28.43,21.61-55.59,44.9-81.06,69.94c-24.5,24.34-48.26,49.7-67.84,78.26&#xD;&#xA;		c-33.43,48.04-55.69,103.54-66.08,161.08c-9.34,51.07-9.86,103.49-4.32,155.02c0.19,2.02,0.71,4.07,0.1,6.08&#xD;&#xA;		c0.53,0.52,1.26,0.52,1.81,0.03c-1.64-1.65-0.98-4-1.23-6.03c-0.55-15.16-0.14-30.37,0.41-45.5c1.23-1.24,1-3.08,1.36-4.63&#xD;&#xA;		c3.51-23.97,8.55-47.88,17.55-70.44c7.56-18.94,18.17-36.95,32.85-51.26c18.04-17.99,42.24-28.97,67.23-33.02&#xD;&#xA;		c20.32-3.45,41.1-2.94,61.5-0.51c35.47,12.79,67.97,32.62,97.88,55.35c-9.39-35.06-24.58-68.7-45.81-98.2&#xD;&#xA;		c-14.61-20.38-32-38.79-51.69-54.32c-12.55-9.77-25.86-18.78-40.4-25.33c-0.54,0.86-1.04,1.74-1.51,2.64&#xD;&#xA;		c-2.83,2.05-4.65,5.11-6.79,7.8c-17.65,23.71-32.47,49.71-42.44,77.58c-2.45,7.17-4.92,14.38-6.34,21.84l-0.36,1.03&#xD;&#xA;		c-6.35,3.9-12.33,8.39-18.77,12.15c1.02-10.43,4.72-20.37,8.48-30.07c9.68-23.71,22.44-46.05,36.54-67.38&#xD;&#xA;		c13.32-19.96,27.99-39.05,44.1-56.83c18.74,13.98,35.66,30.31,51.34,47.62c25.97,28.91,47.96,61.46,64.62,96.59&#xD;&#xA;		c0.5,1.05,1.09,2.08,1.76,3.04c7.75,21.95,14.11,44.35,20.73,66.66c1.58,4.62,2.54,9.91,6.52,13.19c4.77,4.5,11.9,4.15,17.23,7.63&#xD;&#xA;		c4.51,2.52,6.29,7.87,6.87,12.72c-6.86,3.65-11.94,9.68-17.35,15.1c-17.12,17.93-34.57,35.79-54.81,50.24&#xD;&#xA;		c-6.84-9.9-10.49-21.86-11.8-33.76c17.17-13.06,36.51-24.03,57.86-28.27c-7.38-11.27-17.09-20.89-27.51-29.35&#xD;&#xA;		c-27.79-22.1-62.19-35.74-97.54-38.88c-25.39-2.13-51.48,1.71-74.61,12.62c-19.14,8.9-35.99,22.46-49.32,38.79&#xD;&#xA;		c-9.16,11.32-15.9,24.44-20.83,38.1c-7.06,19.66-10.67,40.37-12.89,61.08c-5.01,45.08-2.69,90.62-7.87,135.68&#xD;&#xA;		c-1.74,14.28-4.32,28.59-9.55,42.04c-0.98,2.68-2.36,5.22-3.06,8c-0.1,0.36-0.29,1.08-0.39,1.44c-8.4,11.5-19.15,21.83-32.22,27.76&#xD;&#xA;		c8.18-16.5,11.73-34.89,13.1-53.14c1.49-20.19,0.41-40.48-1.21-60.61c0.07-0.59,0.21-1.78,0.28-2.37&#xD;&#xA;		c0.77-54.39,0.6-108.84,4.03-163.16c3.22-49.79,10.05-99.93,27.46-146.94c11.57-31.55,27.86-61.28,47.6-88.44&#xD;&#xA;		c21.54-29.66,46.71-56.55,73.78-81.21c30.51-27.7,63.59-52.52,98.23-74.83C635.31,152.02,665.02,135.17,695.82,120.57z"/>
	<path class="st4" d="M639.4,206.17c21.29-13.94,43-27.27,65.06-39.96c0.02,7.77,0.03,15.55-0.01,23.32&#xD;&#xA;		c-32.38,33.88-62.82,69.81-88.74,108.91c-6.44,9.73-12.53,19.7-18.02,30c-15.41-17.16-31.47-33.72-47.34-50.45&#xD;&#xA;		C576.9,250.46,607.49,227.14,639.4,206.17z"/>
	<path class="st4" d="M747.14,393.07c8.76-18.49,18.23-36.69,28.9-54.16c7.68,3.05,15.21,6.53,23.05,9.17l0.07,0.67&#xD;&#xA;		c-8.82,10.34-16.6,21.51-23.85,32.99C765.35,383.91,756.11,388.36,747.14,393.07z"/>
	<path class="st4" d="M734.77,420.35c7.57-3.81,15.39-7.28,23.71-9.08c-1.86,3.76-3.88,7.46-5.66,11.27l-0.11,0.03&#xD;&#xA;		c-7.73,1.35-14.84,4.81-22.01,7.83c0.89-3.44,2.72-6.59,3.91-9.94L734.77,420.35z"/>
	<path class="st4" d="M898.21,434.07c14.62-1.6,29.59-2.03,44.05,1.02c6.85,6.31,12.72,13.71,17.45,21.72&#xD;&#xA;		c-10.06,0.17-20.11,0.59-30.15,1.17c-16.31-12.55-36.94-19.27-57.51-18.93C880.47,436.4,889.44,435.26,898.21,434.07z"/>
	<path class="st4" d="M724.58,445.17c6.66-3.71,13.67-6.97,21.19-8.5c-4.85,11.43-10.18,22.73-14.8,34.29&#xD;&#xA;		c-6.75,16.07-12.53,32.53-18.92,48.73l-0.49,0.04c-2.93-4.99-4.82-10.5-6.99-15.85C710.14,483.99,717.07,464.4,724.58,445.17z"/>
	<path class="st4" d="M820.03,457.48c3.91-1.92,7.91-3.67,11.94-5.32c11.91,3.51,23.88,7.31,34.93,13.01&#xD;&#xA;		c-7.78,1.47-15.74,3.06-23.4,4.46c-0.84-0.83-1.53-1.83-2.62-2.34C834.32,463.25,827.3,460.01,820.03,457.48z"/>
	<path class="st4" d="M771.39,485.22c12.06-8.11,24.55-15.61,37.47-22.26l0.29,0.11c7.32,2.79,14.8,5.37,21.61,9.31l-0.34,0.44&#xD;&#xA;		c-27.62,6.74-54.88,15.54-80.45,28.06C756.58,495.07,764.16,490.28,771.39,485.22z"/>
	<path class="st4" d="M523.55,623.37c7.06-8.86,14.54-17.4,22.39-25.55c-3.09,6.19-6.53,12.44-8.25,19.26&#xD;&#xA;		c-1.87,7.11-3.15,15.2,0.41,22c1.31,4.56,7.09,5.84,10.99,3.89c7.14-3.16,10.64-10.7,16.43-15.53c2.12,9.55,5.75,18.95,12.07,26.53&#xD;&#xA;		c-10.7,4.69-21.77,8.91-33.16,11.42c-5.84-0.62-12.01,0.46-17.52-2.09c-5.71-2.23-9.13-8.23-9.36-14.18&#xD;&#xA;		c-0.71-7.63,1.93-14.93,3.83-22.18C521.69,625.54,522.75,624.49,523.55,623.37z"/>
	<path class="st4" d="M573.02,617.81c3.31-2.82,5.78-6.47,9.14-9.23c2.66,12.77,7.4,25.74,16.95,35.02&#xD;&#xA;		c-4.04,2.17-8.15,4.24-12.29,6.21C579.94,640.33,575.17,629.33,573.02,617.81z"/>
	<path class="st4" d="M693.59,657.25c6.55,5.61,9.58,14.03,13.12,21.64l1.04,1.12c3.42,81.98,6.53,164.3,3.61,246.43&#xD;&#xA;		c-0.64,16.9-1.4,33.79-2.77,50.64c0.56,4.69,1.99,9.29,2.4,13.99c-2.1,17.22-4.41,34.41-6.39,51.63c-0.23,0.04-0.68,0.12-0.91,0.16&#xD;&#xA;		c-13.9-16.81-27.88-33.57-42.01-50.19c7.27-5.94,15.98-10.07,23.24-15.93c0.05-4.28-0.32-8.55-0.51-12.82&#xD;&#xA;		c0.34-13.68-0.74-27.38-2.48-40.94c-2.67-19.47-7.14-38.96-15.89-56.67c-5.16-10.1-11.79-19.84-21.04-26.61&#xD;&#xA;		c0.1,2.81,0.31,5.62,0.2,8.45c-2.79-1.16-6.23-1.55-8.53-3.43c-1.6-15.45-2.69-30.96-3.55-46.47c17.4,4.45,35.12,7.49,52.71,11&#xD;&#xA;		c1.89,3.5,3.95,6.97,6.83,9.77c0.82-23,0.26-46.02-0.21-69.02c-0.89-29.19-2.01-58.38-4.06-87.52&#xD;&#xA;		C690.12,660.73,691.77,658.91,693.59,657.25z"/>
	<path class="st4" d="M469.96,716.39c4.7,4.92,10.05,9.28,16.26,12.18c7.44,9.11,17.18,16.09,26.83,22.7&#xD;&#xA;		c0.39,9.73,1.07,19.46,2.16,29.15c-1.8-0.33-3.1-1.89-4.87-2.35c-1.64-0.73-2.74-2.28-4.28-3.16c-2.77-1.85-5.35-3.98-8.31-5.51&#xD;&#xA;		c1.38,17.6,3.9,35.13,5.71,52.71c2.64,23.17,5.28,46.34,7.89,69.51c0.34,5.79,0.94,11.57,1.42,17.36c0.01,1.93,1.75,3.17,2.8,4.62&#xD;&#xA;		c15.04,17.21,33.57,30.92,52.52,43.49c1.22,8.11,2.25,16.24,3.34,24.37c-13.83-8.37-26.64-18.37-39.51-28.14&#xD;&#xA;		c-4.85-3.45-9.05-7.84-14.22-10.8c2.12,4.58,5.57,8.39,8.36,12.58c6.96,9.92,14.89,19.15,22.46,28.55&#xD;&#xA;		c8.14,27.32,16.04,54.72,24.06,82.08c3.06,10.77,6.47,21.44,9.22,32.3c0.44-5.25-1.32-10.36-1.88-15.53&#xD;&#xA;		c-3.91-27.39-8.21-54.85-8.71-82.55c1.03,0.32,2.05,0.69,3.06,1.1c9.14,62.6,19.21,125.12,32.73,186.94&#xD;&#xA;		c-22.64-34.53-41.86-71.24-58.5-109C498.49,964.93,473.37,840.66,469.96,716.39z"/>
	<path class="st4" d="M533.23,763.04c2.89,1.6,5.86,3.04,8.88,4.39c0.7,10.42,1.47,20.84,2.5,31.23c-3.01-1.45-6.3-3.09-8.7-5.38&#xD;&#xA;		C534.85,783.21,533.85,773.14,533.23,763.04z"/>
	<path class="st4" d="M552.15,772.06c9.57,4.24,19.36,8.02,29.31,11.32c0.84,12.3,1.87,24.6,3.45,36.84l-0.17,1.15&#xD;&#xA;		c-9.76-5.16-19.5-10.38-28.99-16C554.18,794.31,553.08,783.19,552.15,772.06z"/>
	<path class="st4" d="M618.83,794.83c1.51,0.32,3.04,0.67,4.55,1.05c0.83,15.04,2,30.06,2.96,45.09c-1.27-0.42-2.53-0.92-3.71-1.53&#xD;&#xA;		C621.04,824.6,619.79,809.72,618.83,794.83z"/>
	<path class="st4" d="M850.71,902.07c8.31,0.21,16.63,0.05,24.95,0.08c-15.4,16.98-34,30.79-53.3,43.02&#xD;&#xA;		c-10.42,6.52-21.25,12.36-32.28,17.76c-3.68,8.86-7.27,17.8-11.18,26.59c-4.89,98.88-9.42,197.8-14.33,296.68&#xD;&#xA;		c-2.04,2.46-4.11,4.92-6.3,7.26c1.9-51.81,4.48-103.6,6.64-155.41c2.25-50,4.27-100.02,6.64-150.01&#xD;&#xA;		c3.49-9.45,7.94-18.57,11.73-27.92c0.79-1.49,1.02-3.53,2.71-4.3c25.21-12.72,49.79-27.29,71.01-46.08&#xD;&#xA;		c1.16-1.19,2.73-2.13,3.35-3.73C857.24,904.43,853.58,904.14,850.71,902.07z"/>
	<path class="st4" d="M602.04,976.57c6.69,3.2,13.29,6.57,20.05,9.61c1.67,0.68,3.24,1.81,5.13,1.8c0.21,0.2,0.62,0.61,0.83,0.81&#xD;&#xA;		l0.08,0.43c2.23-0.07,1.96,2.29,2.08,3.76c3.55,80.4,7.43,160.8,10.87,241.2c-6.92-7.49-12.94-15.86-18.96-24.1&#xD;&#xA;		c-7.63-52.8-12.13-106-15.77-159.21c6.14,40.78,12.77,81.48,19.52,122.17c-0.94-22.35-2.84-44.67-4.15-67&#xD;&#xA;		c-1.93-31-4.06-61.98-6.03-92.98c-0.16-1.96-0.08-3.96-0.61-5.86c-3.88-2.18-8-3.92-11.83-6.2&#xD;&#xA;		C602.82,992.86,602.29,984.72,602.04,976.57z"/>
	<path class="st4" d="M544.7,1106.4c-0.22-1.39-1.11-3.02,0.06-4.22c6.05,12.36,12.69,24.51,19.24,36.57&#xD;&#xA;		c1.1,4.79,3.93,9.04,5.88,13.56c12.2,25.09,26.73,48.97,41.53,72.58c-0.38,5.51-0.85,11.02-1.46,16.52&#xD;&#xA;		c-12.56-17.77-24.1-36.24-35.11-55c-2.09-4.08-4.79-7.95-6.34-12.22c-0.45-2.44-1.66-4.63-2.6-6.88&#xD;&#xA;		C557.31,1147.58,550.04,1127.25,544.7,1106.4z"/>
	<path class="st4" d="M622.27,1241.59c7.21,9.06,13.05,19.29,20.52,28.19c-0.05,4.91,1.14,9.93,0.06,14.78&#xD;&#xA;		c-7.55-9.08-14.92-18.31-21.91-27.82C621.49,1251.69,621.73,1246.63,622.27,1241.59z"/>
</g>
</svg>