<?xml version="1.0" encoding="utf-8"?>
<svg xmlns="http://www.w3.org/2000/svg" xmlns:xlink="http://www.w3.org/1999/xlink" version="1.1" id="Layer_1" x="0px" y="0px" viewBox="0 0 797.08 797.08" style="enable-background:new 0 0 797.08 797.08;">
<style type="text/css">
	.st0{fill:#B8B8B8;}
	.st1{fill:#B01C00;}
	.st2{fill:#C6A375;}
	.st3{fill:#E02500;}
	.st4{fill:#FFFFFF;}
</style>
<g id="_x23_b8b8b8ff">
	<path class="st0" d="M448.295,0.03c18.19,15.39,32.15,35.32,42.51,56.65c9.09,19.05,15.09,39.54,17.99,60.44&#xD;&#xA;		c71.77,24.18,134.75,73.14,176.25,136.44c24.87,37.64,42.1,80.28,50.48,124.6c7.95,42.59,8.05,86.73-0.25,129.28&#xD;&#xA;		c19.1-0.02,38.21-0.07,57.32,0.02c-18.91,21.72-37.81,43.45-56.83,65.07c9.54,7.52,19.09,15.02,28.65,22.51&#xD;&#xA;		c-11.21,10.12-22.42,20.26-33.51,30.53c-0.01,48.35-0.01,96.7,0,145.05c-27.26-6.88-54.43-14.12-81.67-21.06&#xD;&#xA;		c7.44,10.27,13.14,21.66,18.62,33.06c-40.92-5.55-82.48-4.97-123.53-1.14c-32.89,3.08-65.5,8.63-97.78,15.6&#xD;&#xA;		c3.77-7.3,7.67-14.52,11.49-21.79c-34.15,6.07-68.88,8.3-103.51,9.01c-45.69-0.25-92.68-8.39-132.48-31.88&#xD;&#xA;		c-7.85-4.72-15.46-9.97-22.11-16.3c-44.65,11.32-89.17,23.18-133.82,34.51c-0.01-48.39,0.02-96.79-0.02-145.18&#xD;&#xA;		c-11.06-10.22-22.27-20.27-33.39-30.44c9.52-7.51,19.12-14.92,28.6-22.49c-19.02-21.61-37.88-43.36-56.82-65.04&#xD;&#xA;		c19.1-0.15,38.21-0.03,57.31-0.06c-13.53-69.7-4.88-143.63,24.94-208.12c2.37-4.01,1.1-8.81,1.42-13.21&#xD;&#xA;		c0.43-3.48-1.57-6.48-2.61-9.64c-8.17-5.87-15.47-12.9-21.73-20.77c-3.24-3.26-2.29-8.3-2.86-12.46&#xD;&#xA;		c-1.45-14.03-1.29-28.35,2.01-42.11c1.39-5.55,2.61-11.58,6.7-15.87c5.95-5.22,13.78-7.32,21.06-9.95&#xD;&#xA;		c4.79-5.16,8.65-11.62,15.09-14.96c4.86-1.6,10.13-0.98,15.14-1.85c5.67-4.83,11.88-9.32,18.99-11.73&#xD;&#xA;		c7.41-2.11,15.06,0.2,22.49,0.89c3.76-1.23,7.11-3.61,10.99-4.47c12.83-0.34,25.68,1.78,37.94,5.5c1,1.36,1.99,2.74,2.96,4.12&#xD;&#xA;		c4.32-3.35,8.99-6.19,13.65-9.02c18.93-11.2,39.07-20.55,60.25-26.62c4.68-33.08,17.03-65.27,37.15-92.06&#xD;&#xA;		c6.86-9.18,14.64-17.68,23.39-25.09c5.76,16.06,12.38,31.86,20.67,46.79c9.24-5.46,19.04-9.89,29.12-13.53&#xD;&#xA;		c10.07,3.66,19.89,8.1,29.12,13.56C435.865,31.85,442.595,16.1,448.295,0.03 M317.605,79.04c-5.47,17.28-9.25,35.12-11.05,53.16&#xD;&#xA;		c-35.06,10.59-68.37,26.96-97.97,48.55c-2.77-5.08-5.88-9.96-9.18-14.71c-7.46-1.63-15.11-3.29-22.78-2.61&#xD;&#xA;		c-4.13,1.31-7.84,3.68-11.95,5.04c-6.47-0.65-12.82-2.72-19.37-2.49c-6.35,2.71-11.43,7.59-16.3,12.35&#xD;&#xA;		c-3.85,0.09-7.71,0.19-11.54,0.58c-1.57,0.2-3.35,0.33-4.44,1.63c-3.75,3.64-6.8,7.89-10.01,11.98c-5.59,1.72-11.17,3.5-16.54,5.81&#xD;&#xA;		c-1.44,0.52-1.85,2.2-2.48,3.44c-4.53,11.86-4.61,24.79-3.9,37.29c0.34,2.49,0.19,5.4,2.22,7.24c6.24,6.84,13.09,13.26,21.07,18.05&#xD;&#xA;		c0.62,4.44,1.83,8.79,4.48,12.48c0.68,5.04,0.06,10.26,0.27,15.37c-0.21,3.75,0.8,7.85-1.29,11.24&#xD;&#xA;		c-33.21,69.06-40.07,150.08-20.02,223.95c-12.81-0.02-25.62,0-38.43-0.01c12.49,14.45,25.13,28.77,37.65,43.2&#xD;&#xA;		c-0.5,3.03,1.48,7.37-1.66,9.31c-6.95,5.4-13.84,10.87-20.79,16.26c7.52,6.77,15.01,13.59,22.46,20.45&#xD;&#xA;		c0.01,42.75-0.06,85.51,0.11,128.26c39.73-10.28,79.43-20.68,119.2-30.82c25.97,25.3,60.95,39.39,96.27,45.45&#xD;&#xA;		c46.62,8.14,94.21,4.24,140.88-1.35c16.38-1.74,32.73-4.49,49.24-4.58c-2.67,5.07-5.29,10.16-8,15.21&#xD;&#xA;		c7.17-1.5,14.37-2.83,21.6-3.97c41.88-6.31,84.47-7.81,126.72-5.05c-9.84-17.17-22.67-32.63-38.02-45.14&#xD;&#xA;		c39,10.03,77.97,20.14,116.94,30.28c-0.09-42.75,0-85.49-0.05-128.24c7.47-6.88,15-13.7,22.54-20.5&#xD;&#xA;		c-7.45-5.89-15.06-11.6-22.38-17.65c-0.36-2.61-0.13-5.25-0.13-7.86c12.62-14.41,25.13-28.91,37.83-43.25&#xD;&#xA;		c-12.81-0.02-25.61,0.01-38.41-0.01c16.02-60.38,14.83-125.34-4.54-184.81c-23.05-71.81-72.27-134.75-136.3-174.58&#xD;&#xA;		c-24.47-15.5-51.22-27.18-78.82-35.82c-1.27-9.19-2.53-18.41-4.52-27.48c-5.45-25.49-13.91-51.34-31.06-71.5&#xD;&#xA;		c-5.33,14.53-11.94,28.69-20.96,41.32c-11.18-7.79-23.12-14.49-35.66-19.82c-12.5,5.38-24.49,11.97-35.62,19.82&#xD;&#xA;		c-9.04-12.6-15.68-26.76-20.93-41.3C330.465,46.38,323.075,62.57,317.605,79.04z"/>
</g>
<g id="_x23_000000ff">
	<path d="M317.605,79.04c5.47-16.47,12.86-32.66,24.38-45.83c5.25,14.54,11.89,28.7,20.93,41.3c11.13-7.85,23.12-14.44,35.62-19.82&#xD;&#xA;		c12.54,5.33,24.48,12.03,35.66,19.82c9.02-12.63,15.63-26.79,20.96-41.32c17.15,20.16,25.61,46.01,31.06,71.5&#xD;&#xA;		c1.99,9.07,3.25,18.29,4.52,27.48c27.6,8.64,54.35,20.32,78.82,35.82c64.03,39.83,113.25,102.77,136.3,174.58&#xD;&#xA;		c19.37,59.47,20.56,124.43,4.54,184.81c12.8,0.02,25.6-0.01,38.41,0.01c-12.7,14.34-25.21,28.84-37.83,43.25&#xD;&#xA;		c0,2.61-0.23,5.25,0.13,7.86c7.32,6.05,14.93,11.76,22.38,17.65c-7.54,6.8-15.07,13.62-22.54,20.5&#xD;&#xA;		c0.05,42.75-0.04,85.49,0.05,128.24c-38.97-10.14-77.94-20.25-116.94-30.28c15.35,12.51,28.18,27.97,38.02,45.14&#xD;&#xA;		c-42.25-2.76-84.84-1.26-126.72,5.05c-7.23,1.14-14.43,2.47-21.6,3.97c2.71-5.05,5.33-10.14,8-15.21&#xD;&#xA;		c-16.51,0.09-32.86,2.84-49.24,4.58c-46.67,5.59-94.26,9.49-140.88,1.35c-35.32-6.06-70.3-20.15-96.27-45.45&#xD;&#xA;		c-39.77,10.14-79.47,20.54-119.2,30.82c-0.17-42.75-0.1-85.51-0.11-128.26c-7.45-6.86-14.94-13.68-22.46-20.45&#xD;&#xA;		c6.95-5.39,13.84-10.86,20.79-16.26c3.14-1.94,1.16-6.28,1.66-9.31c-12.52-14.43-25.16-28.75-37.65-43.2&#xD;&#xA;		c12.81,0.01,25.62-0.01,38.43,0.01c-20.05-73.87-13.19-154.89,20.02-223.95c2.09-3.39,1.08-7.49,1.29-11.24&#xD;&#xA;		c-0.21-5.11,0.41-10.33-0.27-15.37c-2.65-3.69-3.86-8.04-4.48-12.48c-7.98-4.79-14.83-11.21-21.07-18.05&#xD;&#xA;		c-2.03-1.84-1.88-4.75-2.22-7.24c-0.71-12.5-0.63-25.43,3.9-37.29c0.63-1.24,1.04-2.92,2.48-3.44c5.37-2.31,10.95-4.09,16.54-5.81&#xD;&#xA;		c3.21-4.09,6.26-8.34,10.01-11.98c1.09-1.3,2.87-1.43,4.44-1.63c3.83-0.39,7.69-0.49,11.54-0.58c4.87-4.76,9.95-9.64,16.3-12.35&#xD;&#xA;		c6.55-0.23,12.9,1.84,19.37,2.49c4.11-1.36,7.82-3.73,11.95-5.04c7.67-0.68,15.32,0.98,22.78,2.61c3.3,4.75,6.41,9.63,9.18,14.71&#xD;&#xA;		c29.6-21.59,62.91-37.96,97.97-48.55C308.355,114.16,312.135,96.32,317.605,79.04 M337.845,60.25&#xD;&#xA;		c-6.26,15.67-9.61,32.34-11.64,49.04c-0.47,4.76-1.18,9.52-0.99,14.32c2.86-8.07,7.85-15.11,13.57-21.4&#xD;&#xA;		c1.08,2.8,2.36,5.51,3.83,8.13c6.16-3.99,9.53-11.02,10.53-18.12c-6.3-10.99-11.23-22.9-13.41-35.42&#xD;&#xA;		C339.035,57.91,338.325,59.02,337.845,60.25 M455.705,64.38c-2.65,9.73-6.71,19.07-11.76,27.79c0.97,7.13,4.37,14.17,10.53,18.19&#xD;&#xA;		c7.03-16.74,7.49-35.88,3.09-53.35C456.385,59.27,456.425,61.96,455.705,64.38 M372.345,85.4c-1.32,16.94-6.4,34.66-18.73,46.96&#xD;&#xA;		c0.56-3.22,1.09-6.44,1.41-9.69c-5.81,8.37-13.06,15.77-21.4,21.63c-1.88,1.42-4.32,2.4-5.29,4.71&#xD;&#xA;		c-8.45,16.74-15.16,34.38-19.65,52.6c-0.71,1.93,0.01,3.92,0.46,5.82c7.54,28.71,17.34,56.88,29.91,83.78&#xD;&#xA;		c-7.1-31.65-12.85-63.69-15.17-96.08c29.17-0.41,58.83-14.61,74.7-39.61c11.57,1.77,22.33,6.72,32.86,11.63&#xD;&#xA;		c-6.4-8.05-12.9-16.1-17.92-25.11c-4.23-7.81-9.26-15.17-14.86-22.06c2.89-2.14,5.74-4.34,8.57-6.56&#xD;&#xA;		c-1.46-5.97-2.42-12.11-2.35-18.26c-0.01-4.28,2.03-8.73,5.91-10.82c2.89-1.83,6.41-1.82,9.71-2.01&#xD;&#xA;		c-7.11-4.65-14.47-8.9-21.98-12.86C389.525,74.31,380.565,79.3,372.345,85.4 M238.935,186.33c15.54,4.07,31.02,8.37,46.57,12.41&#xD;&#xA;		c3.45-14.3,8.53-28.17,14.33-41.68C278.505,164.41,257.905,174.11,238.935,186.33 M497.335,157.07&#xD;&#xA;		c5.66,13.55,10.82,27.35,14.23,41.65c15.57-3.99,31.04-8.34,46.6-12.39C539.215,174.1,518.625,164.47,497.335,157.07&#xD;&#xA;		 M175.635,177.29c-3.48,1.55-6.74,3.55-10.04,5.45c-5.73-1.64-11.64-3.47-17.66-3.13c-4.84,2.23-8.2,6.55-12.3,9.79&#xD;&#xA;		c-3.76,0.87-7.68,0.67-11.48,1.26c-6.53,0.3-9,7.38-12.35,11.91c-5.36,1.62-10.96,3.04-15.64,6.24c-1.45,2.5-1.56,5.51-1.95,8.32&#xD;&#xA;		c-0.52,6.68-1.43,13.39-0.96,20.1c1.81,3.01,4.48,5.37,6.64,8.12c3.93-2.04,7.84-4.15,11.74-6.25c4.48,6.05,9.99,11.59,17,14.62&#xD;&#xA;		c-7.69-12.19-12.57-26.18-13.48-40.61c3.15,6.54,5.52,13.43,8.65,19.98c4.96-2.09,9.8-4.42,14.75-6.54&#xD;&#xA;		c4.39,8.08,10.01,15.53,17.04,21.5c-6.22-14.34-11.44-29.27-14.11-44.7c3.33,5.9,6.17,12.07,9.29,18.09&#xD;&#xA;		c4.71-1.47,9.23-3.52,13.97-4.89c1.31,0.49,1.31,2.29,1.97,3.37c2.86,7.17,5.33,14.51,8.41,21.59&#xD;&#xA;		c-1.06-16.73-4.77-33.14-7.58-49.63c3.7,6.67,6.77,13.66,9.74,20.68c6.37-1.75,12.79-3.4,19.34-4.36&#xD;&#xA;		c1.06,3.55,2.16,7.09,3.41,10.58c0.73-5.22,2.55-10.4,2.37-15.68c-2.41-8.12-5.88-16.06-10.92-22.92c-1.12-1.32-2.17-3.1-4.06-3.31&#xD;&#xA;		C183.555,176.38,179.305,175.44,175.635,177.29 M465.075,175.91c2.55,6.46,5.52,12.77,7.98,19.27c-2.05,32.35-7.91,64.41-15.09,96&#xD;&#xA;		c13.26-27.97,23.18-57.46,30.96-87.39C481.645,193.97,473.995,184.3,465.075,175.91 M435.035,193.98&#xD;&#xA;		c-0.57,4.15-3.27,8.14-7.51,9.14c-3.65,1.23-7.35-0.57-10.07-2.94c-0.98,0.68-1.95,1.37-2.93,2.06c1.28,4.59,6.77,5.93,10.97,6.03&#xD;&#xA;		c5.08-0.28,10.36-0.22,15.18-2.08c4.97-2.11,7.36-7.59,7.8-12.69C443.995,193.23,439.465,193.19,435.035,193.98 M353.905,197.69&#xD;&#xA;		c-2.6,0.89-4.27,3.24-5.74,5.43c6.54,2.15,12.9,4.85,19.57,6.56c3.56,0.52,8.16,0.72,10.53-2.56c0.02-1.74-2.04-2.4-2.97-3.59&#xD;&#xA;		c-2.26,1.47-5.01,3.17-7.75,1.83c-2.91-0.92-4.21-3.89-4.55-6.69C360.065,197.88,356.945,196.83,353.905,197.69 M394.895,203.52&#xD;&#xA;		c-4.6,3.74-7.36,9.22-11.91,13.02c-6.47,5.72-15.74,6.55-23.98,5.77c1.88-1.09,3.77-2.16,5.65-3.27&#xD;&#xA;		c-10.1-1.21-20.32-3.05-29.39-7.88c-3.23,5.14-1.63,11.37,1.36,16.2l0.44,0.07c3.02,4.99,6.24,9.86,9.25,14.86&#xD;&#xA;		c-1.91,0.04-3.81,0.09-5.71,0.14c7.7,10.3,14.8,21.38,18.52,33.8c1.96,6.14,5.23,12.01,10.29,16.13c3.69,2.78,8.4,4.49,13.06,3.73&#xD;&#xA;		c3.71-0.63,7.33-1.74,11.09-2.07c6.56-0.87,13.15,0.25,19.52,1.8c5.31,1.32,11.11-0.39,15.17-3.99c4.91-4.22,7.94-10.19,9.86-16.28&#xD;&#xA;		c3.72-12.18,10.78-23,18.29-33.16c-1.92-0.01-3.83-0.01-5.73-0.01c3.33-5.64,6.93-11.1,10.49-16.6c2.87-4.31,3.42-10.19,0.53-14.64&#xD;&#xA;		c-9.03,4.94-19.31,6.71-29.41,7.88c1.9,1.08,3.81,2.16,5.71,3.26c-6.9,0.73-14.22,0.16-20.4-3.21c-6.12-3.46-9.45-9.93-14.36-14.7&#xD;&#xA;		C401.145,202.1,397.335,201.41,394.895,203.52 M515.335,219.04c9.11,4.78,18,10.03,26.37,16.03c20.02-4.97,39.85-10.73,59.83-15.85&#xD;&#xA;		c-6.67-6.34-13.9-12.05-21.13-17.74C558.715,207.35,536.955,212.95,515.335,219.04 M220.505,202.26c-0.48,4.97-1.29,9.9-1.83,14.86&#xD;&#xA;		c12.28,5.86,24.31,12.25,36.66,17.99c8.38-6.03,17.31-11.26,26.43-16.1C261.385,213.29,240.985,207.62,220.505,202.26&#xD;&#xA;		 M188.695,231.44c0.03,4.89-0.26,9.78,0.08,14.66c3.14,5.36,9.08,8.14,14.48,10.73c-7.11,1.73-14.64,0.38-20.99-3.12&#xD;&#xA;		c-6.41,3.91-13.97,5.54-21.43,4.98c-0.23,15.64,0,31.28-0.12,46.92c5.8,0.57,11.52,1.87,16.95,4.01c0.6-9.67,1.51-19.43,4.48-28.7&#xD;&#xA;		c-3.51-0.86-7.07-1.71-10.31-3.36c7.42-0.31,14.86-1.62,21.84-4.18c4.26-1.41,5.49-6.3,7.43-9.83c3.61-0.03,7.11-1.24,10.58-2.17&#xD;&#xA;		c5.21-1.18,8.31-5.89,12.15-9.18c-0.1-4.72,0.2-9.46-0.09-14.17c-2.57-3.27-6.3-5.48-9.3-8.37c-6.33-0.02-12.66-0.05-18.98-0.03&#xD;&#xA;		C193.065,229.57,190.885,230.64,188.695,231.44 M238.345,276.57c12.94-5.4,26.39-9.42,39.95-12.93&#xD;&#xA;		c3.67-7.61,11.71-13.37,20.43-12.34c-1.57-4.88-3.24-9.72-5-14.53C273.495,247.3,254.645,260.59,238.345,276.57 M498.365,251.3&#xD;&#xA;		c8.68-1.02,16.77,4.67,20.38,12.3c13.57,3.6,27.1,7.54,40.06,13.01c-16.34-16-35.22-29.28-55.46-39.88&#xD;&#xA;		C501.625,241.56,499.925,246.41,498.365,251.3 M621.455,239.04c-5.22,19.99-10.77,39.9-15.9,59.91&#xD;&#xA;		c6.01,8.45,11.21,17.45,16.18,26.55c5.77-21.75,11.58-43.48,17.44-65.21C633.495,253.03,627.655,245.87,621.455,239.04&#xD;&#xA;		 M562.285,250.76c9.83,8.61,19.07,17.85,27.65,27.7c3.46-12.63,6.65-25.32,10.21-37.91C587.545,244,574.885,247.28,562.285,250.76&#xD;&#xA;		 M121.445,267.18c1.25,3.42,3.44,6.51,6.6,8.4c4.82,3.1,10.79,2.75,16.28,2.92c-6.28,3.38-13.47,4.65-20.55,4.64&#xD;&#xA;		c0.02,10.63-0.08,21.27,0.05,31.9c8.04-5.36,17.39-8.4,26.95-9.48c-0.07-14.22,0.01-28.44-0.04-42.65c-4.5-0.17-8.93-0.98-13.31-2&#xD;&#xA;		C132.505,263.91,127.055,265.92,121.445,267.18 M296.205,267.93c-1.39,2.11-1.34,4.76-1.49,7.19c-0.43,11.46,2.73,22.61,5.64,33.58&#xD;&#xA;		c-5.85-9.67-10.71-19.88-15.42-30.13c1.55,42.47,7.76,84.96,20.59,125.54c5.91,18.12,12.83,36.04,22.46,52.55&#xD;&#xA;		c-2.08-1.93-4.05-3.97-5.87-6.15c-12.29-14.48-22.62-30.72-30.01-48.23c1.43,10.87,4.6,21.48,8.07,31.86&#xD;&#xA;		c-5.39-7.67-9.31-16.28-12.63-25.01c-8.56-23.44-12.45-48.35-13.93-73.19c-4.76,14.16-5.55,29.3-6.2,44.11&#xD;&#xA;		c-0.44,30.16,2.17,60.94,13.03,89.32c5.48,14.13,12.7,28.05,23.72,38.68c-3.25-11.19-4.53-22.85-5.2-34.44&#xD;&#xA;		c11.12,14.61,26.36,25.49,42.25,34.37c-4.67-6.74-8.4-14.32-9.39-22.55c16.27,10.42,35.7,14.69,54.78,15.9&#xD;&#xA;		c-22.91-34.66-40.71-72.67-52.77-112.42c23.79,32.32,50.53,62.75,81.83,88.02c12.92,10.18,26.29,20.12,41.19,27.23&#xD;&#xA;		c-2.98-3.76-6.61-6.93-9.84-10.46c-23.88-25.67-45.34-53.63-63.56-83.59c15.13,14.54,32.03,27.11,49.69,38.39&#xD;&#xA;		c2.63,1.73,5.25,3.5,8.18,4.7c-19.24-18.4-37.23-38.1-54.19-58.61c-26.51-32.42-50.64-66.96-70.13-104.08&#xD;&#xA;		c-4-7.16-6.38-15.57-12.75-21.11C302.175,267.44,298.795,266.34,296.205,267.93 M495.365,267.72c-4.81,2.54-7.66,7.52-10.08,12.19&#xD;&#xA;		c-5.03,10.66-7.81,22.17-11.51,33.32c-11.07,35.06-28.11,67.89-47.11,99.26c7.14,0.45,14.28-0.85,21.03-3.12&#xD;&#xA;		c13.3-4.59,25.33-12.3,36.11-21.24c-0.03,20.09-0.15,40.2,0.05,60.29c4.9-8.96,8.64-18.53,11.96-28.18&#xD;&#xA;		c2.21,4.43,4.34,8.9,6.69,13.26c2.42-14.29,5.67-28.44,8.28-42.7c1.83,38.33,5.72,76.53,9.8,114.68c0.81-3.75,1.18-7.57,1.37-11.38&#xD;&#xA;		c1.91-19.75,4.55-39.44,8.39-58.91c4.28-21.6,9.29-43.13,11.17-65.11c1.19,6.31,1.18,12.77,1.88,19.15&#xD;&#xA;		c2.81,29.37,4.88,58.82,7.99,88.15c2.18-20.58,4.36-41.24,9-61.44c1.37-4.89,2.38-10.22,5.73-14.2c2.16-1.84,4.15,0.97,5.02,2.77&#xD;&#xA;		c3.63,7.76,5,16.33,6.72,24.66c3.51,19.65,5.85,39.5,7.64,59.37c4.28-20.96,4.97-42.54,10.04-63.36c1.07-3.39,1.84-7.74,5.6-9.15&#xD;&#xA;		c3.84,4.15,5.25,9.75,6.8,15.03c5,19.12,7.96,38.71,10.63,58.28c0.23-2.07,0.39-4.14,0.38-6.2c-0.16-13.23,0.02-26.46-0.1-39.68&#xD;&#xA;		c1.59,1.01,3.2,2.04,4.81,3.05c-0.34-42.46-11.11-85.41-34.28-121.27c-4.15-6.05-8.3-12.37-14.23-16.83&#xD;&#xA;		c-2.79-2.42-6.95-1.67-9.72-4.09c-3.38-2.71-7.71-3.6-11.92-3.96c-2.98-2.81-6.98-4.44-11.08-4.37c-4.83,0.97-8.63,4.4-12.2,7.56&#xD;&#xA;		c-0.21-4.7-0.1-10.77-4.59-13.6c-3.8-2.38-8.37-4.46-12.94-3.48c-1.44,3.22-1.76,6.82-2.88,10.15&#xD;&#xA;		c-5.62,18.77-14.86,36.6-27.69,51.47c8.72-20.49,16.64-41.64,19.37-63.87c0.43-4.97,1.37-10.11,0.02-15.02&#xD;&#xA;		C500.765,266.59,497.355,266.96,495.365,267.72 M653.905,284.13c-5.32,19.63-10.53,39.28-15.76,58.93&#xD;&#xA;		c18.1,10.36,36.06,20.98,54.23,31.23c-7.19-31.59-19.77-61.86-36.54-89.55C655.555,284.04,653.925,282.02,653.905,284.13&#xD;&#xA;		 M225.915,295.52c-7.51,4.66-12.52,12.87-13.44,21.64c-0.96,7.44,0.77,14.88,3.07,21.92c2.91,9.21,4.24,18.81,5.18,28.4&#xD;&#xA;		c5.09-2.74,9.93-5.99,14.14-9.97c11.37-10.94,17.61-26.67,17.87-42.36c-0.13-5.67-1.55-11.9,1.77-17c2.71-4.67,8.09-6.46,13.15-7.1&#xD;&#xA;		C253.975,286.66,238.235,287.92,225.915,295.52 M384.795,324.31c-1.31,0.44-4.42-0.57-4.07,1.79c0.17,15.1,7.94,29.01,17.8,40.01&#xD;&#xA;		c10.2-11.32,18.35-25.92,17.69-41.59c-1.32-0.05-2.63-0.09-3.94-0.13c-3.32-4.65-7.78-9.24-13.72-10.03&#xD;&#xA;		C392.595,315.11,388.195,319.72,384.795,324.31 M123.055,329.55c7.59,3.62,15.22,7.17,22.9,10.6c2.97-7.86,5.71-15.81,8.75-23.65&#xD;&#xA;		C142.995,316.7,131.565,321.55,123.055,329.55 M157.105,316.48c2.97,7.86,5.81,15.78,8.74,23.66c7.66-3.44,15.3-6.94,22.86-10.58&#xD;&#xA;		C180.255,321.49,168.785,316.75,157.105,316.48 M155.785,327.96c-1.63,4.51-3.25,9.03-4.95,13.51c3.38-0.65,6.81-0.55,10.19,0.01&#xD;&#xA;		C159.115,337.04,157.795,332.36,155.785,327.96 M108.025,363.04c8-2.84,15.95-5.84,23.91-8.78c-3.66-7.6-7.19-15.27-10.62-22.97&#xD;&#xA;		C113.195,339.82,108.575,351.31,108.025,363.04 M190.485,331.33c-3.47,7.67-7.02,15.31-10.57,22.95c7.95,2.9,15.84,5.99,23.85,8.7&#xD;&#xA;		C203.145,351.3,198.645,339.8,190.485,331.33 M130.095,338.4c1.99,4.43,4.13,8.8,6.08,13.25c2.11-2.63,4.51-5,7.05-7.21&#xD;&#xA;		C138.815,342.51,134.435,340.49,130.095,338.4 M181.585,338.51c-4.38,1.91-8.63,4.13-13.08,5.86c2.57,2.22,5.08,4.56,7.03,7.37&#xD;&#xA;		C177.515,347.31,179.705,342.98,181.585,338.51 M150.465,347.86c1.76,1.8,3.54,3.58,5.33,5.37c1.87-1.79,3.74-3.57,5.61-5.36&#xD;&#xA;		C157.815,346.84,154.045,346.76,150.465,347.86 M140.925,355.35c2.12,2.19,4.27,4.35,6.46,6.49c1.97-2.05,3.98-4.07,6.02-6.05&#xD;&#xA;		c-2.08-2.15-4.18-4.29-6.26-6.43C144.725,350.97,142.665,353.04,140.925,355.35 M158.385,355.84c2.02,2.01,4.04,4.02,6.06,6.03&#xD;&#xA;		c2.17-2.14,4.3-4.33,6.34-6.6c-1.71-2.28-3.75-4.27-6.07-5.9C162.575,351.5,160.455,353.65,158.385,355.84 M155.855,358.26&#xD;&#xA;		c-2,2.01-4.01,4.02-6.03,6.01c1.98,2.1,4.04,4.14,6.23,6.04c1.97-2.04,3.95-4.05,5.95-6.06&#xD;&#xA;		C159.965,362.25,157.925,360.24,155.855,358.26 M139.245,359.29c-0.8,3.43-0.53,6.98,0.08,10.43c1.91-1.79,3.77-3.62,5.61-5.47&#xD;&#xA;		C143.055,362.61,141.615,360.22,139.245,359.29 M166.845,364.26c1.83,1.9,3.71,3.75,5.69,5.5c0.57-3.61,0.56-7.26,0.01-10.87&#xD;&#xA;		C170.565,360.6,168.685,362.41,166.845,364.26 M178.685,359.19c0.67,3.37,0.65,6.83,0.03,10.22c4.43-1.88,9.02-3.32,13.48-5.12&#xD;&#xA;		C187.745,362.45,183.155,360.98,178.685,359.19 M119.395,364.23c4.56,1.77,9.19,3.33,13.73,5.15c-0.54-3.38-0.57-6.81,0.02-10.18&#xD;&#xA;		C128.575,360.91,124.005,362.63,119.395,364.23 M108.035,365.47c0.56,11.68,5.05,23.29,13.32,31.67c3.4-7.7,7.05-15.29,10.53-22.95&#xD;&#xA;		C123.905,371.36,115.995,368.34,108.035,365.47 M179.925,374.17c3.47,7.71,7.11,15.35,10.58,23.06&#xD;&#xA;		c8.13-8.51,12.65-20.02,13.26-31.72C195.775,368.28,187.915,371.39,179.925,374.17 M140.945,373.18c1.76,2.31,3.78,4.46,6.28,5.98&#xD;&#xA;		c2.08-2.13,4.16-4.26,6.22-6.41c-2.04-1.98-4.05-3.99-6.02-6.04C145.265,368.87,143.115,371.03,140.945,373.18 M158.385,372.95&#xD;&#xA;		c2.12,2.04,4.21,4.13,6.26,6.25c2.41-1.63,4.45-3.71,6.18-6.04c-2.14-2.13-4.26-4.28-6.37-6.45&#xD;&#xA;		C162.385,368.74,160.355,370.81,158.385,372.95 M638.875,367.09c3.08,9.92,5.66,20.01,7.37,30.27&#xD;&#xA;		c17.83,10.28,35.59,20.68,53.48,30.85c-0.38-9.22-1.14-18.47-2.63-27.58C677.635,389.55,658.345,378.15,638.875,367.09&#xD;&#xA;		 M150.535,380.61c3.51,1.18,7.27,1.08,10.8,0.05c-1.79-1.79-3.59-3.56-5.39-5.33C154.125,377.06,152.315,378.82,150.535,380.61&#xD;&#xA;		 M136.135,376.95c-1.87,4.37-4.14,8.57-5.76,13.04c4.34-1.94,8.56-4.18,12.99-5.92C140.665,382,138.315,379.55,136.135,376.95&#xD;&#xA;		 M168.405,384.09c4.45,1.79,8.77,3.9,13.1,5.97c-1.69-4.53-3.99-8.79-5.96-13.19C173.515,379.6,171.075,381.99,168.405,384.09&#xD;&#xA;		 M150.885,387.13c1.63,4.42,3.22,8.87,4.91,13.28c2.07-4.32,3.37-8.95,5.21-13.36C157.655,387.68,154.235,387.65,150.885,387.13&#xD;&#xA;		 M123.035,398.94c8.48,8.05,19.95,12.93,31.67,13.06c-3.09-7.86-5.74-15.89-8.88-23.73&#xD;&#xA;		C138.295,391.97,130.625,395.37,123.035,398.94 M165.685,388.42c-2.61,7.96-5.72,15.75-8.57,23.62&#xD;&#xA;		c11.67-0.25,23.24-4.97,31.58-13.16C180.985,395.48,173.485,391.61,165.685,388.42 M114.425,406.09c0.19,13.66,0.17,27.33,0.01,41&#xD;&#xA;		c0.83,5.41-4.92,8.16-7.66,12c3.44,14.26,7.42,28.42,10.25,42.82c1.23-15.29,0.15-30.67,0.61-45.99c3.53,1.22,7.09,2.38,10.72,3.3&#xD;&#xA;		c-2.46-3.07-5.72-5.6-7.64-9.04c-0.44-12.94,0.27-25.94-0.31-38.87C118.595,409.37,116.435,407.8,114.425,406.09 M191.315,410.97&#xD;&#xA;		c-9.52,6.74-20.77,11.42-32.51,12c-1.97-0.04-3.94-0.04-5.9,0c-6.71-0.18-13.24-1.96-19.49-4.28c3.42,10.57,9.78,20.62,19.47,26.44&#xD;&#xA;		c0,7.3,0.01,14.6,0,21.91c-2.58,2.32-5.14,4.65-7.78,6.91c3.8,14.28,7.02,28.73,10.7,43.05c0.56-14.81,0.08-29.65,0.23-44.47&#xD;&#xA;		c3.55,1.16,7.11,2.31,10.71,3.33c-2.59-3.02-5.3-5.93-7.97-8.87c0.06-7.15,0.01-14.3,0.03-21.45c12.58-6.31,24.39-14.93,32.5-26.6&#xD;&#xA;		c-0.06,20.35-0.05,40.69,0,61.03c-2.42,2.92-5.26,5.49-7.53,8.54c2.79,14.52,7.25,28.76,10.12,43.31c0.27-2.23,0.47-4.48,0.46-6.72&#xD;&#xA;		c-0.09-13.21-0.02-26.43-0.04-39.65c3.59,1.22,7.21,2.35,10.83,3.5c-2.61-3.02-5.25-6.01-7.95-8.94c-0.04-24.64,0-49.29-0.02-73.93&#xD;&#xA;		C195.225,407.71,193.285,409.36,191.315,410.97 M649.655,422.74c0.78,13.07,0.91,26.18-0.07,39.25&#xD;&#xA;		c11.33-6.5,22.64-13.03,33.92-19.61C672.245,435.79,660.895,429.36,649.655,422.74 M647.865,486.47c-1,0.49-1.88,1.29-1.87,2.49&#xD;&#xA;		c-1.74,9.73-4.18,19.33-7.11,28.77c19.44-11.15,38.78-22.49,58.25-33.61c1.42-9.16,2.18-18.43,2.62-27.69&#xD;&#xA;		C682.505,466.52,665.145,476.43,647.865,486.47 M227.965,529.56c2.32,2.09,4.65,4.17,6.92,6.33c-0.04,8.86-0.13,17.73,0.04,26.59&#xD;&#xA;		c12.29-0.07,24.59-0.08,36.88,0.01c1.79-1.16,3.57-2.34,5.33-3.54c-0.07-8.66,0.01-17.32-0.04-25.99&#xD;&#xA;		c-2.33-1.45-4.49-3.85-7.49-3.45C255.725,529.58,241.845,529.49,227.965,529.56 M303.855,529.53c0.01,4.31,0,8.61,0.02,12.92&#xD;&#xA;		c-2.28,0-4.55,0.01-6.82,0.05c2.24,2.12,4.52,4.18,6.83,6.24c-0.03,4.56-0.03,9.13-0.01,13.7c3.46-0.01,6.93-0.01,10.41-0.01&#xD;&#xA;		c0-4.29,0-8.58-0.01-12.86c1.71,0,3.43,0.01,5.15,0.03c4.88,4.35,9.87,8.58,14.8,12.87c4.41-0.06,8.83-0.02,13.24-0.07&#xD;&#xA;		c-4.96-4.27-9.91-8.58-14.87-12.85c4.5,0.03,8.99,0.02,13.49,0.07c0.1-6.7,0.02-13.4,0.05-20.09&#xD;&#xA;		C332.045,529.54,317.945,529.54,303.855,529.53 M374.025,529.54c0.03,4.3,0.02,8.61,0.03,12.91c-2.27,0.01-4.54,0.03-6.8,0.09&#xD;&#xA;		c2.2,2.1,4.47,4.13,6.77,6.12c0.04,4.59,0.01,9.19,0.03,13.78c14.09-0.02,28.17,0,42.26-0.01c0-2.39,0-4.78,0.01-7.16&#xD;&#xA;		c-10.58,0.01-21.15,0.01-31.71,0c-0.03-1.91-0.04-3.82-0.03-5.72c7.13,0.06,14.26,0.01,21.4,0.04c0-2.39-0.01-4.77,0-7.15&#xD;&#xA;		c-7.12,0.03-14.24,0.02-21.36,0.02c0-1.96-0.01-3.92-0.01-5.87c10.58,0.04,21.15,0.04,31.72,0.01c-0.01-2.36-0.01-4.71-0.01-7.06&#xD;&#xA;		C402.225,529.54,388.125,529.53,374.025,529.54 M455.155,529.52c-1.59,4.3-3.22,8.59-4.77,12.91c-2.32,0.01-4.64,0.03-6.95,0.08&#xD;&#xA;		c1.68,1.59,3.4,3.14,5.14,4.68c-1.75,5.11-3.82,10.1-5.54,15.22c3.55,0.03,7.1,0.03,10.66,0.02c1.63-4.31,3.12-8.66,4.89-12.91&#xD;&#xA;		c4.25,0.09,8.49,0.07,12.74,0.03c1.7,4.27,3.2,8.61,4.84,12.9c3.6-0.02,7.19-0.02,10.79-0.02c-4.23-10.91-8.11-21.95-12.25-32.89&#xD;&#xA;		C468.185,529.53,461.665,529.55,455.155,529.52 M513.625,529.53c0.01,10.97,0.01,21.93,0,32.9c3.44,0,6.89,0,10.33,0&#xD;&#xA;		c0-7.32,0.07-14.65-0.06-21.97c3.22,3.32,6.38,6.7,9.59,10.03c2.96,0,5.93-0.01,8.9-0.05c3.1-3.34,6.3-6.6,9.42-9.93&#xD;&#xA;		c0.04,7.31-0.01,14.63,0.03,21.94c3.43-0.02,6.88-0.02,10.32-0.01c0-8.83,0.06-17.67-0.03-26.5c2.29-2.17,4.65-4.26,6.98-6.38&#xD;&#xA;		c-6.39-0.05-12.79-0.02-19.18-0.02c-4.01,4.22-8.02,8.43-12.13,12.54c-3.95-4.17-7.95-8.29-11.85-12.49&#xD;&#xA;		C521.835,529.51,517.725,529.53,513.625,529.53 M94.675,548.91c4.34,4.11,8.82,8.07,13.15,12.2c0,11.6-0.03,23.21,0.02,34.82&#xD;&#xA;		c-4.4-0.02-8.8-0.03-13.19-0.01c4.38,4.07,8.83,8.07,13.17,12.18c0,34.02-0.02,68.03,0.01,102.05&#xD;&#xA;		c24.14-6.26,48.31-12.45,72.43-18.79c-0.03-11.29-0.03-22.58,0.01-33.86c-8.62,0.02-17.23-0.03-25.85,0.03&#xD;&#xA;		c-0.03,4.6-0.05,9.2,0.03,13.81c-7.01,1.89-14.04,3.7-21.07,5.5c-0.01-21.6-0.01-43.2,0-64.8c13.4,0.13,26.81-0.24,40.2,0.2&#xD;&#xA;		c-5.61-5.76-11.78-10.94-17.7-16.37c-7.51,0.1-15.01,0.02-22.51,0.05c0.01-10.28,0-20.56,0.01-30.84&#xD;&#xA;		c7.07,0.38,14.15,0.06,21.23,0.2c0.01,5.06-0.33,10.13-0.22,15.2c8.63,0.04,17.26,0.01,25.89,0.01&#xD;&#xA;		c-0.31-5.22,0.43-10.62-0.34-15.72c-5.79-5.3-11.53-10.67-17.41-15.88C139.915,548.94,117.295,548.9,94.675,548.91 M616.835,564.98&#xD;&#xA;		c0.02,15.7,0.02,31.39,0,47.09c15.6-0.04,31.19-0.01,46.79-0.03c0.01,21.6,0,43.2,0,64.8c-7-1.82-14.01-3.63-21-5.48&#xD;&#xA;		c0.04-4.62,0.02-9.24,0.03-13.86c-8.61,0-17.22,0.01-25.82-0.01c0.03,11.3,0.01,22.59,0.01,33.89&#xD;&#xA;		c24.13,6.31,48.27,12.53,72.42,18.77c0.02-34.02,0.01-68.03,0-102.05c4.32-4.13,8.81-8.08,13.17-12.18&#xD;&#xA;		c-19.94-0.01-39.87-0.01-59.81,0c0.08-10.31-0.04-20.62,0.07-30.93c6.97,0.27,13.96,0.47,20.94,0.08&#xD;&#xA;		c-0.01,6.12-0.01,12.25-0.01,18.38c8.54,0.01,17.07-0.04,25.61,0.02c0.08-7.45,0.02-14.9,0.03-22.36&#xD;&#xA;		c4.3-4.15,8.81-8.07,13.15-12.19c-21.25-0.05-42.5,0.05-63.75-0.05C631.315,554.14,624.145,559.66,616.835,564.98 M196.335,583.01&#xD;&#xA;		c4.13,4.08,8.49,7.92,12.83,11.78c-0.02,11.51,0.03,23.03-0.03,34.55c-4.21-0.06-8.42-0.04-12.63-0.06&#xD;&#xA;		c4.1,3.99,8.37,7.8,12.63,11.61c0.06,16.86,0.01,33.72,0.03,50.58c12.93-0.03,25.87,0.07,38.81-0.05&#xD;&#xA;		c-4.25-4.06-8.65-7.95-12.99-11.92c0.12-11.36,0.06-22.72,0.03-34.08c7.02,0.03,14.05,0.04,21.07,0c-0.04,15.35,0,30.7-0.02,46.06&#xD;&#xA;		c12.91-0.02,25.82,0.01,38.73-0.02c-4.23-4.02-8.68-7.79-12.88-11.84c-0.03-26.81,0-53.62-0.02-80.43&#xD;&#xA;		c-6.03-5.35-11.7-11.28-18.08-16.12C241.325,582.92,218.825,583.05,196.335,583.01 M293.335,583c5.71,5.7,11.89,10.9,17.78,16.42&#xD;&#xA;		c6.99-0.09,13.99-0.01,20.98-0.06c-0.13,30.71-0.01,61.41-0.06,92.12c12.93-0.03,25.86,0.03,38.79-0.03&#xD;&#xA;		c-4.25-3.97-8.59-7.84-12.89-11.73c-0.06-26.78,0.03-53.56-0.05-80.34c8.95-0.02,17.9,0.04,26.85-0.03&#xD;&#xA;		c-5.94-5.52-11.91-11.01-17.96-16.4C342.295,583.08,317.815,582.98,293.335,583 M400.765,583.03c4.28,4.02,8.62,7.99,12.96,11.95&#xD;&#xA;		c-0.03,11.44-0.02,22.89-0.01,34.34c-4.28-0.02-8.57-0.04-12.85,0.01c4.29,3.92,8.64,7.78,12.85,11.8&#xD;&#xA;		c-0.02,16.78,0.01,33.56-0.02,50.34c21.24-0.02,42.47,0.05,63.71-0.03c-2.64-5.8-5.49-11.5-7.78-17.45&#xD;&#xA;		c5.57-0.2,11.12,0.19,16.68,0.4c0.02-4.93-0.02-9.86,0.04-14.79c-8.59-0.01-17.18-0.01-25.76,0c-0.03,5.26,0.26,10.54-0.22,15.79&#xD;&#xA;		c-6.93-0.11-13.85-0.04-20.77-0.04c-0.05-9.97,0.06-19.95-0.01-29.92c13.38,0.01,26.76,0.03,40.14-0.01&#xD;&#xA;		c-5.54-5.62-11.68-10.62-17.35-16.11c-7.57-0.01-15.15-0.01-22.73,0c-0.01-9.98-0.12-19.95-0.26-29.92&#xD;&#xA;		c7.08-0.01,14.16-0.05,21.25,0.03c-0.03,5.05,0,10.1-0.04,15.16c8.58,0,17.16,0.01,25.74,0c-0.04-5.15-0.04-10.3-0.01-15.45&#xD;&#xA;		c-5.88-5.39-11.75-10.8-17.68-16.14C446.015,583.05,423.395,582.96,400.765,583.03 M515.185,594.8c0.09,11.5,0.03,23.01,0.03,34.52&#xD;&#xA;		c-4.24-0.02-8.48-0.03-12.71-0.02c3.54,3.41,7.18,6.72,10.88,9.96c0.72,0.84,2.1,1.54,1.84,2.87c0.02,12.01-0.03,24.01,0.02,36.02&#xD;&#xA;		c13.33,2.6,26.29,7,38.47,13.03c-4.13-4.05-8.57-7.76-12.75-11.74c0.04-4.89,0.08-9.78-0.03-14.66&#xD;&#xA;		c6.96-5.49,14.17-10.65,21.17-16.09c-0.08,14.26-0.01,28.53-0.04,42.79c12.92-0.03,25.84,0.03,38.76-0.03&#xD;&#xA;		c-4.27-3.98-8.67-7.81-12.94-11.8c-0.07-11.48,0.02-22.96-0.04-34.44c-3.22-2.84-6.21-5.92-9.51-8.66c3.16-2.46,6.41-4.8,9.55-7.28&#xD;&#xA;		c-0.05-10.04-0.02-20.09-0.01-30.13c-6.04-5.3-11.66-11.21-18.01-16.07c-22.46-0.13-44.92-0.07-67.38-0.03&#xD;&#xA;		C506.455,587.23,510.925,590.9,515.185,594.8 M500.845,694.46c3.64,5.36,6.65,11.2,8.08,17.56c-32.29-0.85-64.41,3.37-96.39,7.28&#xD;&#xA;		c-27.61,3.29-55.13,8.14-83.02,8.3c-33.86-0.01-68.59-4.52-99.27-19.64c18.54,15.53,41.74,24.58,65.28,29.3&#xD;&#xA;		c22.98,4.68,46.55,5.63,69.94,5.13c27.76-0.68,55.42-3.55,82.95-7.02c27.55-3.52,55.39-4.58,83.13-3.4&#xD;&#xA;		c21.84,1.12,43.7,3.56,64.94,8.88c-14.38-13.45-30.85-24.68-48.69-33.03C532.955,701.04,517.155,695.89,500.845,694.46z"/>
	<path d="M409.475,234.73c2.01,2.1,4.9,4.16,4.71,7.42c-0.13,3.56-4.17,4.88-6.99,5.83c-7.53,1.79-15.76,1.41-22.79-2.02&#xD;&#xA;		c-2.08-2.64-0.95-5.75,0.85-8.16c5.36,4.33,12.76,4.87,19.22,3.21C407.435,240.28,408.825,237.46,409.475,234.73z"/>
	<path d="M370.005,261.47c22.91-0.07,46.09-3.48,67.47-11.97c-2.59,9.12-7.11,17.65-13.42,24.74c0.47,1.81,0.94,3.63,1.42,5.45&#xD;&#xA;		c-18.52,1.43-37.45,1.29-55.47-3.74c-0.24-0.22-0.72-0.65-0.96-0.86c1.59-0.61,3.18-1.2,4.78-1.79c-3.19-3.56-5.85-7.53-8.25-11.66&#xD;&#xA;		C367.045,261.58,368.525,261.53,370.005,261.47 M377.755,266.98c1.19,1.49,2.38,2.99,3.58,4.48c11.87,0.98,23.88,1.05,35.73-0.09&#xD;&#xA;		c3.87-2.77,6.02-7.29,8.16-11.42C410.005,265.21,393.755,266.52,377.755,266.98z"/>
	<path d="M463.265,536.52c1.07,0.17,2.35-0.19,3.3,0.42c0.94,1.76,1.54,3.67,2.26,5.53c-2.6-0.01-5.19-0.01-7.78-0.01&#xD;&#xA;		C461.795,540.47,462.535,538.5,463.265,536.52z"/>
	<path d="M245.175,536.59c7.19,0.06,14.38,0.01,21.56,0.03c-0.02,6.22-0.01,12.44-0.01,18.66c-7.17,0-14.34,0-21.51,0&#xD;&#xA;		C245.155,549.05,245.205,542.82,245.175,536.59z"/>
	<path d="M314.265,536.58c7.16,0.07,14.32,0.02,21.48,0.03c-0.01,1.94-0.01,3.89-0.01,5.85c-7.15,0-14.3,0-21.45,0&#xD;&#xA;		C314.275,540.49,314.275,538.53,314.265,536.58z"/>
	<path d="M234.995,599.36c7.03,0.04,14.07,0,21.1,0.02c-0.07,9.98,0.02,19.96-0.05,29.94c-7-0.03-14-0.02-20.99-0.01&#xD;&#xA;		C235.005,619.33,235.105,609.34,234.995,599.36z"/>
	<path d="M540.985,599.38c7.03,0,14.07-0.01,21.11,0c-0.08,7.28,0.04,14.57-0.07,21.85c-7.02,5.27-14.06,10.51-20.96,15.94&#xD;&#xA;		C540.905,624.57,541.065,611.97,540.985,599.38z"/>
</g>
<g id="_x23_b01c00ff">
	<path class="st1" d="M337.845,60.25c0.48-1.23,1.19-2.34,1.89-3.45c2.18,12.52,7.11,24.43,13.41,35.42&#xD;&#xA;		c-1,7.1-4.37,14.13-10.53,18.12c-1.47-2.62-2.75-5.33-3.83-8.13c-5.72,6.29-10.71,13.33-13.57,21.4c-0.19-4.8,0.52-9.56,0.99-14.32&#xD;&#xA;		C328.235,92.59,331.585,75.92,337.845,60.25 M332.275,101.5c2.27-2.3,4.71-4.51,6.44-7.26c0.55-1.62,0.16-3.37,0.16-5.04&#xD;&#xA;		c-0.47-6.06-0.36-12.15-0.74-18.21C335.185,80.92,333.325,91.2,332.275,101.5z"/>
	<path class="st1" d="M455.705,64.38c0.72-2.42,0.68-5.11,1.86-7.37c4.4,17.47,3.94,36.61-3.09,53.35&#xD;&#xA;		c-6.16-4.02-9.56-11.06-10.53-18.19C448.995,83.45,453.055,74.11,455.705,64.38z"/>
	<path class="st1" d="M175.635,177.29c3.67-1.85,7.92-0.91,11.79-0.42c1.89,0.21,2.94,1.99,4.06,3.31&#xD;&#xA;		c5.04,6.86,8.51,14.8,10.92,22.92c0.18,5.28-1.64,10.46-2.37,15.68c-1.25-3.49-2.35-7.03-3.41-10.58&#xD;&#xA;		c-6.55,0.96-12.97,2.61-19.34,4.36c-2.97-7.02-6.04-14.01-9.74-20.68c2.81,16.49,6.52,32.9,7.58,49.63&#xD;&#xA;		c-3.08-7.08-5.55-14.42-8.41-21.59c-0.66-1.08-0.66-2.88-1.97-3.37c-4.74,1.37-9.26,3.42-13.97,4.89&#xD;&#xA;		c-3.12-6.02-5.96-12.19-9.29-18.09c2.67,15.43,7.89,30.36,14.11,44.7c-7.03-5.97-12.65-13.42-17.04-21.5&#xD;&#xA;		c-4.95,2.12-9.79,4.45-14.75,6.54c-3.13-6.55-5.5-13.44-8.65-19.98c0.91,14.43,5.79,28.42,13.48,40.61&#xD;&#xA;		c-7.01-3.03-12.52-8.57-17-14.62c-3.9,2.1-7.81,4.21-11.74,6.25c-2.16-2.75-4.83-5.11-6.64-8.12c-0.47-6.71,0.44-13.42,0.96-20.1&#xD;&#xA;		c0.39-2.81,0.5-5.82,1.95-8.32c4.68-3.2,10.28-4.62,15.64-6.24c3.35-4.53,5.82-11.61,12.35-11.91c3.8-0.59,7.72-0.39,11.48-1.26&#xD;&#xA;		c4.1-3.24,7.46-7.56,12.3-9.79c6.02-0.34,11.93,1.49,17.66,3.13C168.895,180.84,172.155,178.84,175.635,177.29 M172.125,186.52&#xD;&#xA;		c2.05,4.66,4.33,9.22,6.39,13.88c4.86-1.04,9.71-2.1,14.6-2.95c-2.27-4.93-4.07-10.14-7.3-14.57c-2.09-0.26-4.17-0.63-6.27-0.78&#xD;&#xA;		C176.805,183.07,174.525,184.93,172.125,186.52 M143.315,194.91c2.51,4.73,4.93,9.5,7.44,14.23c4.26-1.43,8.51-2.87,12.73-4.42&#xD;&#xA;		c-1.38-5.85-3.63-11.44-5.9-16.98c-2.67-0.59-5.37-0.97-8.08-1.2C147.095,189.06,145.025,191.87,143.315,194.91 M124.755,198.69&#xD;&#xA;		c-1.33,3.38-2.8,6.83-2.99,10.51c0.37,3.81,2.4,7.18,3.79,10.69c4.05-1.93,8.13-3.8,12.25-5.6c-1.81-5.22-2.95-10.63-3.95-16.05&#xD;&#xA;		C130.815,198.3,127.785,198.49,124.755,198.69 M100.045,216.51c-1.11,5.79-0.98,11.7-0.78,17.56c3.88-2.32,7.81-4.55,11.76-6.75&#xD;&#xA;		c-0.9-4.68-1.36-9.42-1.37-14.18C106.325,213.87,103.105,215,100.045,216.51z"/>
	<path class="st1" d="M394.895,203.52c2.44-2.11,6.25-1.42,8.34,0.85c4.91,4.77,8.24,11.24,14.36,14.7&#xD;&#xA;		c6.18,3.37,13.5,3.94,20.4,3.21c-1.9-1.1-3.81-2.18-5.71-3.26c10.1-1.17,20.38-2.94,29.41-7.88c2.89,4.45,2.34,10.33-0.53,14.64&#xD;&#xA;		c-3.56,5.5-7.16,10.96-10.49,16.6c1.9,0,3.81,0,5.73,0.01c-7.51,10.16-14.57,20.98-18.29,33.16c-1.92,6.09-4.95,12.06-9.86,16.28&#xD;&#xA;		c-4.06,3.6-9.86,5.31-15.17,3.99c-6.37-1.55-12.96-2.67-19.52-1.8c-3.76,0.33-7.38,1.44-11.09,2.07&#xD;&#xA;		c-4.66,0.76-9.37-0.95-13.06-3.73c8.54,0.4,17.04-1.75,24.39-6.11c-8.44-1.82-17.79-3.47-23.8-10.3&#xD;&#xA;		c18.02,5.03,36.95,5.17,55.47,3.74c-0.48-1.82-0.95-3.64-1.42-5.45c6.31-7.09,10.83-15.62,13.42-24.74&#xD;&#xA;		c-21.38,8.49-44.56,11.9-67.47,11.97c5.18-2.97,11.59-3.68,16.14-7.71c2.46-2.43-0.85-5.39-1.74-7.8&#xD;&#xA;		c7.03,3.43,15.26,3.81,22.79,2.02c2.82-0.95,6.86-2.27,6.99-5.83c0.19-3.26-2.7-5.32-4.71-7.42c-3.4,1.29-6.88,2.39-10.43,3.19&#xD;&#xA;		c-0.75-5.84-0.26-11.74-0.52-17.6c-13.05,7.94-28.57,11.86-43.82,10.24c-5.97-0.5-11.73-2.24-17.64-3.13l-0.44-0.07&#xD;&#xA;		c-2.99-4.83-4.59-11.06-1.36-16.2c9.07,4.83,19.29,6.67,29.39,7.88c-1.88,1.11-3.77,2.18-5.65,3.27&#xD;&#xA;		c8.24,0.78,17.51-0.05,23.98-5.77C387.535,212.74,390.295,207.26,394.895,203.52 M439.525,228.03c-3.88,0.7-8.03-0.01-11.73,1.5&#xD;&#xA;		c-3.38,2.1-2.39,7.66,1.08,9.11c6.58,2.71,14.55,1.49,19.97-3.14c3.32-2.73,7.16-6.58,5.63-11.31&#xD;&#xA;		C449.255,224.49,444.725,227.6,439.525,228.03z"/>
	<path class="st1" d="M188.695,231.44c2.19-0.8,4.37-1.87,6.77-1.81c6.32-0.02,12.65,0.01,18.98,0.03c3,2.89,6.73,5.1,9.3,8.37&#xD;&#xA;		c0.29,4.71-0.01,9.45,0.09,14.17c-3.84,3.29-6.94,8-12.15,9.18c-3.47,0.93-6.97,2.14-10.58,2.17c-7.8-1.25-16.28-2.08-23.56,1.67&#xD;&#xA;		c-4.19,2.27-8.52,5.61-9.19,10.66c1.15,0.56,2.3,1.14,3.48,1.68c3.24,1.65,6.8,2.5,10.31,3.36c-2.97,9.27-3.88,19.03-4.48,28.7&#xD;&#xA;		c-5.43-2.14-11.15-3.44-16.95-4.01c0.12-15.64-0.11-31.28,0.12-46.92c7.46,0.56,15.02-1.07,21.43-4.98&#xD;&#xA;		c6.35,3.5,13.88,4.85,20.99,3.12c-5.4-2.59-11.34-5.37-14.48-10.73C188.435,241.22,188.725,236.33,188.695,231.44 M200.735,235.51&#xD;&#xA;		c-0.13,3.16-0.16,6.33-0.11,9.5c2.89,2.43,6.15,4.35,9.63,5.81c1.74-1.5,3.94-2.69,5.07-4.77c0.51-2.47,0.57-5.11-0.15-7.54&#xD;&#xA;		C211.885,233.78,205.565,235.89,200.735,235.51z"/>
	<path class="st1" d="M121.445,267.18c5.61-1.26,11.06-3.27,15.98-6.27c4.38,1.02,8.81,1.83,13.31,2&#xD;&#xA;		c0.05,14.21-0.03,28.43,0.04,42.65c-9.56,1.08-18.91,4.12-26.95,9.48c-0.13-10.63-0.03-21.27-0.05-31.9&#xD;&#xA;		c7.08,0.01,14.27-1.26,20.55-4.64c-5.49-0.17-11.46,0.18-16.28-2.92C124.885,273.69,122.695,270.6,121.445,267.18z"/>
	<path class="st1" d="M225.915,295.52c12.32-7.6,28.06-8.86,41.74-4.47c-5.06,0.64-10.44,2.43-13.15,7.1&#xD;&#xA;		c-3.32,5.1-1.9,11.33-1.77,17c-0.26,15.69-6.5,31.42-17.87,42.36c-4.21,3.98-9.05,7.23-14.14,9.97c-0.94-9.59-2.27-19.19-5.18-28.4&#xD;&#xA;		c-2.3-7.04-4.03-14.48-3.07-21.92C213.395,308.39,218.405,300.18,225.915,295.52 M230.875,301.55c-6.41,0.58-10,6.95-11.31,12.61&#xD;&#xA;		c-1.34,6.21-1.52,13.37,2.04,18.91c2.09,2.79,5.92,1.15,8-0.77c6.58-5.98,9.24-15.57,7.92-24.21&#xD;&#xA;		C237.145,304.76,234.505,301.28,230.875,301.55z"/>
	<path class="st1" d="M384.795,324.31c3.4-4.59,7.8-9.2,13.76-9.95c5.94,0.79,10.4,5.38,13.72,10.03c1.31,0.04,2.62,0.08,3.94,0.13&#xD;&#xA;		c0.66,15.67-7.49,30.27-17.69,41.59c-9.86-11-17.63-24.91-17.8-40.01C380.375,323.74,383.485,324.75,384.795,324.31&#xD;&#xA;		 M390.075,336.16c0.91,7.33,4.07,14.32,8.3,20.33c0.47-11.14,0.4-22.31,0.04-33.45C393.895,325.84,389.335,330.35,390.075,336.16z"/>
	<path class="st1" d="M158.805,422.97c11.74-0.58,22.99-5.26,32.51-12c0,2.65,0,5.31-0.01,7.97c-8.11,11.67-19.92,20.29-32.5,26.6&#xD;&#xA;		C158.795,438.02,158.805,430.49,158.805,422.97z"/>
	<path class="st1" d="M133.415,418.69c6.25,2.32,12.78,4.1,19.49,4.28c0.01,7.38,0.03,14.77-0.02,22.16&#xD;&#xA;		C143.195,439.31,136.835,429.26,133.415,418.69z"/>
	<path class="st1" d="M500.845,694.46c16.31,1.43,32.11,6.58,46.95,13.36c17.84,8.35,34.31,19.58,48.69,33.03&#xD;&#xA;		c-21.24-5.32-43.1-7.76-64.94-8.88c-27.74-1.18-55.58-0.12-83.13,3.4c-27.53,3.47-55.19,6.34-82.95,7.02&#xD;&#xA;		c-23.39,0.5-46.96-0.45-69.94-5.13c-23.54-4.72-46.74-13.77-65.28-29.3c30.68,15.12,65.41,19.63,99.27,19.64&#xD;&#xA;		c27.89-0.16,55.41-5.01,83.02-8.3c31.98-3.91,64.1-8.13,96.39-7.28C507.495,705.66,504.485,699.82,500.845,694.46 M517.385,705.3&#xD;&#xA;		c2.08,4.14,4.16,8.34,5.15,12.92c-23.81-0.52-47.78,0.24-71.24,4.63c1.36,0.19,2.73,0.38,4.12,0.44&#xD;&#xA;		c31.64-2.09,63.62-2.95,95.09,1.66c6.14,0.71,12.06,2.62,18.21,3.21C553.165,717.57,535.425,710.41,517.385,705.3z"/>
</g>
<g id="_x23_c6a375ff">
	<path class="st2" d="M372.345,85.4c8.22-6.1,17.18-11.09,26.18-15.93c7.51,3.96,14.87,8.21,21.98,12.86&#xD;&#xA;		c-3.3,0.19-6.82,0.18-9.71,2.01c-3.88,2.09-5.92,6.54-5.91,10.82c-0.07,6.15,0.89,12.29,2.35,18.26c-2.83,2.22-5.68,4.42-8.57,6.56&#xD;&#xA;		c5.6,6.89,10.63,14.25,14.86,22.06c5.02,9.01,11.52,17.06,17.92,25.11c-10.53-4.91-21.29-9.86-32.86-11.63&#xD;&#xA;		c-15.87,25-45.53,39.2-74.7,39.61c2.32,32.39,8.07,64.43,15.17,96.08c-12.57-26.9-22.37-55.07-29.91-83.78&#xD;&#xA;		c-0.45-1.9-1.17-3.89-0.46-5.82c4.49-18.22,11.2-35.86,19.65-52.6c0.97-2.31,3.41-3.29,5.29-4.71c8.34-5.86,15.59-13.26,21.4-21.63&#xD;&#xA;		c-0.32,3.25-0.85,6.47-1.41,9.69C365.945,120.06,371.025,102.34,372.345,85.4 M374.125,136.67c-6.53,7.99-14.87,14.38-24.03,19.07&#xD;&#xA;		c-5.49,2.83-10.74,6.65-13.9,12.08c-1.45,2.36-2.07,5.31-1.29,8.02c1.92,2.78,5.77,1.62,8.59,1.36&#xD;&#xA;		c11.7-2.28,22.22-9.17,30.14-17.95c9.17-11.18,11.91-26.18,12.54-40.26C382.475,125.09,378.805,131.25,374.125,136.67z"/>
	<path class="st2" d="M465.075,175.91c8.92,8.39,16.57,18.06,23.85,27.88c-7.78,29.93-17.7,59.42-30.96,87.39&#xD;&#xA;		c7.18-31.59,13.04-63.65,15.09-96C470.595,188.68,467.625,182.37,465.075,175.91z"/>
	<path class="st2" d="M296.205,267.93c2.59-1.59,5.97-0.49,8.05,1.47c6.37,5.54,8.75,13.95,12.75,21.11&#xD;&#xA;		c19.49,37.12,43.62,71.66,70.13,104.08c16.96,20.51,34.95,40.21,54.19,58.61c-2.93-1.2-5.55-2.97-8.18-4.7&#xD;&#xA;		c-17.66-11.28-34.56-23.85-49.69-38.39c18.22,29.96,39.68,57.92,63.56,83.59c3.23,3.53,6.86,6.7,9.84,10.46&#xD;&#xA;		c-14.9-7.11-28.27-17.05-41.19-27.23c-31.3-25.27-58.04-55.7-81.83-88.02c12.06,39.75,29.86,77.76,52.77,112.42&#xD;&#xA;		c-19.08-1.21-38.51-5.48-54.78-15.9c0.99,8.23,4.72,15.81,9.39,22.55c-15.89-8.88-31.13-19.76-42.25-34.37&#xD;&#xA;		c0.67,11.59,1.95,23.25,5.2,34.44c-11.02-10.63-18.24-24.55-23.72-38.68c-10.86-28.38-13.47-59.16-13.03-89.32&#xD;&#xA;		c0.65-14.81,1.44-29.95,6.2-44.11c1.48,24.84,5.37,49.75,13.93,73.19c3.32,8.73,7.24,17.34,12.63,25.01&#xD;&#xA;		c-3.47-10.38-6.64-20.99-8.07-31.86c7.39,17.51,17.72,33.75,30.01,48.23c1.82,2.18,3.79,4.22,5.87,6.15&#xD;&#xA;		c-9.63-16.51-16.55-34.43-22.46-52.55c-12.83-40.58-19.04-83.07-20.59-125.54c4.71,10.25,9.57,20.46,15.42,30.13&#xD;&#xA;		c-2.91-10.97-6.07-22.12-5.64-33.58C294.865,272.69,294.815,270.04,296.205,267.93 M309.405,320.07&#xD;&#xA;		c-0.3,5.57,1.41,10.97,2.69,16.33c-4.57-3.58-8.78-7.58-12.78-11.78c2.85,19.32,7.29,38.43,13.51,56.94&#xD;&#xA;		c4.13,11.87,8.83,23.69,15.7,34.27c-3.38-17.73-6.15-35.62-6.84-53.68c15.61,16.06,31.68,31.66,48.06,46.93&#xD;&#xA;		c-17.61-27.8-34.03-56.41-47.77-86.33c-1.54-3.17-3.27-6.91-6.83-8.17C311.815,313.63,309.595,317.2,309.405,320.07z"/>
	<path class="st2" d="M495.365,267.72c1.99-0.76,5.4-1.13,6.15,1.48c1.35,4.91,0.41,10.05-0.02,15.02&#xD;&#xA;		c-2.73,22.23-10.65,43.38-19.37,63.87c12.83-14.87,22.07-32.7,27.69-51.47c1.12-3.33,1.44-6.93,2.88-10.15&#xD;&#xA;		c4.57-0.98,9.14,1.1,12.94,3.48c4.49,2.83,4.38,8.9,4.59,13.6c3.57-3.16,7.37-6.59,12.2-7.56c4.1-0.07,8.1,1.56,11.08,4.37&#xD;&#xA;		c4.21,0.36,8.54,1.25,11.92,3.96c2.77,2.42,6.93,1.67,9.72,4.09c5.93,4.46,10.08,10.78,14.23,16.83&#xD;&#xA;		c23.17,35.86,33.94,78.81,34.28,121.27c-1.61-1.01-3.22-2.04-4.81-3.05c0.12,13.22-0.06,26.45,0.1,39.68&#xD;&#xA;		c0.01,2.06-0.15,4.13-0.38,6.2c-2.67-19.57-5.63-39.16-10.63-58.28c-1.55-5.28-2.96-10.88-6.8-15.03c-3.76,1.41-4.53,5.76-5.6,9.15&#xD;&#xA;		c-5.07,20.82-5.76,42.4-10.04,63.36c-1.79-19.87-4.13-39.72-7.64-59.37c-1.72-8.33-3.09-16.9-6.72-24.66&#xD;&#xA;		c-0.87-1.8-2.86-4.61-5.02-2.77c-3.35,3.98-4.36,9.31-5.73,14.2c-4.64,20.2-6.82,40.86-9,61.44c-3.11-29.33-5.18-58.78-7.99-88.15&#xD;&#xA;		c-0.7-6.38-0.69-12.84-1.88-19.15c-1.88,21.98-6.89,43.51-11.17,65.11c-3.84,19.47-6.48,39.16-8.39,58.91&#xD;&#xA;		c-0.19,3.81-0.56,7.63-1.37,11.38c-4.08-38.15-7.97-76.35-9.8-114.68c-2.61,14.26-5.86,28.41-8.28,42.7&#xD;&#xA;		c-2.35-4.36-4.48-8.83-6.69-13.26c-3.32,9.65-7.06,19.22-11.96,28.18c-0.2-20.09-0.08-40.2-0.05-60.29&#xD;&#xA;		c-10.78,8.94-22.81,16.65-36.11,21.24c-6.75,2.27-13.89,3.57-21.03,3.12c19-31.37,36.04-64.2,47.11-99.26&#xD;&#xA;		c3.7-11.15,6.48-22.66,11.51-33.32C487.705,275.24,490.555,270.26,495.365,267.72 M518.815,306.66&#xD;&#xA;		c-5.48,28.37-21.32,53.86-41.22,74.42c13.26-2.24,26.25-7.14,37.1-15.19c6.9,6.53,8.64,16.31,10.49,25.21&#xD;&#xA;		c9.04-17.77,13.83-37.34,17.48-56.82c6.48,14.52,10.82,29.9,15.06,45.19c2.79-3.83,5.08-8.69,9.85-10.38&#xD;&#xA;		c2.52-0.96,4.68,1.13,6.09,2.95c4.69,6.22,7.07,13.73,9.96,20.86c-0.43-24.02-4.83-48.49-15.98-69.97&#xD;&#xA;		c-2.03-4.6-6.27-7.94-11.2-8.87c-4.59-0.74-7.96-5.3-12.91-4.34c-8.02,1.59-14.12,7.7-19.29,13.65&#xD;&#xA;		C523.025,317.63,521.345,311.97,518.815,306.66z"/>
	<path class="st2" d="M123.055,329.55c8.51-8,19.94-12.85,31.65-13.05c-3.04,7.84-5.78,15.79-8.75,23.65&#xD;&#xA;		C138.275,336.72,130.645,333.17,123.055,329.55z"/>
	<path class="st2" d="M157.105,316.48c11.68,0.27,23.15,5.01,31.6,13.08c-7.56,3.64-15.2,7.14-22.86,10.58&#xD;&#xA;		C162.915,332.26,160.075,324.34,157.105,316.48z"/>
	<path class="st2" d="M108.025,363.04c0.55-11.73,5.17-23.22,13.29-31.75c3.43,7.7,6.96,15.37,10.62,22.97&#xD;&#xA;		C123.975,357.2,116.025,360.2,108.025,363.04z"/>
	<path class="st2" d="M190.485,331.33c8.16,8.47,12.66,19.97,13.28,31.65c-8.01-2.71-15.9-5.8-23.85-8.7&#xD;&#xA;		C183.465,346.64,187.015,339,190.485,331.33z"/>
	<path class="st2" d="M108.035,365.47c7.96,2.87,15.87,5.89,23.85,8.72c-3.48,7.66-7.13,15.25-10.53,22.95&#xD;&#xA;		C113.085,388.76,108.595,377.15,108.035,365.47z"/>
	<path class="st2" d="M179.925,374.17c7.99-2.78,15.85-5.89,23.84-8.66c-0.61,11.7-5.13,23.21-13.26,31.72&#xD;&#xA;		C187.035,389.52,183.395,381.88,179.925,374.17z"/>
	<path class="st2" d="M123.035,398.94c7.59-3.57,15.26-6.97,22.79-10.67c3.14,7.84,5.79,15.87,8.88,23.73&#xD;&#xA;		C142.985,411.87,131.515,406.99,123.035,398.94z"/>
	<path class="st2" d="M165.685,388.42c7.8,3.19,15.3,7.06,23.01,10.46c-8.34,8.19-19.91,12.91-31.58,13.16&#xD;&#xA;		C159.965,404.17,163.075,396.38,165.685,388.42z"/>
	<path class="st2" d="M114.425,406.09c2.01,1.71,4.17,3.28,5.98,5.22c0.58,12.93-0.13,25.93,0.31,38.87&#xD;&#xA;		c1.92,3.44,5.18,5.97,7.64,9.04c-3.63-0.92-7.19-2.08-10.72-3.3c-0.46,15.32,0.62,30.7-0.61,45.99&#xD;&#xA;		c-2.83-14.4-6.81-28.56-10.25-42.82c2.74-3.84,8.49-6.59,7.66-12C114.595,433.42,114.615,419.75,114.425,406.09z"/>
	<path class="st2" d="M191.315,410.97c1.97-1.61,3.91-3.26,5.86-4.89c0.02,24.64-0.02,49.29,0.02,73.93&#xD;&#xA;		c2.7,2.93,5.34,5.92,7.95,8.94c-3.62-1.15-7.24-2.28-10.83-3.5c0.02,13.22-0.05,26.44,0.04,39.65c0.01,2.24-0.19,4.49-0.46,6.72&#xD;&#xA;		c-2.87-14.55-7.33-28.79-10.12-43.31c2.27-3.05,5.11-5.62,7.53-8.54c-0.05-20.34-0.06-40.68,0-61.03&#xD;&#xA;		C191.315,416.28,191.315,413.62,191.315,410.97z"/>
	<path class="st2" d="M152.905,422.97c1.96-0.04,3.93-0.04,5.9,0c0,7.52-0.01,15.05,0,22.57c-0.02,7.15,0.03,14.3-0.03,21.45&#xD;&#xA;		c2.67,2.94,5.38,5.85,7.97,8.87c-3.6-1.02-7.16-2.17-10.71-3.33c-0.15,14.82,0.33,29.66-0.23,44.47&#xD;&#xA;		c-3.68-14.32-6.9-28.77-10.7-43.05c2.64-2.26,5.2-4.59,7.78-6.91c0.01-7.31,0-14.61,0-21.91&#xD;&#xA;		C152.935,437.74,152.915,430.35,152.905,422.97z"/>
</g>
<g id="_x23_e02500ff">
	<path class="st3" d="M332.275,101.5c1.05-10.3,2.91-20.58,5.86-30.51c0.38,6.06,0.27,12.15,0.74,18.21c0,1.67,0.39,3.42-0.16,5.04&#xD;&#xA;		C336.985,96.99,334.545,99.2,332.275,101.5z"/>
	<path class="st3" d="M238.935,186.33c18.97-12.22,39.57-21.92,60.9-29.27c-5.8,13.51-10.88,27.38-14.33,41.68&#xD;&#xA;		C269.955,194.7,254.475,190.4,238.935,186.33z"/>
	<path class="st3" d="M497.335,157.07c21.29,7.4,41.88,17.03,60.83,29.26c-15.56,4.05-31.03,8.4-46.6,12.39&#xD;&#xA;		C508.155,184.42,502.995,170.62,497.335,157.07z"/>
	<path class="st3" d="M354.705,230.56c15.25,1.62,30.77-2.3,43.82-10.24c0.26,5.86-0.23,11.76,0.52,17.6&#xD;&#xA;		c3.55-0.8,7.03-1.9,10.43-3.19c-0.65,2.73-2.04,5.55-5,6.28c-6.46,1.66-13.86,1.12-19.22-3.21c-1.8,2.41-2.93,5.52-0.85,8.16&#xD;&#xA;		c0.89,2.41,4.2,5.37,1.74,7.8c-4.55,4.03-10.96,4.74-16.14,7.71c-1.48,0.06-2.96,0.11-4.43,0.17c2.4,4.13,5.06,8.1,8.25,11.66&#xD;&#xA;		c-1.6,0.59-3.19,1.18-4.78,1.79c0.24,0.21,0.72,0.64,0.96,0.86c6.01,6.83,15.36,8.48,23.8,10.3c-7.35,4.36-15.85,6.51-24.39,6.11&#xD;&#xA;		c-5.06-4.12-8.33-9.99-10.29-16.13c-3.72-12.42-10.82-23.5-18.52-33.8c1.9-0.05,3.8-0.1,5.71-0.14c-3.01-5-6.23-9.87-9.25-14.86&#xD;&#xA;		C342.975,228.32,348.735,230.06,354.705,230.56z"/>
	<path class="st3" d="M439.525,228.03c5.2-0.43,9.73-3.54,14.95-3.84c1.53,4.73-2.31,8.58-5.63,11.31&#xD;&#xA;		c-5.42,4.63-13.39,5.85-19.97,3.14c-3.47-1.45-4.46-7.01-1.08-9.11C431.495,228.02,435.645,228.73,439.525,228.03z"/>
	<path class="st3" d="M200.735,235.51c4.83,0.38,11.15-1.73,14.44,3c0.72,2.43,0.66,5.07,0.15,7.54c-1.13,2.08-3.33,3.27-5.07,4.77&#xD;&#xA;		c-3.48-1.46-6.74-3.38-9.63-5.81C200.575,241.84,200.605,238.67,200.735,235.51z"/>
	<path class="st3" d="M562.285,250.76c12.6-3.48,25.26-6.76,37.86-10.21c-3.56,12.59-6.75,25.28-10.21,37.91&#xD;&#xA;		C581.355,268.61,572.115,259.37,562.285,250.76z"/>
	<path class="st3" d="M177.545,265.22c7.28-3.75,15.76-2.92,23.56-1.67c-1.94,3.53-3.17,8.42-7.43,9.83&#xD;&#xA;		c-6.98,2.56-14.42,3.87-21.84,4.18c-1.18-0.54-2.33-1.12-3.48-1.68C169.025,270.83,173.355,267.49,177.545,265.22z"/>
	<path class="st3" d="M653.905,284.13c0.02-2.11,1.65-0.09,1.93,0.61c16.77,27.69,29.35,57.96,36.54,89.55&#xD;&#xA;		c-18.17-10.25-36.13-20.87-54.23-31.23C643.375,323.41,648.585,303.76,653.905,284.13z"/>
	<path class="st3" d="M230.875,301.55c3.63-0.27,6.27,3.21,6.65,6.54c1.32,8.64-1.34,18.23-7.92,24.21c-2.08,1.92-5.91,3.56-8,0.77&#xD;&#xA;		c-3.56-5.54-3.38-12.7-2.04-18.91C220.875,308.5,224.465,302.13,230.875,301.55z"/>
	<path class="st3" d="M390.075,336.16c-0.74-5.81,3.82-10.32,8.34-13.12c0.36,11.14,0.43,22.31-0.04,33.45&#xD;&#xA;		C394.145,350.48,390.985,343.49,390.075,336.16z"/>
	<path class="st3" d="M150.465,347.86c3.58-1.1,7.35-1.02,10.94,0.01c-1.87,1.79-3.74,3.57-5.61,5.36&#xD;&#xA;		C154.005,351.44,152.225,349.66,150.465,347.86z"/>
	<path class="st3" d="M140.925,355.35c1.74-2.31,3.8-4.38,6.22-5.99c2.08,2.14,4.18,4.28,6.26,6.43c-2.04,1.98-4.05,4-6.02,6.05&#xD;&#xA;		C145.195,359.7,143.045,357.54,140.925,355.35z"/>
	<path class="st3" d="M158.385,355.84c2.07-2.19,4.19-4.34,6.33-6.47c2.32,1.63,4.36,3.62,6.07,5.9c-2.04,2.27-4.17,4.46-6.34,6.6&#xD;&#xA;		C162.425,359.86,160.405,357.85,158.385,355.84z"/>
	<path class="st3" d="M155.855,358.26c2.07,1.98,4.11,3.99,6.15,5.99c-2,2.01-3.98,4.02-5.95,6.06c-2.19-1.9-4.25-3.94-6.23-6.04&#xD;&#xA;		C151.845,362.28,153.855,360.27,155.855,358.26z"/>
	<path class="st3" d="M139.245,359.29c2.37,0.93,3.81,3.32,5.69,4.96c-1.84,1.85-3.7,3.68-5.61,5.47&#xD;&#xA;		C138.715,366.27,138.445,362.72,139.245,359.29z"/>
	<path class="st3" d="M166.845,364.26c1.84-1.85,3.72-3.66,5.7-5.37c0.55,3.61,0.56,7.26-0.01,10.87&#xD;&#xA;		C170.555,368.01,168.675,366.16,166.845,364.26z"/>
	<path class="st3" d="M140.945,373.18c2.17-2.15,4.32-4.31,6.48-6.47c1.97,2.05,3.98,4.06,6.02,6.04c-2.06,2.15-4.14,4.28-6.22,6.41&#xD;&#xA;		C144.725,377.64,142.705,375.49,140.945,373.18z"/>
	<path class="st3" d="M158.385,372.95c1.97-2.14,4-4.21,6.07-6.24c2.11,2.17,4.23,4.32,6.37,6.45c-1.73,2.33-3.77,4.41-6.18,6.04&#xD;&#xA;		C162.595,377.08,160.505,374.99,158.385,372.95z"/>
	<path class="st3" d="M150.535,380.61c1.78-1.79,3.59-3.55,5.41-5.28c1.8,1.77,3.6,3.54,5.39,5.33&#xD;&#xA;		C157.805,381.69,154.045,381.79,150.535,380.61z"/>
	<path class="st3" d="M649.655,422.74c11.24,6.62,22.59,13.05,33.85,19.64c-11.28,6.58-22.59,13.11-33.92,19.61&#xD;&#xA;		C650.565,448.92,650.435,435.81,649.655,422.74z"/>
	<path class="st3" d="M227.965,529.56c13.88-0.07,27.76,0.02,41.64-0.05c3-0.4,5.16,2,7.49,3.45c0.05,8.67-0.03,17.33,0.04,25.99&#xD;&#xA;		c-1.76,1.2-3.54,2.38-5.33,3.54c-12.29-0.09-24.59-0.08-36.88-0.01c-0.17-8.86-0.08-17.73-0.04-26.59&#xD;&#xA;		C232.615,533.73,230.285,531.65,227.965,529.56 M245.175,536.59c0.03,6.23-0.02,12.46,0.04,18.69c7.17,0,14.34,0,21.51,0&#xD;&#xA;		c0-6.22-0.01-12.44,0.01-18.66C259.555,536.6,252.365,536.65,245.175,536.59z"/>
	<path class="st3" d="M303.855,529.53c14.09,0.01,28.19,0.01,42.28,0c-0.03,6.69,0.05,13.39-0.05,20.09&#xD;&#xA;		c-4.5-0.05-8.99-0.04-13.49-0.07c4.96,4.27,9.91,8.58,14.87,12.85c-4.41,0.05-8.83,0.01-13.24,0.07&#xD;&#xA;		c-4.93-4.29-9.92-8.52-14.8-12.87c-1.72-0.02-3.44-0.03-5.15-0.03c0.01,4.28,0.01,8.57,0.01,12.86c-3.48,0-6.95,0-10.41,0.01&#xD;&#xA;		c-0.02-4.57-0.02-9.14,0.01-13.7c-2.31-2.06-4.59-4.12-6.83-6.24c2.27-0.04,4.54-0.05,6.82-0.05&#xD;&#xA;		C303.855,538.14,303.865,533.84,303.855,529.53 M314.265,536.58c0.01,1.95,0.01,3.91,0.02,5.88c7.15,0,14.3,0,21.45,0&#xD;&#xA;		c0-1.96,0-3.91,0.01-5.85C328.585,536.6,321.425,536.65,314.265,536.58z"/>
	<path class="st3" d="M374.025,529.54c14.1-0.01,28.2,0,42.3,0c0,2.35,0,4.7,0.01,7.06c-10.57,0.03-21.14,0.03-31.72-0.01&#xD;&#xA;		c0,1.95,0.01,3.91,0.01,5.87c7.12,0,14.24,0.01,21.36-0.02c-0.01,2.38,0,4.76,0,7.15c-7.14-0.03-14.27,0.02-21.4-0.04&#xD;&#xA;		c-0.01,1.9,0,3.81,0.03,5.72c10.56,0.01,21.13,0.01,31.71,0c-0.01,2.38-0.01,4.77-0.01,7.16c-14.09,0.01-28.17-0.01-42.26,0.01&#xD;&#xA;		c-0.02-4.59,0.01-9.19-0.03-13.78c-2.3-1.99-4.57-4.02-6.77-6.12c2.26-0.06,4.53-0.08,6.8-0.09&#xD;&#xA;		C374.045,538.15,374.055,533.84,374.025,529.54z"/>
	<path class="st3" d="M455.155,529.52c6.51,0.03,13.03,0.01,19.55,0.02c4.14,10.94,8.02,21.98,12.25,32.89c-3.6,0-7.19,0-10.79,0.02&#xD;&#xA;		c-1.64-4.29-3.14-8.63-4.84-12.9c-4.25,0.04-8.49,0.06-12.74-0.03c-1.77,4.25-3.26,8.6-4.89,12.91c-3.56,0.01-7.11,0.01-10.66-0.02&#xD;&#xA;		c1.72-5.12,3.79-10.11,5.54-15.22c-1.74-1.54-3.46-3.09-5.14-4.68c2.31-0.05,4.63-0.07,6.95-0.08&#xD;&#xA;		C451.935,538.11,453.565,533.82,455.155,529.52 M463.265,536.52c-0.73,1.98-1.47,3.95-2.22,5.94c2.59,0,5.18,0,7.78,0.01&#xD;&#xA;		c-0.72-1.86-1.32-3.77-2.26-5.53C465.615,536.33,464.335,536.69,463.265,536.52z"/>
	<path class="st3" d="M513.625,529.53c4.1,0,8.21-0.02,12.32,0.06c3.9,4.2,7.9,8.32,11.85,12.49c4.11-4.11,8.12-8.32,12.13-12.54&#xD;&#xA;		c6.39,0,12.79-0.03,19.18,0.02c-2.33,2.12-4.69,4.21-6.98,6.38c0.09,8.83,0.03,17.67,0.03,26.5c-3.44-0.01-6.89-0.01-10.32,0.01&#xD;&#xA;		c-0.04-7.31,0.01-14.63-0.03-21.94c-3.12,3.33-6.32,6.59-9.42,9.93c-2.97,0.04-5.94,0.05-8.9,0.05c-3.21-3.33-6.37-6.71-9.59-10.03&#xD;&#xA;		c0.13,7.32,0.06,14.65,0.06,21.97c-3.44,0-6.89,0-10.33,0C513.635,551.46,513.635,540.5,513.625,529.53z"/>
	<path class="st3" d="M517.385,705.3c18.04,5.11,35.78,12.27,51.33,22.86c-6.15-0.59-12.07-2.5-18.21-3.21&#xD;&#xA;		c-31.47-4.61-63.45-3.75-95.09-1.66c-1.39-0.06-2.76-0.25-4.12-0.44c23.46-4.39,47.43-5.15,71.24-4.63&#xD;&#xA;		C521.545,713.64,519.465,709.44,517.385,705.3z"/>
</g>
<g id="_x23_ffffffff">
	<path class="st4" d="M374.125,136.67c4.68-5.42,8.35-11.58,12.05-17.68c-0.63,14.08-3.37,29.08-12.54,40.26&#xD;&#xA;		c-7.92,8.78-18.44,15.67-30.14,17.95c-2.82,0.26-6.67,1.42-8.59-1.36c-0.78-2.71-0.16-5.66,1.29-8.02&#xD;&#xA;		c3.16-5.43,8.41-9.25,13.9-12.08C359.255,151.05,367.595,144.66,374.125,136.67z"/>
	<path class="st4" d="M172.125,186.52c2.4-1.59,4.68-3.45,7.42-4.42c2.1,0.15,4.18,0.52,6.27,0.78c3.23,4.43,5.03,9.64,7.3,14.57&#xD;&#xA;		c-4.89,0.85-9.74,1.91-14.6,2.95C176.455,195.74,174.175,191.18,172.125,186.52z"/>
	<path class="st4" d="M143.315,194.91c1.71-3.04,3.78-5.85,6.19-8.37c2.71,0.23,5.41,0.61,8.08,1.2c2.27,5.54,4.52,11.13,5.9,16.98&#xD;&#xA;		c-4.22,1.55-8.47,2.99-12.73,4.42C148.245,204.41,145.825,199.64,143.315,194.91z"/>
	<path class="st4" d="M435.035,193.98c4.43-0.79,8.96-0.75,13.44-0.48c-0.44,5.1-2.83,10.58-7.8,12.69&#xD;&#xA;		c-4.82,1.86-10.1,1.8-15.18,2.08c-4.2-0.1-9.69-1.44-10.97-6.03c0.98-0.69,1.95-1.38,2.93-2.06c2.72,2.37,6.42,4.17,10.07,2.94&#xD;&#xA;		C431.765,202.12,434.465,198.13,435.035,193.98z"/>
	<path class="st4" d="M353.905,197.69c3.04-0.86,6.16,0.19,9.09,0.98c0.34,2.8,1.64,5.77,4.55,6.69c2.74,1.34,5.49-0.36,7.75-1.83&#xD;&#xA;		c0.93,1.19,2.99,1.85,2.97,3.59c-2.37,3.28-6.97,3.08-10.53,2.56c-6.67-1.71-13.03-4.41-19.57-6.56&#xD;&#xA;		C349.635,200.93,351.305,198.58,353.905,197.69z"/>
	<path class="st4" d="M124.755,198.69c3.03-0.2,6.06-0.39,9.1-0.45c1,5.42,2.14,10.83,3.95,16.05c-4.12,1.8-8.2,3.67-12.25,5.6&#xD;&#xA;		c-1.39-3.51-3.42-6.88-3.79-10.69C121.955,205.52,123.425,202.07,124.755,198.69z"/>
	<path class="st4" d="M515.335,219.04c21.62-6.09,43.38-11.69,65.07-17.56c7.23,5.69,14.46,11.4,21.13,17.74&#xD;&#xA;		c-19.98,5.12-39.81,10.88-59.83,15.85C533.335,229.07,524.445,223.82,515.335,219.04z"/>
	<path class="st4" d="M220.505,202.26c20.48,5.36,40.88,11.03,61.26,16.75c-9.12,4.84-18.05,10.07-26.43,16.1&#xD;&#xA;		c-12.35-5.74-24.38-12.13-36.66-17.99C219.215,212.16,220.025,207.23,220.505,202.26z"/>
	<path class="st4" d="M100.045,216.51c3.06-1.51,6.28-2.64,9.61-3.37c0.01,4.76,0.47,9.5,1.37,14.18c-3.95,2.2-7.88,4.43-11.76,6.75&#xD;&#xA;		C99.065,228.21,98.935,222.3,100.045,216.51z"/>
	<path class="st4" d="M238.345,276.57c16.3-15.98,35.15-29.27,55.38-39.8c1.76,4.81,3.43,9.65,5,14.53&#xD;&#xA;		c-8.72-1.03-16.76,4.73-20.43,12.34C264.735,267.15,251.285,271.17,238.345,276.57z"/>
	<path class="st4" d="M498.365,251.3c1.56-4.89,3.26-9.74,4.98-14.57c20.24,10.6,39.12,23.88,55.46,39.88&#xD;&#xA;		c-12.96-5.47-26.49-9.41-40.06-13.01C515.135,255.97,507.045,250.28,498.365,251.3z"/>
	<path class="st4" d="M621.455,239.04c6.2,6.83,12.04,13.99,17.72,21.25c-5.86,21.73-11.67,43.46-17.44,65.21&#xD;&#xA;		c-4.97-9.1-10.17-18.1-16.18-26.55C610.685,278.94,616.235,259.03,621.455,239.04z"/>
	<path class="st4" d="M377.755,266.98c16-0.46,32.25-1.77,47.47-7.03c-2.14,4.13-4.29,8.65-8.16,11.42&#xD;&#xA;		c-11.85,1.14-23.86,1.07-35.73,0.09C380.135,269.97,378.945,268.47,377.755,266.98z"/>
	<path class="st4" d="M518.815,306.66c2.53,5.31,4.21,10.97,5.43,16.71c5.17-5.95,11.27-12.06,19.29-13.65&#xD;&#xA;		c4.95-0.96,8.32,3.6,12.91,4.34c4.93,0.93,9.17,4.27,11.2,8.87c11.15,21.48,15.55,45.95,15.98,69.97&#xD;&#xA;		c-2.89-7.13-5.27-14.64-9.96-20.86c-1.41-1.82-3.57-3.91-6.09-2.95c-4.77,1.69-7.06,6.55-9.85,10.38&#xD;&#xA;		c-4.24-15.29-8.58-30.67-15.06-45.19c-3.65,19.48-8.44,39.05-17.48,56.82c-1.85-8.9-3.59-18.68-10.49-25.21&#xD;&#xA;		c-10.85,8.05-23.84,12.95-37.1,15.19C497.495,360.52,513.335,335.03,518.815,306.66z"/>
	<path class="st4" d="M309.405,320.07c0.19-2.87,2.41-6.44,5.74-5.49c3.56,1.26,5.29,5,6.83,8.17&#xD;&#xA;		c13.74,29.92,30.16,58.53,47.77,86.33c-16.38-15.27-32.45-30.87-48.06-46.93c0.69,18.06,3.46,35.95,6.84,53.68&#xD;&#xA;		c-6.87-10.58-11.57-22.4-15.7-34.27c-6.22-18.51-10.66-37.62-13.51-56.94c4,4.2,8.21,8.2,12.78,11.78&#xD;&#xA;		C310.815,331.04,309.105,325.64,309.405,320.07z"/>
	<path class="st4" d="M155.785,327.96c2.01,4.4,3.33,9.08,5.24,13.52c-3.38-0.56-6.81-0.66-10.19-0.01&#xD;&#xA;		C152.535,336.99,154.155,332.47,155.785,327.96z"/>
	<path class="st4" d="M130.095,338.4c4.34,2.09,8.72,4.11,13.13,6.04c-2.54,2.21-4.94,4.58-7.05,7.21&#xD;&#xA;		C134.225,347.2,132.085,342.83,130.095,338.4z"/>
	<path class="st4" d="M181.585,338.51c-1.88,4.47-4.07,8.8-6.05,13.23c-1.95-2.81-4.46-5.15-7.03-7.37&#xD;&#xA;		C172.955,342.64,177.205,340.42,181.585,338.51z"/>
	<path class="st4" d="M178.685,359.19c4.47,1.79,9.06,3.26,13.51,5.1c-4.46,1.8-9.05,3.24-13.48,5.12&#xD;&#xA;		C179.335,366.02,179.355,362.56,178.685,359.19z"/>
	<path class="st4" d="M119.395,364.23c4.61-1.6,9.18-3.32,13.75-5.03c-0.59,3.37-0.56,6.8-0.02,10.18&#xD;&#xA;		C128.585,367.56,123.955,366,119.395,364.23z"/>
	<path class="st4" d="M638.875,367.09c19.47,11.06,38.76,22.46,58.22,33.54c1.49,9.11,2.25,18.36,2.63,27.58&#xD;&#xA;		c-17.89-10.17-35.65-20.57-53.48-30.85C644.535,387.1,641.955,377.01,638.875,367.09z"/>
	<path class="st4" d="M136.135,376.95c2.18,2.6,4.53,5.05,7.23,7.12c-4.43,1.74-8.65,3.98-12.99,5.92&#xD;&#xA;		C131.995,385.52,134.265,381.32,136.135,376.95z"/>
	<path class="st4" d="M168.405,384.09c2.67-2.1,5.11-4.49,7.14-7.22c1.97,4.4,4.27,8.66,5.96,13.19&#xD;&#xA;		C177.175,387.99,172.855,385.88,168.405,384.09z"/>
	<path class="st4" d="M150.885,387.13c3.35,0.52,6.77,0.55,10.12-0.08c-1.84,4.41-3.14,9.04-5.21,13.36&#xD;&#xA;		C154.105,396,152.515,391.55,150.885,387.13z"/>
	<path class="st4" d="M647.865,486.47c17.28-10.04,34.64-19.95,51.89-30.04c-0.44,9.26-1.2,18.53-2.62,27.69&#xD;&#xA;		c-19.47,11.12-38.81,22.46-58.25,33.61c2.93-9.44,5.37-19.04,7.11-28.77C645.985,487.76,646.865,486.96,647.865,486.47z"/>
	<path class="st4" d="M94.675,548.91c22.62-0.01,45.24,0.03,67.86-0.02c5.88,5.21,11.62,10.58,17.41,15.88&#xD;&#xA;		c0.77,5.1,0.03,10.5,0.34,15.72c-8.63,0-17.26,0.03-25.89-0.01c-0.11-5.07,0.23-10.14,0.22-15.2c-7.08-0.14-14.16,0.18-21.23-0.2&#xD;&#xA;		c-0.01,10.28,0,20.56-0.01,30.84c7.5-0.03,15,0.05,22.51-0.05c5.92,5.43,12.09,10.61,17.7,16.37c-13.39-0.44-26.8-0.07-40.2-0.2&#xD;&#xA;		c-0.01,21.6-0.01,43.2,0,64.8c7.03-1.8,14.06-3.61,21.07-5.5c-0.08-4.61-0.06-9.21-0.03-13.81c8.62-0.06,17.23-0.01,25.85-0.03&#xD;&#xA;		c-0.04,11.28-0.04,22.57-0.01,33.86c-24.12,6.34-48.29,12.53-72.43,18.79c-0.03-34.02-0.01-68.03-0.01-102.05&#xD;&#xA;		c-4.34-4.11-8.79-8.11-13.17-12.18c4.39-0.02,8.79-0.01,13.19,0.01c-0.05-11.61-0.02-23.22-0.02-34.82&#xD;&#xA;		C103.495,556.98,99.015,553.02,94.675,548.91z"/>
	<path class="st4" d="M616.835,564.98c7.31-5.32,14.48-10.84,21.83-16.11c21.25,0.1,42.5,0,63.75,0.05&#xD;&#xA;		c-4.34,4.12-8.85,8.04-13.15,12.19c-0.01,7.46,0.05,14.91-0.03,22.36c-8.54-0.06-17.07-0.01-25.61-0.02c0-6.13,0-12.26,0.01-18.38&#xD;&#xA;		c-6.98,0.39-13.97,0.19-20.94-0.08c-0.11,10.31,0.01,20.62-0.07,30.93c19.94-0.01,39.87-0.01,59.81,0&#xD;&#xA;		c-4.36,4.1-8.85,8.05-13.17,12.18c0.01,34.02,0.02,68.03,0,102.05c-24.15-6.24-48.29-12.46-72.42-18.77&#xD;&#xA;		c0-11.3,0.02-22.59-0.01-33.89c8.6,0.02,17.21,0.01,25.82,0.01c-0.01,4.62,0.01,9.24-0.03,13.86c6.99,1.85,14,3.66,21,5.48&#xD;&#xA;		c0-21.6,0.01-43.2,0-64.8c-15.6,0.02-31.19-0.01-46.79,0.03C616.855,596.37,616.855,580.68,616.835,564.98z"/>
	<path class="st4" d="M196.335,583.01c22.49,0.04,44.99-0.09,67.48,0.06c6.38,4.84,12.05,10.77,18.08,16.12&#xD;&#xA;		c0.02,26.81-0.01,53.62,0.02,80.43c4.2,4.05,8.65,7.82,12.88,11.84c-12.91,0.03-25.82,0-38.73,0.02&#xD;&#xA;		c0.02-15.36-0.02-30.71,0.02-46.06c-7.02,0.04-14.05,0.03-21.07,0c0.03,11.36,0.09,22.72-0.03,34.08&#xD;&#xA;		c4.34,3.97,8.74,7.86,12.99,11.92c-12.94,0.12-25.88,0.02-38.81,0.05c-0.02-16.86,0.03-33.72-0.03-50.58&#xD;&#xA;		c-4.26-3.81-8.53-7.62-12.63-11.61c4.21,0.02,8.42,0,12.63,0.06c0.06-11.52,0.01-23.04,0.03-34.55&#xD;&#xA;		C204.825,590.93,200.465,587.09,196.335,583.01 M234.995,599.36c0.11,9.98,0.01,19.97,0.06,29.95c6.99-0.01,13.99-0.02,20.99,0.01&#xD;&#xA;		c0.07-9.98-0.02-19.96,0.05-29.94C249.065,599.36,242.025,599.4,234.995,599.36z"/>
	<path class="st4" d="M293.335,583c24.48-0.02,48.96,0.08,73.44-0.05c6.05,5.39,12.02,10.88,17.96,16.4&#xD;&#xA;		c-8.95,0.07-17.9,0.01-26.85,0.03c0.08,26.78-0.01,53.56,0.05,80.34c4.3,3.89,8.64,7.76,12.89,11.73&#xD;&#xA;		c-12.93,0.06-25.86,0-38.79,0.03c0.05-30.71-0.07-61.41,0.06-92.12c-6.99,0.05-13.99-0.03-20.98,0.06&#xD;&#xA;		C305.225,593.9,299.045,588.7,293.335,583z"/>
	<path class="st4" d="M400.765,583.03c22.63-0.07,45.25,0.02,67.88-0.04c5.93,5.34,11.8,10.75,17.68,16.14&#xD;&#xA;		c-0.03,5.15-0.03,10.3,0.01,15.45c-8.58,0.01-17.16,0-25.74,0c0.04-5.06,0.01-10.11,0.04-15.16c-7.09-0.08-14.17-0.04-21.25-0.03&#xD;&#xA;		c0.14,9.97,0.25,19.94,0.26,29.92c7.58-0.01,15.16-0.01,22.73,0c5.67,5.49,11.81,10.49,17.35,16.11&#xD;&#xA;		c-13.38,0.04-26.76,0.02-40.14,0.01c0.07,9.97-0.04,19.95,0.01,29.92c6.92,0,13.84-0.07,20.77,0.04&#xD;&#xA;		c0.48-5.25,0.19-10.53,0.22-15.79c8.58-0.01,17.17-0.01,25.76,0c-0.06,4.93-0.02,9.86-0.04,14.79c-5.56-0.21-11.11-0.6-16.68-0.4&#xD;&#xA;		c2.29,5.95,5.14,11.65,7.78,17.45c-21.24,0.08-42.47,0.01-63.71,0.03c0.03-16.78,0-33.56,0.02-50.34&#xD;&#xA;		c-4.21-4.02-8.56-7.88-12.85-11.8c4.28-0.05,8.57-0.03,12.85-0.01c-0.01-11.45-0.02-22.9,0.01-34.34&#xD;&#xA;		C409.385,591.02,405.045,587.05,400.765,583.03z"/>
	<path class="st4" d="M515.185,594.8c-4.26-3.9-8.73-7.57-12.7-11.76c22.46-0.04,44.92-0.1,67.38,0.03&#xD;&#xA;		c6.35,4.86,11.97,10.77,18.01,16.07c-0.01,10.04-0.04,20.09,0.01,30.13c-3.14,2.48-6.39,4.82-9.55,7.28&#xD;&#xA;		c3.3,2.74,6.29,5.82,9.51,8.66c0.06,11.48-0.03,22.96,0.04,34.44c4.27,3.99,8.67,7.82,12.94,11.8c-12.92,0.06-25.84,0-38.76,0.03&#xD;&#xA;		c0.03-14.26-0.04-28.53,0.04-42.79c-7,5.44-14.21,10.6-21.17,16.09c0.11,4.88,0.07,9.77,0.03,14.66&#xD;&#xA;		c4.18,3.98,8.62,7.69,12.75,11.74c-12.18-6.03-25.14-10.43-38.47-13.03c-0.05-12.01,0-24.01-0.02-36.02&#xD;&#xA;		c0.26-1.33-1.12-2.03-1.84-2.87c-3.7-3.24-7.34-6.55-10.88-9.96c4.23-0.01,8.47,0,12.71,0.02&#xD;&#xA;		C515.215,617.81,515.275,606.3,515.185,594.8 M540.985,599.38c0.08,12.59-0.08,25.19,0.08,37.79c6.9-5.43,13.94-10.67,20.96-15.94&#xD;&#xA;		c0.11-7.28-0.01-14.57,0.07-21.85C555.055,599.37,548.015,599.38,540.985,599.38z"/>
</g>
</svg>