<?xml version="1.0" encoding="utf-8"?>
<svg xmlns="http://www.w3.org/2000/svg" xmlns:xlink="http://www.w3.org/1999/xlink" version="1.1" id="Layer_1" x="0px" y="0px" viewBox="0 0 530.8 530.8" style="enable-background:new 0 0 530.8 530.8;">
<style type="text/css">
	.st0{fill:#FFFFFF;}
	.st1{fill:none;}
	.st2{fill:#FF7100;}
	.st3{fill:url(#SVGID_1_);}
	.st4{fill:url(#SVGID_2_);}
	.st5{fill:url(#SVGID_3_);}
	.st6{fill:url(#SVGID_4_);}
</style>
<g id="XMLID_1_">
	<path id="XMLID_3_" class="st0" d="M398.3,397.5c-4.3-43-19.2-81.4-48.8-113.7c-1.6-1.7-1.4-6.3-0.3-8.7c11-22.5,12-45.5,2.4-68.5&#xD;&#xA;		c-6.8-16.1-17.3-29-36.4-29.1c-18.7-0.3-29.3,12.3-36.5,27.9c-2.8,6.1-4.6,12.8-6.9,19.5c-4.1,0-8.5,0-11.8,0&#xD;&#xA;		c-4.4-9.8-7.4-20-13.1-28.7c-16.4-25.4-45.2-25.7-61.7-0.3c-15.9,24.6-16.5,51-4.1,77.2c2.8,6.1,2,9.3-2.2,14&#xD;&#xA;		c-48,52.9-62.5,145.4-31.7,206.3c6.6,13.2,18.3,25.9,26.1,37.3h184c8.2-11.2,17.3-21.4,24.1-33.2&#xD;&#xA;		C399,466.4,401.7,432.1,398.3,397.5z"/>
	<path id="XMLID_5_" d="M424.7,315.4c-15.3-26.8-28.4-54.3-39.4-83c-6.7-17.9-16.3-35.1-26.1-51.8c-6-10.4-14.8-19.3-22.4-28.7&#xD;&#xA;		c-31,23-106.6,22.7-143.3-0.3c-2.5,3-5.2,6.6-8,9.7c-15.3,17.2-26.6,37-35.3,58.3c-13.4,32.8-25.2,66.2-44.7,96.1&#xD;&#xA;		c-1.1,1.6-1.9,3.3-2.7,4.9c-16.7,33.9-25.2,69-13.9,106.5c8.4,27.4,23,51,43,71.5c12.3,12.5,27.4,24.4,41.4,32.1&#xD;&#xA;		c-7.8-11.4-19.5-24.1-26.1-37.3c-30.8-60.9-16.3-153.4,31.7-206.3c4.2-4.7,5-7.9,2.2-14c-12.4-26.2-11.8-52.6,4.1-77.2&#xD;&#xA;		c16.5-25.4,45.3-25.1,61.7,0.3c5.7,8.7,8.7,18.9,13.1,28.7c3.3,0,7.7,0,11.8,0c2.3-6.7,4.1-13.4,6.9-19.5&#xD;&#xA;		c7.2-15.6,17.8-28.2,36.5-27.9c19.1,0.1,29.6,13,36.4,29.1c9.6,23,8.6,46-2.4,68.5c-1.1,2.4-1.3,7,0.3,8.7&#xD;&#xA;		c29.6,32.3,44.5,70.7,48.8,113.7c3.4,34.6,0.7,68.8-16.9,100c-6.8,11.8-15.9,22-24.1,33.2c5.8-3.8,11.8-7.2,17.5-11.5&#xD;&#xA;		c36.2-27,61.4-61.6,70.1-106.5C451.5,377.9,441.9,345.5,424.7,315.4z"/>
</g>
<g>
	<g>
		<polygon class="st1" points="220.9,129.1 225.4,100.6 218.5,100.6 216.7,111.6 207.7,111.6 209.4,100.6 202,100.6 197.5,129.1 &#xD;&#xA;			204.9,129.1 206.7,117.8 215.8,117.8 214,129.1"/>
		<polygon class="st1" points="237.9,122.8 230,122.8 233.5,100.6 226.6,100.6 222.1,129.1 236.9,129.1"/>
		<g>
			<polygon class="st1" points="254.6,100.6 236.2,100.6 235.2,106.9 241.3,106.9 238.8,122.8 238.8,122.8 237.8,129.1 237.8,129.1 &#xD;&#xA;				237.8,129.1 245.2,129.1 248.7,106.9 253.6,106.9"/>
			<polygon class="st1" points="274.2,100.6 264.6,117.9 260.5,100.6 255.8,100.6 255.5,100.6 254.3,108 259.9,129.1 265.6,129.1 &#xD;&#xA;				282.3,100.6"/>
		</g>
	</g>
	<g>
		<path class="st1" d="M279,127c-0.2,1.5-1.7,2.8-3.2,2.8s-2.6-1.3-2.3-2.8c0.2-1.5,1.7-2.8,3.2-2.8&#xD;&#xA;			C278.2,124.3,279.2,125.5,279,127z"/>
		<path class="st1" d="M292.6,122.1c-0.6,3.8-2.4,7.7-6.9,7.7c-4.4,0-5-3.9-4.4-7.7c0.6-3.8,2.4-7.7,6.9-7.7&#xD;&#xA;			C292.6,114.4,293.2,118.3,292.6,122.1z M285.5,122.1c-0.1,0.9-0.6,4,0.9,4c1.4,0,2-3.1,2.1-4c0.1-0.9,0.6-4-0.9-4&#xD;&#xA;			C286.1,118.1,285.6,121.2,285.5,122.1z"/>
		<path class="st1" d="M299.7,114.7l-0.3,1.8h0.1c1-1.3,2.1-2.2,3.8-2.3l-0.6,4c-0.2,0-0.4-0.1-0.6-0.1c-2.8,0-3.1,1.8-3.4,4&#xD;&#xA;			l-1.2,7.4h-4.1l2.3-14.8H299.7L299.7,114.7z"/>
		<path class="st1" d="M305.7,131.4c-0.1,0.9,0,2.1,1.2,2.1c1.8,0,2-2.8,2.2-4.1l0.3-1.9h-0.1c-0.4,0.5-0.8,1.1-1.2,1.5&#xD;&#xA;			c-0.5,0.4-1.1,0.7-1.8,0.7c-1.5,0-2.3-1.2-2.8-2.5c-0.5-1.5-0.4-3.4-0.2-5c0.4-2.6,1.7-7.9,5.3-7.9c1.4,0,2.2,0.9,2.5,2.1h0.1&#xD;&#xA;			l0.3-1.8h4.1l-2.6,16.1c-0.7,4.3-2.9,6.1-6.5,6.1c-3.5,0-4.8-2-4.5-5.4L305.7,131.4L305.7,131.4z M310.5,122c0.1-0.8,0.6-4-0.8-4&#xD;&#xA;			c-1.4,0-2,3.1-2.1,4c-0.1,0.9-0.6,4,0.9,4C309.8,126,310.4,122.8,310.5,122z"/>
	</g>
</g>
<g id="XMLID_2_">
	<g>
		<path class="st2" d="M360.4,35.7l-23,111.8l-2.5,1.7c-14,10.4-39,16.5-67.2,16.5c-0.6,0-1.4,0-2,0V0.5l0-0.1L303.5,90L360.4,35.7z"/>
		<path d="M325.5,222.2c6.7,3.5,9.3,12.2,5.7,20.1c-8.7-4.7-16.9-9.1-25.2-13.5C309.9,221.7,318.8,218.7,325.5,222.2z"/>
		
			<linearGradient id="SVGID_1_" gradientUnits="userSpaceOnUse" x1="308.3505" y1="448.3142" x2="308.3505" y2="496.8342" gradientTransform="matrix(1 0 0 -1 0 532)">
			<stop offset="0" style="stop-color:#690000"/>
			<stop offset="1" style="stop-color:#F04100"/>
		</linearGradient>
		<polygon class="st3" points="309.9,35 321.9,65.6 304.7,83.7 294.8,59"/>
		<path class="st2" d="M290.2,257.9c0,6.6-0.9,9.8-7.2,6.9c-10.9-5-22-5.4-33.4-0.8c-8,3.3-11.5,0.5-8.7-7.9&#xD;&#xA;			c2.5-7.7,6.3-15.6,11.5-21.7c7.6-9,17.8-8.3,26.1,0C285.2,241.3,289.3,249.7,290.2,257.9z"/>
		<path class="st2" d="M275.1,268.4c-1.7,7.1-5.7,10.1-11,9.1c-3-0.5-5.4-4.1-8-6.3c2.5-1.6,5-3.9,7.7-4.3&#xD;&#xA;			C267.4,266.5,271.2,267.8,275.1,268.4z"/>
		
			<linearGradient id="SVGID_2_" gradientUnits="userSpaceOnUse" x1="213.5414" y1="564.3296" x2="340.0698" y2="485.2657" gradientTransform="matrix(1 0 0 -1 0 532)">
			<stop offset="0" style="stop-color:#FF7100"/>
			<stop offset="0.5694" style="stop-color:#FFB500"/>
			<stop offset="1" style="stop-color:#FF7100"/>
		</linearGradient>
		<polygon class="st4" points="265.8,0.2 265.8,0.4 265.7,0.2"/>
		<polygon class="st2" points="265.7,0.2 265.8,0.4 265.7,0.5"/>
		
			<linearGradient id="SVGID_3_" gradientUnits="userSpaceOnUse" x1="170.168" y1="494.9177" x2="296.6964" y2="415.8538" gradientTransform="matrix(1 0 0 -1 0 532)">
			<stop offset="0" style="stop-color:#FF7100"/>
			<stop offset="0.5694" style="stop-color:#FFB500"/>
			<stop offset="1" style="stop-color:#FF7100"/>
		</linearGradient>
		<path class="st5" d="M265.7,0.5v165.3c-27.9-0.4-54.1-6.5-70.6-16.9l-2.4-1.4L171,35.7L228,90L265.7,0.5z"/>
		
			<linearGradient id="SVGID_4_" gradientUnits="userSpaceOnUse" x1="222.9005" y1="448.3142" x2="222.9005" y2="496.8342" gradientTransform="matrix(1 0 0 -1 0 532)">
			<stop offset="0" style="stop-color:#690000"/>
			<stop offset="1" style="stop-color:#F04100"/>
		</linearGradient>
		<polygon class="st6" points="221.3,35 236.4,59 226.5,83.7 209.4,65.6"/>
		<path d="M204.8,222.1c6.8-3.6,15.7-0.5,19.5,6.5c-8.2,4.6-16.6,9.1-24.9,13.5C195.5,234.9,198,225.7,204.8,222.1z"/>
	</g>
</g>
</svg>