<?xml version="1.0" encoding="utf-8"?>
<svg xmlns="http://www.w3.org/2000/svg" xmlns:xlink="http://www.w3.org/1999/xlink" version="1.1" id="Layer_1" x="0px" y="0px" viewBox="0 0 345.8 345.8" style="enable-background:new 0 0 345.8 345.8;">
<style type="text/css">
	.st0{fill:#1F221D;}
	.st1{fill:#E6E8E9;}
	.st2{fill:#BAC0C1;}
	.st3{fill:#871325;}
	.st4{fill:#AA1B2F;}
	.st5{fill:#BF203A;}
	.st6{fill:#E99320;}
	.st7{fill:#FFFFFF;}
</style>
<g>
	<path id="Base_57_" class="st0" d="M290.4,232.4l20.9,12.1l-15.9-34.7c-0.8-1.7-6.5-13.2-22.8-22.7c5.1,0,11.7,0.8,11.7,0.8&#xA;		c-10.1-9-24.7-12.5-32.2-13.8c-3.2-3.9-7.9-8-10.6-10.2c11.2-11.4,27.1-32.4,32.2-63.9c6.2-38.2-7.8-75.3-24-90.8&#xA;		c-1.7-1.6-3.4-3-5-4.1l0,0c-2.7-1.8-7.2-3.6-8-3.9c-4.4-1.3-8.2-1.2-11.2-0.6c-31.3,6.5-35.1,76.9-35.1,77.6&#xA;		c-0.1,4.3,0.2,10.4,0.6,17.4c0.3,5.7,0.6,12.2,0.8,18.7l-1.2,0.8c-1.3,0.8-10,6.8-16,20.1c-6.3-1.1-16.4-2.3-28-1.9&#xA;		c11.2-43.4,5-68.5-2.6-82.3c-3.8-6.8-11.1-10-19-8.4c-22.2,4.7-55.8,54.1-58.9,86.8c-1.8,19.2,1.7,38.7,6,54.1l6.2,18.6&#xA;		c0,0-6.2,11.5-0.2,37.1c0,0-20.7,22.5-13.3,48c0,0,3.4-6,7-9c0.6,7,2.5,14.7,6.9,22.1l8.2,13.6l9.8-10.2c2,1.5,4.3,3,6.8,4.3&#xA;		c10.7,5.6,13.2,8.1,13.3,8.2c0,0,3.4,20.9,16.5,28.4c0,0-1.3-5.4-1.3-9.3c3.9,4.7,9.6,8.5,17.7,9.8c0.5,0.1,1,0.2,1.6,0.2&#xA;		c19.3,2.2,41.7-4.2,52.3-14.9l3.2-3.2l0.3-4.6c0,0,0.1-0.8,0.3-2.1l13.1-15.4c1.9-2.2,7.7-7.7,12.3-9.2c5.4-1.8,17-9.3,27.4-19.8&#xA;		l-3.8,35.2l27.8-42.5c1.1-1.7,10.5-16.8,6.4-35.7C290.5,232.9,290.5,232.7,290.4,232.4z"/>
	<path id="Face_105_" class="st1" d="M216.4,154.8c6.6-24.7,1.9-40.4-0.1-55.9c-2-15.4,3.9-35.4,3.9-35.4c13.6,23,7.6,52.7,7.6,52.7&#xA;		c3.7-1,10.8-13.2,10.8-13.2c2.2,22.8-12.2,36.7-12.2,36.7c2.4,0.3,5.4,0,5.4,0C228.6,145.8,216.4,154.8,216.4,154.8z M134.7,209.4&#xA;		c4.8-1.9,9.3-12.2,11.1-18.9l0.1-0.3c1.5-4.4,3.8-8.1,6.9-11c-11.3,0.1-29.4,1.4-37.8,7.9c-7.4,5.7-11.5,12.4-13.7,17.3&#xA;		c1-0.1,2.1-0.1,3.1,0.1c4,0.6,7.7,3.2,10.2,5.8C114.8,210.5,121.1,216.6,134.7,209.4z M97.8,262.7c4,8.6,16.1,11.3,18.5,11.7&#xA;		c0.1,0,0.1,0,0.2,0c6.7,1.1,15.3-7.1,18-9.8l-14-13.1c-12.7,0.3-18.3-5.6-19.4-6.9l-0.9-0.1C96.3,251.7,95.5,257.8,97.8,262.7z&#xA;		 M92.9,194.1c-2.9-8-11.8-36.5-3.3-55.3c0,0-7.5,26.7,9.7,47.3c4.4-4.8,9.2-9,14-12.5c-2.4,0.6-4.3,1-4.7,1.1l-8.4,1.6l5.7-6.3&#xA;		c6.3-7.1,16.5-11.9,25.3-14.9c-5.1-0.8-9.4-2.8-9.6-2.9l-6.8-3.1l7.1-2.3c3-1,6-1.7,9-2.3c14.8-46.6,10.5-73.4,2.6-87.6&#xA;		c-8.2-14.7-51.7,37.7-55.1,73.6c-2.6,27.1,7,55.6,11.8,68.1C90.9,197.1,91.9,195.6,92.9,194.1z M211.1,110.4&#xA;		c-5.1-32.7,3.8-65.9,14.1-77c0,0-4.1,16.5,3.2,33.9c7.4,17.4,6.3,28.3,5.7,32.1c0,0,7.2-5.8,7.9-11.5c0,0,4,30.6-4,42.6&#xA;		c0,0,6.3-1.9,7-2.7c0,0-11.5,23.5-28.7,32.6l6.7,3.5c0,0,31.5-21.3,38.6-65.8c7.2-44.5-16.6-89-33.6-85.5s-25,49.9-25.4,66&#xA;		s6.3,67.5-6.1,79.3c0,0,5.7-15.3,0.8-32.5c0,0-12.5,8.1-15.8,28.9l-2.9-5.8c0,0-29-7.6-56,1.1c0,0,7.4,3.4,13.8,2.9&#xA;		c6.4-0.4,9.7,0.1,11.7,0.9c0,0-28.1,4.9-40.2,18.4c0,0,7.5-1.5,11.2-3.5c3.7-2.1,10.7-4.8,16.6-5.3c0,0-54.1,25.6-47.4,61.3&#xA;		c1.1-7.1,2.4-12.8,6.6-16.7c1.3-4.4,5.4-15.1,17.1-24.2c11.6-9,37.1-9.2,47.8-8.9c4-1.8,8.3-2.7,12.7-3c-0.6-3.3-1.9-5.8-2-5.8&#xA;		l-4.2-7.3l7.3,4.4c4,2.7,6.5,6.1,8,8.8c6.6,0.5,12.8,1.8,17.5,2.7c2.2,0.5,4,0.8,5.3,1c8.3,1.1,12.1,0.6,12.8,0.4l8.8-3.2&#xA;		c-6.8-5-14.6-10.3-21.3-13.2C204.7,159.4,216.2,143.2,211.1,110.4z M258.5,209.7c0,0,16-0.6,25.9,5.1c0,0-8.1-17.8-37.9-25.2&#xA;		c0,0,11.9-3.2,18.1-2.9c0,0-7.9-1.3-16.6-1.2l-2.6,1c-12.6,4.9-23.6,12.1-25.4,16.6c-1.2,2.8-2.6,5.4-4.1,7.8&#xA;		c26,26,18.3,51.1,18.3,51.1c-1.9-22.2-15.8-36.8-24.3-43.8c-3.4,3.3-7.1,5.7-11.3,7.3c-5.6,2.1-12,2.7-18.9,1.7&#xA;		c0.8,1.8,2.6,6.8,0.5,13.7c0,0-0.6-10.2-7.7-15.2c-7-1.9-13-4.7-17-6.6c-1.1-0.5-2-0.9-2.7-1.2c-1.5-0.7-3.2-1.2-4.9-1.5&#xA;		c-2-0.4-7.5-0.8-15.7,2.3c-9.6,3.6-21.6,10.9-25.2,15.3c-4.3,6.5-1.6,9.3-1.2,9.6c3,1.4,6.3,2.3,9.8,2.6c5,0.5,13.1-6.3,22.9-19.1&#xA;		l0.4-0.6c1-1.3,3.4-2.4,5.3-1.9c1,0.2,2.4,1,2.9,3.4c1,4.9-1.1,6.7-1.2,6.7l-1.1,0.9v-1.4c0-0.3-1-0.8-2.1-1l-15.3,17.2l10.1,12.6&#xA;		c23.3-7.3,58.8-23.4,63.5-25.5c-0.4-2.2-0.2-3.6,0.7-4.4c1.1-1,3.1-0.8,6.3,0.5c0.3,0.1,0.8,0.4,1,1.1c1.8,5.3-13.5,32.9-22.8,48.8&#xA;		c-4.3,7.3-8,8.6-11,9.6H175c-19.1,4.8-30.9,5.8-37.3,4.7c-3.2-0.5-5-1.5-5.7-2.8c-1.2-2.4-1-4.1-0.7-5.1c-6.4-1.3-13-8-14.2-9.3&#xA;		c-13.3-1.4-21.1-10.5-22.8-13.6c-5-11-0.7-19.4,2.1-23.2c-1.1-0.4-2.5-1-3.9-2c-14.4,13.3-17.1,28.3-17.1,28.3s5.4-9.8,11.3-13.4&#xA;		c0,0-8,20,2.5,37.4c0,0,2.6-2.7,2-13.9c-0.3-3.9,1.3-8,1.3-8s-0.4,16.1,16.7,25.2c16.4,8.7,17.4,11.7,17.4,12&#xA;		c0-0.2-0.7-4.1,1.8-7.9c0,0-0.3,16.9,4.8,24.5c0,0-0.9-6.2,3.3-11.3c0,0,0.6,17,16.3,18.8s34.4-3.4,42.2-11.3&#xA;		c0,0,1.5-24.2,20.4-35.2c0,0-3.8,7.1-4.1,10.5c0,0,8.3-9.8,17.8-12.9c9.4-3.1,42.2-29.9,39-50c0,0,7.4,14,5.9,27.8&#xA;		C274,262.2,293.5,232.3,258.5,209.7z"/>
	<path id="Face_HL_26_" class="st2" d="M154.9,256.9c-6.1,2.3-12.1,4.4-17.4,6.1l-10.1-12.6l7.8-8.8&#xA;		C130.9,257.7,146.6,257.8,154.9,256.9z M100.2,244.6c-3.9,7.1-4.7,13.1-2.4,18.1c4,8.6,16.1,11.3,18.5,11.7c0.1,0,0.1,0,0.2,0&#xA;		c3,0.5,6.4-0.9,9.5-2.8c-14.1-5.7-14.6-15.8-13.8-20.9c-6.9-1.6-10.3-5.1-11.1-6.1L100.2,244.6z M115.2,227.4&#xA;		c-3.7,2.4-6.7,4.8-8.3,6.6c-4.3,6.5-1.6,9.3-1.2,9.6c3,1.4,6.3,2.3,9.8,2.6c1.3,0.1,2.8-0.3,4.5-1.1&#xA;		C108.1,241.9,112.1,232.4,115.2,227.4z M78.3,130.6c-2.6,27.1,7,55.6,11.8,68.1c0.8-1.6,1.8-3.1,2.8-4.6c-2.9-8-11.8-36.5-3.3-55.3&#xA;		c0,0-7.5,26.7,9.7,47.3c4.4-4.8,9.2-9,14-12.5c-2.4,0.6-4.3,1-4.7,1.1l-8.4,1.6l5.7-6.3c6.3-7.1,16.5-11.9,25.3-14.9&#xA;		c-12.1-0.6-36.2-3.9-32.6-27.8c3.6-23.8,23.8-31,23.8-31c-15.1-3-26.5,11.7-26.5,11.7c16-38.1,37.1-33.6,44.1-30.9&#xA;		c-1.2-8.5-3.6-15.2-6.4-20.2C125.2,42.2,81.7,94.7,78.3,130.6z M116.5,201.1c-2.8-5.3-0.2-12.1,2-16.2c-1.3,0.7-2.5,1.4-3.5,2.2&#xA;		c-7.4,5.7-11.5,12.4-13.7,17.3c1-0.1,2.1-0.1,3.1,0.1c4,0.6,7.7,3.2,10.2,5.8c0.3,0.3,6.6,6.4,20.2-0.8c0.8-0.3,1.6-0.9,2.3-1.6&#xA;		C131.6,209.3,120.3,208.2,116.5,201.1z M199.3,136.9c-0.2-3.6-0.8-7.6-1.9-11.6c0,0-11.4,7.5-15.3,26.2&#xA;		C183.7,147.1,188.6,137.6,199.3,136.9z M233.5,28.4c-3.9,0-8.3,5-8.3,5s-4.1,16.5,3.2,33.9c7.4,17.4,6.3,28.3,5.7,32.1&#xA;		c0,0,7.2-5.8,7.9-11.5c0,0,4,30.6-4,42.6c0,0,5.6-1.6,6.8-2.6l0.2-0.2C269.7,54.4,237.4,28.4,233.5,28.4z M124.2,174.6&#xA;		c12.5-12.2,41.4-9.5,41.4-9.5c-4.9-5.4-18.8-7.4-18.8-7.4c10.1-4.3,19.1-3.1,19.1-3.1c-5.1-4.9-17-7.6-23.8-8.8&#xA;		c-6.3,0.5-13,1.7-19.5,3.8c0,0,7.4,3.4,13.8,2.9c6.4-0.4,9.7,0.1,11.7,0.9c0,0-28.1,4.9-40.2,18.4c0,0,7.5-1.5,11.2-3.5&#xA;		c3.7-2.1,10.7-4.8,16.6-5.3c0,0-54.1,25.6-47.4,61.3c1.1-7.1,2.4-12.8,6.6-16.7c1.3-4.4,5.4-15.1,17.1-24.2&#xA;		c11.6-9,37.1-9.2,47.8-8.9C143.3,170.1,124.2,174.6,124.2,174.6z M209.9,218.2c-3.4,3.3-7.1,5.7-11.3,7.3c-5.6,2.1-12,2.7-18.9,1.7&#xA;		c0.8,1.8,2.6,6.8,0.5,13.7c0,0,1.8-1.9,3.4-9.6C183.5,231.3,201.9,231.3,209.9,218.2z M245,207.5c5.9-0.6,13.4,2.2,13.4,2.2&#xA;		s16-0.6,25.9,5.1C266,195.9,245,207.5,245,207.5z M261,222.5c3.1,3.3,7,11.9,7,11.9s7.4,14,5.9,27.8&#xA;		C287.6,235.6,261,222.5,261,222.5z M140.7,301.5c0,0-7.1,4.2-7.7,5.9c0,0-0.7-6.1,1.1-10.6c-1-0.5-1.6-1.1-2-1.7&#xA;		c-1.2-2.4-1-4.1-0.7-5.1c-6.4-1.3-13-8-14.2-9.3c-13.3-1.4-21.1-10.5-22.8-13.6c-5-11-0.7-19.4,2.1-23.2c-1.1-0.4-2.5-1-3.9-2&#xA;		c-14.5,13.2-17.2,28.2-17.2,28.2s5.4-9.8,11.3-13.4c0,0-8,20,2.5,37.4c0,0,2.6-2.7,2-13.9c-0.3-3.9,1.3-8,1.3-8&#xA;		s-0.4,16.1,16.7,25.2c16.4,8.7,17.4,11.7,17.4,12c0-0.2-0.7-4.1,1.8-7.9c0,0-0.3,16.9,4.8,24.5c0,0-0.9-6.2,3.3-11.3&#xA;		c0,0,0.6,17,16.3,18.8s34.4-3.4,42.2-11.3C194.9,322,140.5,348.3,140.7,301.5z"/>
	<path id="Scar_111_" class="st3" d="M233,247.2c-5.1-15.7-14.9-25.6-21.3-30.7c1.1-1.2,2.1-2.5,3.1-3.9&#xA;		C230.4,228.7,233,247.2,233,247.2z M179,171.5c-1.4-2.2-3.5-4.7-6.6-6.8c0,0,1.6,2.8,2.3,6.8C176.1,171.4,177.6,171.4,179,171.5z"/>
	<path id="Goggles_Mid_111_" class="st4" d="M101.8,235.2c-1,1.8-1.8,3.7-2.4,5.7c0,0-9.9-1.4-8.3-11.5s2.2-16.8,7.9-20.5&#xA;		s12.9,3.8,12.9,3.8s3.7,3.9,10.2,4.5c0,0-3.9,1.7-8.6,5.2c-10.3-2.4-16.9,7-16.9,7s2.7,0.1,3,1.4&#xA;		C100.2,232.9,101.1,234.3,101.8,235.2z M214.6,180.6c-3.9-0.4-11.7-1.9-11.7-1.9l0,0c-11.4-2-45.2-12.2-53.6,12.6&#xA;		c0,0-4.6,17.9-13.1,21.3c0,0,9-1.9,18.1,1.9c8.2,3.5,39.4,21.6,57.6-4c3.5-5.3,5.8-12.8,6.2-14.2c0.5-1.4,1.7-5.3,2.3-6.5&#xA;		C222.6,184.1,218.4,181,214.6,180.6z M190.5,210.2c0,0,4.9,0.4,8.8-3.1c0,0-6.6,10.7-19.4,6.8c-12.7-4-11.6-8-18.1-7.4&#xA;		c0,0,7.3-9,18.6-14.2c11.3-5.3,22.8-7,22.5-2c0,0-1.4-0.6-2.3-0.3C200.7,190,201.3,202.6,190.5,210.2z"/>
	<path id="Goggles_Light_230_" class="st5" d="M237.2,172.4l-9.3,3.4c0,0-1.9,0.7-0.8,2.3s5.3,5.6,5.2,8.2c-0.1,2.5,0.7,2.1,0.9,2&#xA;		l0,0c3.4-1.8,7.1-3.5,11-5C241.5,176.2,237.2,172.4,237.2,172.4z M229.5,187.6c-0.1-0.8-0.6-2.2-1.3-3.2c0,0-1.3-1.9-2.1-2.9&#xA;		c-0.6-0.7-1.1-1.3-1.5-1.8c-1.6-2.1-2.7-1.8-2.7-1.8l-0.2,0.1c-0.1,0-0.2,0.1-0.4,0.2l0,0l0,0c0,0-0.9,0.7,0.2,1.8&#xA;		s5.2,4.4,2.1,11.3c-0.3,0.7-0.8,1.9-0.6,2.5c0.1,0.6,0.6,0.4,0.8,0.3l4.7-3.2C229.4,190.3,229.6,188.4,229.5,187.6z M220.3,189.9&#xA;		c-0.2,0.5-0.6,1.5-0.9,2.5c-1.1-3.1-5-7.3-16.7-9.6c-20.7-4.2-50.2-0.9-54.2,11.2l0,0c0.5-1.6,0.8-2.7,0.8-2.7&#xA;		c8.4-24.8,42.2-14.6,53.6-12.6l0,0c0,0,7.9,1.5,11.7,1.9S222.6,184.1,220.3,189.9z"/>
	<path id="Goggles_Dark_111_" class="st3" d="M228.5,190.9l-3.4,2.3c0.9-2.6,2.4-4.9,4.2-6.8c0.1,0.4,0.3,0.8,0.3,1.1&#xA;		C229.6,188.4,229.4,190.3,228.5,190.9z M233.1,188.2L233.1,188.2c3.4-1.8,7.1-3.5,11-5c-0.7-1.9-1.5-3.6-2.4-5&#xA;		c-2.4,1-6.5,2.9-10.1,6c0.4,0.7,0.6,1.4,0.6,2.1C232.1,188.8,233,188.3,233.1,188.2z M200.7,190c0,0,0.6,12.6-10.2,20.2&#xA;		c0,0,4.9,0.4,8.8-3.1c6.1-10.3,3.7-16.8,3.7-16.8S201.7,189.7,200.7,190z M148.1,195L148.1,195c-1.8,5.4-5.9,15.2-12,17.7&#xA;		c0,0,9-1.9,18.1,1.9c2.7,1.1,7.7,3.8,13.9,6C146.3,212.2,148.1,195,148.1,195z M99.8,208.5c-0.3,0.1-0.5,0.2-0.8,0.4&#xA;		c-5.7,3.7-6.3,10.4-7.9,20.5s8.3,11.5,8.3,11.5c0.6-2,1.4-3.9,2.4-5.7c-0.8-0.9-1.7-2.3-2.3-4.4c-0.3-1.3-3-1.4-3-1.4&#xA;		s0.6-0.8,1.6-1.8C96.4,218.8,99.7,208.7,99.8,208.5z"/>
	<path id="Eyes_99_" class="st6" d="M168.1,205.5c0,0,12.4-11.9,29.2-14.1C197.3,191.4,193.7,222,168.1,205.5z M99.7,228.5&#xA;		c0,0,2.2,0,2.5,2.2c0.2,1.3,0.4,2,0.8,2.5c2.2-3.4,5-6.3,7.7-8.6C107.6,224.3,103.4,224.9,99.7,228.5z"/>
	<path id="Teeth_64_" class="st7" d="M190.1,259.1c-2.1,2.6-8.4,5.8-8.4,5.8c2.1-1.5,6.2-7.7,6.2-7.7c1.1-2.8,1.3-6.5,1.4-9&#xA;		c-13.7,6-34.7,14.7-50.3,19.6l-0.9,0.3c-2.6,2.7-6.6,6.3-11.2,8.8c0,0,10.2,8.2,9.4,15.4c0.3,0.1,1,0.4,2.2,0.6&#xA;		c3.8,0.6,13.5,0.8,35.1-4.6l0,0c2.5-0.8,4.9-1.6,8.2-7.3c3.8-6.6,7-12.2,9.6-17C191.2,261.3,190.1,259.1,190.1,259.1z M177.1,281.2&#xA;		c0,0-6.3-2.9-8.2-5.7l-24.3,7c2-0.7,24-10.5,24-10.5l7.1,4.8c0,0,3.8-7.2,1.3-16.7C177,260.2,182.6,271.6,177.1,281.2z"/>
</g>
</svg>