<?xml version="1.0" encoding="utf-8"?>
<svg xmlns="http://www.w3.org/2000/svg" xmlns:xlink="http://www.w3.org/1999/xlink" version="1.1" id="Layer_1" x="0px" y="0px" viewBox="0 0 394 394" style="enable-background:new 0 0 394 394;">
<style type="text/css">
	.st0{fill:#AB1919;}
	.st1{fill:#E73435;}
	.st2{fill:url(#SVGID_1_);}
</style>
<g>
	<path class="st0" d="M78.3,45.8C84.2,28.1,95,13.3,107.8,0.5c-2.9,13.8-3.9,28.5,1,42.3c1,3.9,2.9,6.9,4.9,9.8&#xA;		c-2.9-2.9-6.9-5.9-9.8-7.9c6.9,11.8,14.6,22.3,16.6,36.1c1,6.9,1.1,15-2.8,21.9c-2,2.9-6.9,3.9-8.8,1C100,95.9,99,83.1,96,72.3&#xA;		c-5.9,10.8-7,23.2-4,36c4.9,17.7,18.6,22.3,26.5,38c3.9,5.9,3.1,21.4,3.1,28.2c-2.9-4.9-5.9-9.8-9.8-13.8&#xA;		c-5.9-4.9-12.8-7.9-19.7-11.8c-4.9-2.9-8.8-5.9-12.8-8.8c1,18.7,12.9,30.9,22.7,45.7c6.9,9.8,11.9,24.3,14.9,36.1&#xA;		c-2-2.9-4.2-5.1-6.1-7.1c-3.9-2.9-8.1-4.5-12.1-7.5c-2-2-3.2-3-5.1-6c-1,8.8-0.5,16.4,0.5,25.2c1,7.9,4.9,14.7,7.9,21.6&#xA;		c-18.7-14.7-34.4-33.4-45.2-54.1c8.8,2,17.7,4.9,26.5,2.9c1-1,2-2,2-2.9c-16.7-18.7-30.5-41.3-34.4-65.9c-3.9-19.7,2-40.3,12.8-56&#xA;		c2.9,13.8,5.9,26.5,11.8,39.3c1,2.9,2.9,3.9,5.9,4.9c0-5.9-2.9-11.8-3.9-17.7C72.4,82.2,72.4,63.5,78.3,45.8z"/>
	<path class="st1" d="M48.1,40.6c-2-4-1-8.9,1-12.9c2,4,4,7.9,7.9,11.9c3,4,7,7,7.9,11.9c0,3-1,6-2,9.9C58,54.5,52,48.5,48.1,40.6z"/>
	<path class="st1" d="M115.6,34.6c7.9,2,9.9,9.9,13.9,15.9c-1,0-3,0-4-1C120.6,46.6,118.6,39.6,115.6,34.6z"/>
	
		<linearGradient id="SVGID_1_" gradientUnits="userSpaceOnUse" x1="78.8987" y1="215.8858" x2="348.7087" y2="215.8858" gradientTransform="matrix(1 0 0 1 0 2)">
		<stop offset="0" style="stop-color:#E73435"/>
		<stop offset="1" style="stop-color:#B41B25"/>
	</linearGradient>
	<path class="st2" d="M349.1,347.5c-32.8-18.9-66.5-38.7-99.3-57.6l0,0c-30.8-17.9-61.6-34.8-91.4-53.6c0-44.7,0-89.4,0-133.1&#xA;		c31.8,0,64.6,0,96.3,0c17.9,0,35.8,0,53.6,0c0,13.9,0,27.8,0,42.7c-30.8,0-61.6,0-93.4,0c0,13.9,0,27.8,0,41.7&#xA;		c30.8,0,61.6,0,92.4,0c0,16.9,0,33.8,0,50.7c-16.9,9.9-33.8,19.9-50.7,29.8c12.9,7.9,26.8,15.9,39.7,22.8&#xA;		c16.9-9.9,34.8-19.9,51.6-29.8c0-66.5,0-132.1,0-198.6c-69.5,0-138.1,0-207.6,0c-6,0-11.9,3-17.9-1c-4-3-7-7-10.9-10.9&#xA;		c-3-3-7-6-9.9-7.9c7.9,11.9,14.9,23.8,17.9,36.7c1,7,2,14.9-2,21.9c-2,3-7,4-8.9,1c-8.9-7.9-9.9-20.9-12.9-31.8&#xA;		c-6,10.9-8.9,23.8-6,36.7c5,17.9,19.9,29.8,27.8,45.7c4,6,4,13.9,4,20.9c-3-5-6-9.9-9.9-13.9c-6-5-12.9-7.9-19.9-11.9&#xA;		c-5-3-8.9-6-12.9-8.9c1,18.9,11.9,33.8,21.9,48.7c7,9.9,12.9,21.9,15.9,33.8c-2-3-4-5-6-7c-4-3-7.9-5-11.9-7.9c-2-2-4-5-6-7.9&#xA;		c-1,8.9,0,18.9,1,27.8c1,7.9,5,14.9,7.9,21.9l0,0c3,2,5,4,7,6c9.9,9.9,22.8,14.9,34.8,21.9c33.8,19.9,67.5,39.7,102.3,58.6&#xA;		c1,0,1,0,2,0h-1c33.8,18.9,67.5,38.7,101.3,58.6C348.1,379.3,348.1,363.4,349.1,347.5z"/>
	<path class="st1" d="M50.1,166.7c3,1,6,2,7.9,4c4,5,6,10.9,9.9,16.9c-2,0-4-1-6-1C56.1,181.6,56.1,172.7,50.1,166.7z"/>
</g>
</svg>