<?xml version="1.0" encoding="utf-8"?>
<svg xmlns="http://www.w3.org/2000/svg" xmlns:xlink="http://www.w3.org/1999/xlink" version="1.1" id="Layer_1" x="0px" y="0px" viewBox="1147.5 -521 2709.9 1880.7" style="enable-background:new 1147.5 -521 2709.9 1880.7;">
<style type="text/css">
	.st0{fill:#E73E51;}
</style>
<g id="_x23_e73e51ff">
	<path class="st0" d="M2480.4-513.5c7.5-2.4,14.7-5.5,22.3-7.5c161.2,55.7,322.3,111.9,483.4,167.8&#xD;&#xA;		c287.9,100,575.8,199.9,863.8,299.9c2.5,1,5.3,1.5,7.5,3.2c-51.8,0.3-103.6,0-155.4,0.1c-513.3,0-1026.7,0-1540,0&#xD;&#xA;		c-71.1,96.5-142.2,193-213.2,289.6c0.1,114.8,0,229.5,0,344.3c0.1,11.2-0.1,22.4,0.1,33.6c-0.1,0.7-0.4,1.4-0.7,2.1&#xD;&#xA;		c-11.8-12.5-24.3-24.4-36.3-36.7c-41.8-41.8-83.7-83.6-125.5-125.5c54.1-72.6,108.3-145.3,162.3-218&#xD;&#xA;		c-71.1-96.4-142-192.9-213.1-289.3c-161.2,0-322.4,0-483.7,0c-34.8-0.1-69.6,0.2-104.5-0.2c2.2-1.7,4.9-2.3,7.4-3.2&#xD;&#xA;		C1596.8-206.6,2038.6-360.1,2480.4-513.5z"/>
	<path class="st0" d="M2756.7,159.9c69.5-69.9,138.8-140,208.4-209.9c0.1,312.8,0,625.6,0,938.4c222.6,0,445.3,0,668,0&#xD;&#xA;		c74.8,0.1,149.6-0.2,224.4,0.1c-1.5,2.1-4.2,2.3-6.3,3.2c-449.2,155.9-898.3,311.9-1347.4,467.8c-2.4,0.6-4.7-1-6.9-1.6&#xD;&#xA;		c-449.5-156.1-899.1-312.2-1348.6-468.3c0-104.9,0-209.7,0-314.6c144.1,0,288.3-0.1,432.4,0.1c28.3,27.7,56.8,55.3,85.2,83&#xD;&#xA;		c0,76.7,0,153.5,0,230.2c94.3,0,188.7,0,283.1,0c0-88.2,0.1-176.4,0-264.6c-0.3-1.4,0.5-2.6,1.1-3.7c2.3,4.4,6,8,9,12&#xD;&#xA;		c67.7,85.4,135.5,170.8,203.2,256.3c197.6,0,395.2,0,592.8,0c70-69.9,139.9-139.9,209.9-209.9c-244.2,0-488.5,0-732.7,0&#xD;&#xA;		c0-172.9,0-345.8,0-518.6C2406.8,159.9,2581.7,160,2756.7,159.9z"/>
	<path class="st0" d="M1148.1,160c145.3,0,290.6,0,436,0c24.6,32.5,49.2,65,73.8,97.5c-25.3,34.8-50.6,69.7-75.9,104.6&#xD;&#xA;		c-144.6,0-289.2,0-433.9,0C1148.1,294.7,1148.1,227.3,1148.1,160z"/>
	<path class="st0" d="M3248.1,160c202.9,0,405.8,0,608.8,0c0,172.9,0,345.8,0,518.6c-202.9,0-405.8,0-608.7,0&#xD;&#xA;		c0-54.1,0-108.2,0-162.3c90.3,0,180.6,0,270.8,0c63.6-63.6,127.2-127.2,190.8-190.8c-153.9,0-307.8,0-461.6,0&#xD;&#xA;		C3248.1,270.3,3248.1,215.1,3248.1,160z"/>
</g>
</svg>