<?xml version="1.0" encoding="utf-8"?>
<svg xmlns="http://www.w3.org/2000/svg" xmlns:xlink="http://www.w3.org/1999/xlink" version="1.1" id="Layer_1" x="0px" y="0px" viewBox="0 0 779.5 779.5" style="enable-background:new 0 0 779.5 779.5;">
<style type="text/css">
	.st0{fill:none;}
</style>
<g>
	<g>
		<polygon class="st0" points="281.9,758 288.8,714.3 278.2,714.3 275.4,731.1 261.6,731.1 264.3,714.3 252.9,714.3 246,758 &#xA;			257.4,758 260.2,740.7 274.1,740.7 271.3,758"/>
		<polygon class="st0" points="308,748.3 295.8,748.3 301.3,714.3 290.7,714.3 283.8,758 306.4,758"/>
		<g>
			<polygon class="st0" points="333.6,714.3 305.4,714.3 303.8,723.9 313.2,723.9 309.4,748.3 309.4,748.3 307.9,758 307.9,758 &#xA;				308,758 319.2,758 324.6,723.9 332,723.9"/>
			<polygon class="st0" points="363.8,714.3 349,740.8 342.6,714.3 335.5,714.3 334.9,714.3 333.3,725.6 341.7,758 350.4,758 &#xA;				376.1,714.3"/>
		</g>
	</g>
	<g>
		<path class="st0" d="M371,754.7c-0.3,2.3-2.6,4.3-4.9,4.3c-2.5,0-4-2-3.6-4.3c0.3-2.3,2.6-4.3,4.9-4.3&#xA;			C369.8,750.5,371.4,752.5,371,754.7z"/>
		<path class="st0" d="M391.9,747.3c-0.9,5.8-3.7,11.8-10.6,11.8c-6.8,0-7.7-6-6.8-11.8c0.9-5.8,3.7-11.8,10.6-11.8&#xA;			C391.9,735.4,392.8,741.4,391.9,747.3z M381,747.3c-0.1,1.3-0.9,6.1,1.3,6.1c2.1,0,3.1-4.8,3.2-6.1c0.1-1.3,0.9-6.1-1.3-6.1&#xA;			C382.1,741.1,381.2,745.8,381,747.3z"/>
		<path class="st0" d="M402.8,735.9l-0.4,2.8h0.1c1.6-2,3.2-3.3,5.8-3.6l-0.9,6.1c-0.3,0-0.7-0.1-0.9-0.1c-4.3,0-4.8,2.8-5.2,6.1&#xA;			l-1.9,11.4h-6.6l3.6-22.7H402.8L402.8,735.9z"/>
		<path class="st0" d="M412,761.6c-0.1,1.3,0,3.2,1.9,3.2c2.8,0,3.1-4.3,3.3-6.2l0.4-2.9h-0.1c-0.7,0.8-1.2,1.7-1.9,2.3&#xA;			c-0.8,0.7-1.7,1.1-2.8,1.1c-2.3,0-3.6-1.9-4.3-3.8c-0.8-2.3-0.7-5.2-0.3-7.7c0.7-4,2.6-12.1,8.1-12.1c2.1,0,3.3,1.3,3.8,3.2h0.1&#xA;			l0.4-2.8h6.2l-4,24.7c-1.1,6.6-4.5,9.4-9.9,9.4c-5.3,0-7.4-3.1-6.9-8.2L412,761.6L412,761.6z M419.4,747c0.1-1.2,0.9-6.1-1.2-6.1&#xA;			c-2.1,0-3.1,4.8-3.2,6.1c-0.1,1.3-0.9,6.1,1.3,6.1C418.3,753.2,419.2,748.3,419.4,747z"/>
	</g>
</g>
<g>
	<path d="M211.7,3.5c13.9-2.5,28.2-3.3,42.5-3.3c137.5-0.3,274.9,0,412.2,0c4.3,0,8.7-0.3,13,0.4C660.9,15,642.2,30,623.4,44.3&#xA;		c-17.4,13.9-35.3,27.6-52.9,41.2c-1.7,1.2-3.1,3.3-5.6,3.1c-92.8,0-185.4,0-278.3,0c-47.6-1.3-94.6,19.6-127.8,53.4&#xA;		c-33.3,33.8-53,80.3-53.7,128.2c-0.9,8.2,0.3,16.7,0.3,24.9c-0.3,33.3,0.4,66.8-0.4,100.1c0,12.3,0.3,24.7,0,37.3&#xA;		c-35,0-70.1,0-105.1,0c-0.3-58.5,0-117.2,0-175.6c-0.3-60.4,21.7-121,61-166.9C98.2,44.1,152.8,12.5,211.7,3.5L211.7,3.5z"/>
	<path d="M175.1,123.1C175.9,124.1,175.9,124.1,175.1,123.1L175.1,123.1z"/>
	<path d="M384.1,171.6c44.1-0.3,88.4-0.3,132.4,0c-2.1,4.1-6.2,6.6-9.4,9.9c-28.1,27.7-55.9,55.9-84,83.6&#xA;		c-10.9,10.6-21.3,22-32.7,32.1c-15.5,15.6-31.1,31-46.7,46.7c20.1-0.3,40,0.9,60,3.8c35.3,5.3,70.8,16.8,98.6,39.9&#xA;		c23.6,18.8,40.3,45.5,49.3,74.1c7.2,22.7,9.7,46.9,9.7,70.8c0,23.6,0,47.4,0,71c-33.5,0-67.2,0-101,0c0-26.1,0.4-52.2-2.5-78.1&#xA;		c-2.5-23.6-8.7-48.8-26.9-65.5c-19.3-17.4-46.1-22.4-71-25.3c-31.1-3.3-62.6-2.1-94.1-2.5c-18.1,0-36.2,0.3-54.3-0.3&#xA;		c-0.3-28.5-0.3-56.7-0.3-85.3c0-1.7,0.4-2.9,1.7-4.1C270.2,285.8,327.1,228.7,384.1,171.6L384.1,171.6z"/>
	<path d="M674.4,345.9c35,0,70.1,0,105.1,0c0.4,40,0,79.9,0.3,120.1c-0.3,29.3,0.9,58.7-2,87.9c-5.8,49.6-26.1,97.4-58.3,135.5&#xA;		c-36.7,44.5-88.9,76.1-145.9,86c-10.6,2.1-21.5,2.9-32.1,3.8c-36.2,0.8-72.8-0.3-108.9,0c-111.1,0.3-222.3,0.3-333.2,0&#xA;		c38.2-29,77.3-56.6,116-85c16.4-0.9,33.1-0.3,49.6-0.4c79.5,0,158.9,0,238.4,0c27.6-0.9,55.5-5,81-16.3&#xA;		c25.2-10.6,46.7-29,61.1-52.2c20.3-32.1,27-70.8,28.6-108.3C674.5,460.2,673.7,403.1,674.4,345.9L674.4,345.9z"/>
</g>
</svg>