<?xml version="1.0" encoding="utf-8"?>
<svg xmlns="http://www.w3.org/2000/svg" xmlns:xlink="http://www.w3.org/1999/xlink" version="1.1" id="Layer_1" x="0px" y="0px" viewBox="0 0 40 40" style="enable-background:new 0 0 40 40;">
<style type="text/css">
	.st0{fill:none;}
	.st1{fill:#F8E921;}
	.st2{fill:#020203;}
</style>
<g>
	<g>
		<polygon class="st0" points="17.9,35.4 18.2,33.6 17.8,33.6 17.6,34.3 17.1,34.3 17.2,33.6 16.7,33.6 16.4,35.4 16.9,35.4 &#xA;			17,34.7 17.6,34.7 17.5,35.4"/>
		<polygon class="st0" points="19,35 18.5,35 18.7,33.6 18.3,33.6 18,35.4 18.9,35.4"/>
		<g>
			<polygon class="st0" points="20,33.6 18.9,33.6 18.8,34 19.2,34 19,35 19,35 19,35.4 19,35.4 19,35.4 19.4,35.4 19.7,34 20,34"/>
			<polygon class="st0" points="21.3,33.6 20.7,34.7 20.4,33.6 20.1,33.6 20.1,33.6 20,34 20.4,35.4 20.7,35.4 21.8,33.6"/>
		</g>
	</g>
	<g>
		<path class="st0" d="M21.6,35.2c0,0.1-0.1,0.2-0.2,0.2c-0.1,0-0.2-0.1-0.1-0.2c0-0.1,0.1-0.2,0.2-0.2&#xA;			C21.5,35.1,21.6,35.1,21.6,35.2z"/>
		<path class="st0" d="M22.4,34.9c0,0.2-0.2,0.5-0.4,0.5c-0.3,0-0.3-0.3-0.3-0.5c0-0.2,0.2-0.5,0.4-0.5&#xA;			C22.4,34.4,22.5,34.7,22.4,34.9z M22,34.9c0,0.1,0,0.3,0.1,0.3c0.1,0,0.1-0.2,0.1-0.3s0-0.3-0.1-0.3C22,34.7,22,34.9,22,34.9z"/>
		<path class="st0" d="M22.9,34.5l0,0.1l0,0c0.1-0.1,0.1-0.1,0.2-0.1l0,0.3c0,0,0,0,0,0c-0.2,0-0.2,0.1-0.2,0.3l-0.1,0.5h-0.3&#xA;			l0.1-0.9L22.9,34.5L22.9,34.5z"/>
		<path class="st0" d="M23.3,35.5c0,0.1,0,0.1,0.1,0.1c0.1,0,0.1-0.2,0.1-0.3l0-0.1l0,0c0,0-0.1,0.1-0.1,0.1c0,0-0.1,0-0.1,0&#xA;			c-0.1,0-0.1-0.1-0.2-0.2c0-0.1,0-0.2,0-0.3c0-0.2,0.1-0.5,0.3-0.5c0.1,0,0.1,0.1,0.2,0.1l0,0l0-0.1h0.3l-0.2,1&#xA;			c0,0.3-0.2,0.4-0.4,0.4S23,35.7,23,35.5L23.3,35.5L23.3,35.5z M23.6,34.9c0-0.1,0-0.3-0.1-0.3c-0.1,0-0.1,0.2-0.1,0.3&#xA;			s0,0.3,0.1,0.3C23.5,35.2,23.6,35,23.6,34.9z"/>
	</g>
</g>
<g>
	<g>
		<polygon class="st1" points="19.2,30.4 21.3,30.2 22.8,26.9 19.8,18.6 9.8,16.9 5.9,11.8 8,8 16.9,9.2 20.4,5 5.6,3.4 0.6,12.1 &#xA;			7.2,21.1 16.3,22.5"/>
		<path class="st2" d="M18.9,30.9l-2.9-8l-9-1.4L0,12.1l5.3-9.2l16.1,1.7l-4.3,5.1L8.3,8.5l-1.8,3.2l3.6,4.8l10.1,1.7l3.2,8.7&#xA;			l-1.7,3.7L18.9,30.9z M7.5,20.6l9.2,1.4l2.9,7.8l1.4-0.1l1.3-2.9L19.4,19l-9.9-1.7l-4.2-5.6l2.5-4.3l8.9,1.2l2.8-3.3L5.8,3.9&#xA;			L1.1,12L7.5,20.6z"/>
	</g>
	<g>
		<polygon class="st1" points="34.4,3.1 23.3,4.3 17.6,11.5 9.3,10.1 8.4,11.9 10.5,14.9 19.2,16.4 25.6,8.6 32,7.8 34.2,11.5 &#xA;			28.8,18.6 30.6,23.8 39.4,11.7"/>
		<path class="st2" d="M30.5,24.8l-2.2-6.3l5.4-7l-1.9-3.2L25.9,9l-6.5,7.9l-9.1-1.6L7.9,12L9,9.5l8.4,1.5l5.7-7.1l11.6-1.3l5.3,9.2&#xA;			L30.5,24.8z M29.3,18.7l1.4,4.1l8.1-11.1l-4.7-8.1L23.6,4.7L17.8,12l-8.2-1.4L9,11.9l1.8,2.6l8.2,1.4l6.4-7.8l6.9-0.8l2.5,4.3&#xA;			L29.3,18.7z"/>
	</g>
	<g>
		<polygon class="st1" points="31.8,11.7 30.6,10 27,10.4 21.3,17.1 24.9,26.6 22.4,32.5 18,32.5 14.6,24.3 9.2,23.3 15.3,37 &#xA;			25.3,37 29.8,26.8 26.4,18.1"/>
		<path class="st2" d="M25.6,37.5H15L8.4,22.7l6.6,1.2l3.4,8.2l3.7,0l2.3-5.5L20.8,17l6-7.1l4.1-0.4l1.6,2.2l-5.5,6.5l3.3,8.5&#xA;			L25.6,37.5z M15.6,36.5H25l4.3-9.8l-3.4-8.7l5.3-6.4l-0.8-1.1l-3.1,0.3l-5.4,6.4l3.5,9.4L22.7,33l-5,0l-3.4-8.3L10,23.9L15.6,36.5&#xA;			z"/>
	</g>
</g>
</svg>