<?xml version="1.0" encoding="utf-8"?>
<svg xmlns="http://www.w3.org/2000/svg" xmlns:xlink="http://www.w3.org/1999/xlink" version="1.1" id="Layer_1" x="0px" y="0px" viewBox="0 0 113.4 113.4" style="enable-background:new 0 0 113.4 113.4;">
<style type="text/css">
	.st0{fill-rule:evenodd;clip-rule:evenodd;fill:url(#SVGID_1_);}
	.st1{fill-rule:evenodd;clip-rule:evenodd;fill:url(#SVGID_2_);}
	.st2{fill-rule:evenodd;clip-rule:evenodd;fill:#9E9F9F;}
	.st3{fill-rule:evenodd;clip-rule:evenodd;fill:url(#SVGID_3_);}
	.st4{fill-rule:evenodd;clip-rule:evenodd;fill:url(#SVGID_4_);}
	.st5{fill-rule:evenodd;clip-rule:evenodd;fill:url(#SVGID_5_);}
	.st6{fill-rule:evenodd;clip-rule:evenodd;fill:url(#SVGID_6_);}
	.st7{fill-rule:evenodd;clip-rule:evenodd;fill:url(#SVGID_7_);}
	.st8{fill-rule:evenodd;clip-rule:evenodd;fill:url(#SVGID_8_);}
	.st9{fill-rule:evenodd;clip-rule:evenodd;fill:#FFFFFF;}
	.st10{fill-rule:evenodd;clip-rule:evenodd;fill:url(#SVGID_9_);}
</style>
<g>
	
		<linearGradient id="SVGID_1_" gradientUnits="userSpaceOnUse" x1="105.0115" y1="59.5976" x2="83.2994" y2="29.9671" gradientTransform="matrix(1 0 0 -1 0 114.6142)">
		<stop offset="0" style="stop-color:#282626"/>
		<stop offset="0.5485" style="stop-color:#535151"/>
		<stop offset="1" style="stop-color:#727171"/>
	</linearGradient>
	<path class="st0" d="M85.4,66.9c0,0,1.2,2.2,1.2,7.5c0,6.8-2.7,10.7-2.7,10.7l13-4.2l6.2-20.3L99.5,51L85.4,66.9z"/>
	<g>
		<g>
			<g>
				
					<radialGradient id="SVGID_2_" cx="5.4107" cy="50.1603" r="91.531" gradientTransform="matrix(1 0 0 -1 0 114.6142)" gradientUnits="userSpaceOnUse">
					<stop offset="0" style="stop-color:#9E9F9F"/>
					<stop offset="0.7241" style="stop-color:#100F0E"/>
					<stop offset="1" style="stop-color:#32302F"/>
				</radialGradient>
				<path class="st1" d="M68.5,94.7L22,69.8L6.7,33.9L2.2,53.3c0,0-2.8,11.3,3.3,24.4c10.4,22.1,34.2,35.6,55.1,35.6&#xA;					c14.1,0,22.7-6.3,22.7-6.3l16.8-13L68.5,94.7z"/>
			</g>
		</g>
	</g>
	<path class="st2" d="M20.4,0.3l-4.9,18.4l4.5-3L20.4,0.3z"/>
	<path class="st2" d="M65,4.7l-4.2,8.4l5.7,1.8L65,4.7z"/>
	
		<linearGradient id="SVGID_3_" gradientUnits="userSpaceOnUse" x1="51.676" y1="96.7886" x2="51.676" y2="76.8596" gradientTransform="matrix(1 0 0 -1 0 114.6142)">
		<stop offset="0" style="stop-color:#040404"/>
		<stop offset="0.2675" style="stop-color:#222120"/>
		<stop offset="0.5508" style="stop-color:#3C3A39"/>
		<stop offset="0.8041" style="stop-color:#4C4A49"/>
		<stop offset="1" style="stop-color:#524F4E"/>
	</linearGradient>
	<path class="st3" d="M49.1,35.5c4.4,0.7,7.9,1.9,7.9,1.9L67.5,21l-20.7-5.6l-11,3.7C35.9,19.1,44.7,34.9,49.1,35.5z"/>
	
		<linearGradient id="SVGID_4_" gradientUnits="userSpaceOnUse" x1="62.8385" y1="93.7302" x2="62.8385" y2="56.6167" gradientTransform="matrix(1 0 0 -1 0 114.6142)">
		<stop offset="0" style="stop-color:#423F3E"/>
		<stop offset="1" style="stop-color:#727171"/>
	</linearGradient>
	<path class="st4" d="M56.8,37.5l9.3-16.6L68.9,58L56.9,43.8L56.8,37.5z"/>
	
		<linearGradient id="SVGID_5_" gradientUnits="userSpaceOnUse" x1="85.1607" y1="88.1157" x2="85.1607" y2="68.9423" gradientTransform="matrix(1 0 0 -1 0 114.6142)">
		<stop offset="0" style="stop-color:#040404"/>
		<stop offset="0.2675" style="stop-color:#222120"/>
		<stop offset="0.5508" style="stop-color:#3C3A39"/>
		<stop offset="0.8041" style="stop-color:#4C4A49"/>
		<stop offset="1" style="stop-color:#524F4E"/>
	</linearGradient>
	<path class="st5" d="M90,45.4l2.9-4.8l-5.2-7.8l-10.1-6.3l1.4,19.2L90,45.4z"/>
	<g>
		
			<linearGradient id="SVGID_6_" gradientUnits="userSpaceOnUse" x1="95.7927" y1="72.2829" x2="78.1094" y2="48.1504" gradientTransform="matrix(1 0 0 -1 0 114.6142)">
			<stop offset="0" style="stop-color:#020202"/>
			<stop offset="0.1904" style="stop-color:#151414"/>
			<stop offset="0.5037" style="stop-color:#2F2D2C"/>
			<stop offset="0.7835" style="stop-color:#3F3D3C"/>
			<stop offset="1" style="stop-color:#454241"/>
		</linearGradient>
		<polygon class="st6" points="101.8,40.6 92.4,40.5 88.7,45.5 98,45"/>
		
			<linearGradient id="SVGID_7_" gradientUnits="userSpaceOnUse" x1="97.4174" y1="70.9862" x2="79.9577" y2="47.1589" gradientTransform="matrix(1 0 0 -1 0 114.6142)">
			<stop offset="0" style="stop-color:#020202"/>
			<stop offset="0.1904" style="stop-color:#151414"/>
			<stop offset="0.5037" style="stop-color:#2F2D2C"/>
			<stop offset="0.7835" style="stop-color:#3F3D3C"/>
			<stop offset="1" style="stop-color:#454241"/>
		</linearGradient>
		<polygon class="st7" points="81.7,68.8 85.8,68.4 99.4,53.6 80.1,54.6"/>
	</g>
	
		<linearGradient id="SVGID_8_" gradientUnits="userSpaceOnUse" x1="50.5812" y1="90.5823" x2="50.5812" y2="27.996" gradientTransform="matrix(1 0 0 -1 0 114.6142)">
		<stop offset="0" style="stop-color:#000000"/>
		<stop offset="1" style="stop-color:#595656"/>
	</linearGradient>
	<path class="st8" d="M22.3,45.1l25.6,33.1l15.5,8.4l16.2-1L27.5,24l-5.9,9.9L22.3,45.1z"/>
	<path class="st9" d="M103.7,43.6l-25.1,0.5L77.2,27c0,0,4.4,2.3,8.9,6.7c5,4.9,6.2,7,6.2,7l6.3-0.8c0,0,0.4-1.2-4-5.9&#xA;		c-7.9-8.4-17.8-14.2-17.8-14.2L65.1,4.7l0.4,8.6c0,0-4.5-2.6-18.1-4.1C37,8.1,29.4,10.6,29.4,10.6L20.5,0.2l-1.2,15.1&#xA;		c0,0-17.8,11-12.2,34.1c7.8,32.1,44.1,52.2,69.4,51.6c26.9-0.6,32.2-18.6,32.3-32.5C108.9,54.4,103.7,43.6,103.7,43.6z M48.7,17.3&#xA;		c9.1-0.1,17.3,2.7,17.3,2.7l2.2,37.8L35.7,19.2C35.7,19.2,39.6,17.4,48.7,17.3z M35.9,68.3C23.5,56.5,19.6,42.9,21.1,35&#xA;		c1.3-6.6,6.3-9.9,6.3-9.9l48.9,59.6C76.3,84.7,55.7,87.1,35.9,68.3z M98,72.1c-4.5,9.5-14.7,11.4-14.7,11.4l-4.5-29l20.1-0.3&#xA;		C98.9,54.2,102.3,63.1,98,72.1z"/>
	
		<radialGradient id="SVGID_9_" cx="20.295" cy="114.7344" r="134.8801" gradientTransform="matrix(0.9068 0.4216 0.559 -1.2024 -61.5176 131.8213)" gradientUnits="userSpaceOnUse">
		<stop offset="0" style="stop-color:#EBECEC"/>
		<stop offset="0.7241" style="stop-color:#9FA0A0"/>
		<stop offset="1" style="stop-color:#C8C8C9"/>
	</radialGradient>
	<path class="st10" d="M103.7,43.6l-0.4,0.5l-23,0.7l-0.6-0.7L78,27.3c0,0,3.8,2,8.8,6.6c3.7,3.4,5.9,6.4,5.9,6.4l-0.4,0.4l9.6-0.1&#xA;		c0,0-2.2-3.1-6.6-7.8C87.3,24.4,77.1,19,77.1,19l-11-13l0.4,8.1c0,0-3.7-2.6-18.8-4.2c-11.6-1.3-17.7,1.8-17.7,1.8L21.4,1.3&#xA;		l-1.1,14.5c0,0-17.9,10.7-12.3,33.8c7.8,32.1,43.1,51.9,68.5,51.4c26.9-0.6,35.6-17.6,35.7-31.5C112.3,55.4,103.7,43.6,103.7,43.6z&#xA;		 M48.8,17.7c9.1-0.1,18.2,3.8,18.2,3.8l2.1,36.2L37,19.8C37,19.8,39.7,17.8,48.8,17.7z M35.8,68.3c-12.3-11.9-14.6-24.7-13-32.6&#xA;		c1.3-6.6,5.1-10,5.1-10l49.6,59.6C77.4,85.2,55.3,87.2,35.8,68.3z M99.1,72.4C94,82.2,83.7,84.3,83.7,84.3L81,55.4l17.9-1.2&#xA;		l0.7-0.7C99.6,53.5,103.4,63.9,99.1,72.4z"/>
</g>
</svg>